*
%FSLAX26Y26*%
%MOIN*%
%ADD10C,0.010000*%
%IPPOS*%
%LNgko*%
%LPD*%
G75*
G54D10*
X0Y0D02*
X11100000D01*
Y2245280D01*
Y3503940D01*
X0D02*
X11100000D01*
X0Y0D02*
Y3503940D01*
Y3503940D02*
X11100000D01*
Y5749220D01*
Y7007880D01*
X0D02*
X11100000D01*
X0Y3503940D02*
Y7007880D01*
Y7007880D02*
X11100000D01*
Y9253160D01*
Y10511820D01*
X0D02*
X11100000D01*
X0Y7007880D02*
Y10511820D01*
Y10511820D02*
X11100000D01*
Y12757100D01*
Y14015760D01*
X0D02*
X11100000D01*
X0Y10511820D02*
Y14015760D01*
X-393701Y0D02*
X11493701D01*
X11100000D02*
Y2245280D01*
Y2284650D02*
Y3503940D01*
X-393701D02*
X11493701D01*
X0Y0D02*
Y3503940D01*
Y3503940D02*
X11100000D01*
Y5749220D01*
Y5788590D02*
Y7007880D01*
X-393701D02*
X11493701D01*
X0Y3503940D02*
Y7007880D01*
Y7007880D02*
X11100000D01*
Y9253160D01*
Y9292530D02*
Y10511820D01*
X-393701D02*
X11493701D01*
X0Y7007880D02*
Y10511820D01*
Y10511820D02*
X11100000D01*
Y12757100D01*
Y12796470D02*
Y14015760D01*
X-393701D02*
X11493701D01*
X0Y10511820D02*
Y14015760D01*
X-393701Y0D02*
Y14015760D01*
X11493701Y0D02*
Y14015760D01*
M02*
