*
%FSLAX26Y26*%
%MOIN*%
%ADD10C,0.008000*%
%IPPOS*%
%LNgko1*%
%LPD*%
G75*
G54D10*
X1042515Y940950D02*
Y1106300D01*
X1043007Y1112186D01*
X1044471Y1117909D01*
X1046864Y1123309D01*
X1050122Y1128237D01*
X1054153Y1132555D01*
X1058845Y1136143D01*
X1064068Y1138902D01*
X1069676Y1140756D01*
X1075515Y1141651D01*
X1081421Y1141564D01*
X1087231Y1140498D01*
X1092783Y1138481D01*
X1097923Y1135570D01*
X1102507Y1131845D01*
X1106410Y1127411D01*
X1109521Y1122390D01*
X1111756Y1116922D01*
X1113050Y1111159D01*
X1113385Y1106300D01*
Y940950D01*
X1112893Y935064D01*
X1111429Y929341D01*
X1109036Y923941D01*
X1105778Y919013D01*
X1101747Y914695D01*
X1097055Y911107D01*
X1091832Y908348D01*
X1086224Y906494D01*
X1080385Y905599D01*
X1074479Y905686D01*
X1068669Y906752D01*
X1063117Y908769D01*
X1057977Y911680D01*
X1053393Y915405D01*
X1049490Y919839D01*
X1046379Y924860D01*
X1044144Y930328D01*
X1042850Y936091D01*
X1042515Y940950D01*
Y1669290D02*
Y1795280D01*
X1043007Y1801166D01*
X1044471Y1806889D01*
X1046864Y1812289D01*
X1050122Y1817217D01*
X1054153Y1821535D01*
X1058845Y1825123D01*
X1064068Y1827882D01*
X1069676Y1829736D01*
X1075515Y1830631D01*
X1081421Y1830544D01*
X1087231Y1829478D01*
X1092783Y1827461D01*
X1097923Y1824550D01*
X1102507Y1820825D01*
X1106410Y1816391D01*
X1109521Y1811370D01*
X1111756Y1805902D01*
X1113050Y1800139D01*
X1113385Y1795280D01*
Y1669290D01*
X1112893Y1663404D01*
X1111429Y1657681D01*
X1109036Y1652281D01*
X1105778Y1647353D01*
X1101747Y1643035D01*
X1097055Y1639447D01*
X1091832Y1636688D01*
X1086224Y1634834D01*
X1080385Y1633939D01*
X1074479Y1634025D01*
X1068669Y1635092D01*
X1063117Y1637109D01*
X1057977Y1640020D01*
X1053393Y1643745D01*
X1049490Y1648179D01*
X1046379Y1653200D01*
X1044144Y1658668D01*
X1042850Y1664431D01*
X1042515Y1669290D01*
Y2305120D02*
Y2553150D01*
X1043007Y2559036D01*
X1044471Y2564759D01*
X1046864Y2570159D01*
X1050122Y2575087D01*
X1054153Y2579405D01*
X1058845Y2582993D01*
X1064068Y2585752D01*
X1069676Y2587606D01*
X1075515Y2588501D01*
X1081421Y2588414D01*
X1087231Y2587348D01*
X1092783Y2585331D01*
X1097923Y2582420D01*
X1102507Y2578695D01*
X1106410Y2574261D01*
X1109521Y2569240D01*
X1111756Y2563772D01*
X1113050Y2558009D01*
X1113385Y2553150D01*
Y2305120D01*
X1112893Y2299234D01*
X1111429Y2293511D01*
X1109036Y2288111D01*
X1105778Y2283183D01*
X1101747Y2278865D01*
X1097055Y2275277D01*
X1091832Y2272518D01*
X1086224Y2270664D01*
X1080385Y2269769D01*
X1074479Y2269856D01*
X1068669Y2270922D01*
X1063117Y2272939D01*
X1057977Y2275850D01*
X1053393Y2279575D01*
X1049490Y2284009D01*
X1046379Y2289030D01*
X1044144Y2294498D01*
X1042850Y2300261D01*
X1042515Y2305120D01*
X5763865Y939150D02*
Y1104500D01*
X5764357Y1110386D01*
X5765821Y1116109D01*
X5768214Y1121509D01*
X5771472Y1126437D01*
X5775503Y1130755D01*
X5780195Y1134343D01*
X5785418Y1137102D01*
X5791026Y1138956D01*
X5796865Y1139851D01*
X5802771Y1139764D01*
X5808581Y1138698D01*
X5814133Y1136681D01*
X5819273Y1133770D01*
X5823857Y1130045D01*
X5827760Y1125611D01*
X5830871Y1120590D01*
X5833106Y1115122D01*
X5834400Y1109359D01*
X5834735Y1104500D01*
Y939150D01*
X5834243Y933264D01*
X5832779Y927541D01*
X5830386Y922141D01*
X5827128Y917213D01*
X5823097Y912895D01*
X5818405Y909307D01*
X5813182Y906548D01*
X5807574Y904694D01*
X5801735Y903799D01*
X5795829Y903886D01*
X5790019Y904952D01*
X5784467Y906969D01*
X5779327Y909880D01*
X5774743Y913605D01*
X5770840Y918039D01*
X5767729Y923060D01*
X5765494Y928528D01*
X5764200Y934291D01*
X5763865Y939150D01*
Y1667500D02*
Y1793480D01*
X5764357Y1799366D01*
X5765821Y1805089D01*
X5768214Y1810489D01*
X5771472Y1815417D01*
X5775503Y1819735D01*
X5780195Y1823323D01*
X5785418Y1826082D01*
X5791026Y1827936D01*
X5796865Y1828831D01*
X5802771Y1828744D01*
X5808581Y1827678D01*
X5814133Y1825661D01*
X5819273Y1822750D01*
X5823857Y1819025D01*
X5827760Y1814591D01*
X5830871Y1809570D01*
X5833106Y1804102D01*
X5834400Y1798339D01*
X5834735Y1793480D01*
Y1667500D01*
X5834243Y1661614D01*
X5832779Y1655891D01*
X5830386Y1650491D01*
X5827128Y1645563D01*
X5823097Y1641245D01*
X5818405Y1637657D01*
X5813182Y1634898D01*
X5807574Y1633044D01*
X5801735Y1632149D01*
X5795829Y1632236D01*
X5790019Y1633302D01*
X5784467Y1635319D01*
X5779327Y1638230D01*
X5774743Y1641955D01*
X5770840Y1646389D01*
X5767729Y1651410D01*
X5765494Y1656878D01*
X5764200Y1662641D01*
X5763865Y1667500D01*
Y2303320D02*
Y2551350D01*
X5764357Y2557236D01*
X5765821Y2562959D01*
X5768214Y2568359D01*
X5771472Y2573287D01*
X5775503Y2577605D01*
X5780195Y2581193D01*
X5785418Y2583952D01*
X5791026Y2585806D01*
X5796865Y2586701D01*
X5802771Y2586614D01*
X5808581Y2585548D01*
X5814133Y2583531D01*
X5819273Y2580620D01*
X5823857Y2576895D01*
X5827760Y2572461D01*
X5830871Y2567440D01*
X5833106Y2561972D01*
X5834400Y2556209D01*
X5834735Y2551350D01*
Y2303320D01*
X5834243Y2297434D01*
X5832779Y2291711D01*
X5830386Y2286311D01*
X5827128Y2281383D01*
X5823097Y2277065D01*
X5818405Y2273477D01*
X5813182Y2270718D01*
X5807574Y2268864D01*
X5801735Y2267969D01*
X5795829Y2268056D01*
X5790019Y2269122D01*
X5784467Y2271139D01*
X5779327Y2274050D01*
X5774743Y2277775D01*
X5770840Y2282209D01*
X5767729Y2287230D01*
X5765494Y2292698D01*
X5764200Y2298461D01*
X5763865Y2303320D01*
X8562065Y940950D02*
Y1106300D01*
X8562557Y1112186D01*
X8564021Y1117909D01*
X8566414Y1123309D01*
X8569672Y1128237D01*
X8573703Y1132555D01*
X8578395Y1136143D01*
X8583618Y1138902D01*
X8589226Y1140756D01*
X8595065Y1141651D01*
X8600971Y1141564D01*
X8606781Y1140498D01*
X8612333Y1138481D01*
X8617473Y1135570D01*
X8622057Y1131845D01*
X8625960Y1127411D01*
X8629071Y1122390D01*
X8631306Y1116922D01*
X8632600Y1111159D01*
X8632935Y1106300D01*
Y940950D01*
X8632443Y935064D01*
X8630979Y929341D01*
X8628586Y923941D01*
X8625328Y919013D01*
X8621297Y914695D01*
X8616605Y911107D01*
X8611382Y908348D01*
X8605774Y906494D01*
X8599935Y905599D01*
X8594029Y905686D01*
X8588219Y906752D01*
X8582667Y908769D01*
X8577527Y911680D01*
X8572943Y915405D01*
X8569040Y919839D01*
X8565929Y924860D01*
X8563694Y930328D01*
X8562400Y936091D01*
X8562065Y940950D01*
Y1669290D02*
Y1795280D01*
X8562557Y1801166D01*
X8564021Y1806889D01*
X8566414Y1812289D01*
X8569672Y1817217D01*
X8573703Y1821535D01*
X8578395Y1825123D01*
X8583618Y1827882D01*
X8589226Y1829736D01*
X8595065Y1830631D01*
X8600971Y1830544D01*
X8606781Y1829478D01*
X8612333Y1827461D01*
X8617473Y1824550D01*
X8622057Y1820825D01*
X8625960Y1816391D01*
X8629071Y1811370D01*
X8631306Y1805902D01*
X8632600Y1800139D01*
X8632935Y1795280D01*
Y1669290D01*
X8632443Y1663404D01*
X8630979Y1657681D01*
X8628586Y1652281D01*
X8625328Y1647353D01*
X8621297Y1643035D01*
X8616605Y1639447D01*
X8611382Y1636688D01*
X8605774Y1634834D01*
X8599935Y1633939D01*
X8594029Y1634025D01*
X8588219Y1635092D01*
X8582667Y1637109D01*
X8577527Y1640020D01*
X8572943Y1643745D01*
X8569040Y1648179D01*
X8565929Y1653200D01*
X8563694Y1658668D01*
X8562400Y1664431D01*
X8562065Y1669290D01*
Y2305120D02*
Y2553150D01*
X8562557Y2559036D01*
X8564021Y2564759D01*
X8566414Y2570159D01*
X8569672Y2575087D01*
X8573703Y2579405D01*
X8578395Y2582993D01*
X8583618Y2585752D01*
X8589226Y2587606D01*
X8595065Y2588501D01*
X8600971Y2588414D01*
X8606781Y2587348D01*
X8612333Y2585331D01*
X8617473Y2582420D01*
X8622057Y2578695D01*
X8625960Y2574261D01*
X8629071Y2569240D01*
X8631306Y2563772D01*
X8632600Y2558009D01*
X8632935Y2553150D01*
Y2305120D01*
X8632443Y2299234D01*
X8630979Y2293511D01*
X8628586Y2288111D01*
X8625328Y2283183D01*
X8621297Y2278865D01*
X8616605Y2275277D01*
X8611382Y2272518D01*
X8605774Y2270664D01*
X8599935Y2269769D01*
X8594029Y2269856D01*
X8588219Y2270922D01*
X8582667Y2272939D01*
X8577527Y2275850D01*
X8572943Y2279575D01*
X8569040Y2284009D01*
X8565929Y2289030D01*
X8563694Y2294498D01*
X8562400Y2300261D01*
X8562065Y2305120D01*
X10785200Y2284650D02*
X10780829Y2284159D01*
X10776676Y2282709D01*
X10772949Y2280373D01*
X10769833Y2277268D01*
X10767485Y2273549D01*
X10766021Y2269401D01*
X10765515Y2265032D01*
X10765992Y2260659D01*
X10767427Y2256502D01*
X10769750Y2252766D01*
X10772845Y2249640D01*
X10776556Y2247280D01*
X10780699Y2245802D01*
X10785066Y2245281D01*
X10785200Y2245280D01*
Y2245280D02*
X11100000D01*
X10785200D03*
Y2284650D02*
X11100000D01*
Y2284650D02*
X11104371Y2284159D01*
X11108524Y2282709D01*
X11112251Y2280373D01*
X11115367Y2277268D01*
X11117715Y2273549D01*
X11119179Y2269401D01*
X11119685Y2265032D01*
X11119208Y2260659D01*
X11117773Y2256502D01*
X11115450Y2252766D01*
X11112355Y2249640D01*
X11108644Y2247280D01*
X11104501Y2245802D01*
X11100134Y2245281D01*
X11100000Y2245280D01*
X1042515Y4444890D02*
Y4610240D01*
X1043007Y4616126D01*
X1044471Y4621849D01*
X1046864Y4627249D01*
X1050122Y4632177D01*
X1054153Y4636495D01*
X1058845Y4640083D01*
X1064068Y4642842D01*
X1069676Y4644695D01*
X1075515Y4645591D01*
X1081421Y4645504D01*
X1087231Y4644438D01*
X1092783Y4642421D01*
X1097923Y4639510D01*
X1102507Y4635785D01*
X1106410Y4631351D01*
X1109521Y4626330D01*
X1111756Y4620862D01*
X1113050Y4615099D01*
X1113385Y4610240D01*
Y4444890D01*
X1112893Y4439003D01*
X1111429Y4433281D01*
X1109036Y4427881D01*
X1105778Y4422953D01*
X1101747Y4418635D01*
X1097055Y4415047D01*
X1091832Y4412288D01*
X1086224Y4410434D01*
X1080385Y4409539D01*
X1074479Y4409625D01*
X1068669Y4410692D01*
X1063117Y4412709D01*
X1057977Y4415620D01*
X1053393Y4419344D01*
X1049490Y4423779D01*
X1046379Y4428800D01*
X1044144Y4434268D01*
X1042850Y4440031D01*
X1042515Y4444890D01*
Y5173230D02*
Y5299220D01*
X1043007Y5305106D01*
X1044471Y5310829D01*
X1046864Y5316229D01*
X1050122Y5321157D01*
X1054153Y5325475D01*
X1058845Y5329063D01*
X1064068Y5331822D01*
X1069676Y5333675D01*
X1075515Y5334571D01*
X1081421Y5334484D01*
X1087231Y5333418D01*
X1092783Y5331401D01*
X1097923Y5328490D01*
X1102507Y5324765D01*
X1106410Y5320331D01*
X1109521Y5315310D01*
X1111756Y5309842D01*
X1113050Y5304079D01*
X1113385Y5299220D01*
Y5173230D01*
X1112893Y5167343D01*
X1111429Y5161621D01*
X1109036Y5156220D01*
X1105778Y5151293D01*
X1101747Y5146975D01*
X1097055Y5143387D01*
X1091832Y5140627D01*
X1086224Y5138774D01*
X1080385Y5137879D01*
X1074479Y5137965D01*
X1068669Y5139032D01*
X1063117Y5141049D01*
X1057977Y5143960D01*
X1053393Y5147684D01*
X1049490Y5152119D01*
X1046379Y5157140D01*
X1044144Y5162608D01*
X1042850Y5168371D01*
X1042515Y5173230D01*
Y5809060D02*
Y6057090D01*
X1043007Y6062976D01*
X1044471Y6068699D01*
X1046864Y6074099D01*
X1050122Y6079027D01*
X1054153Y6083345D01*
X1058845Y6086933D01*
X1064068Y6089692D01*
X1069676Y6091545D01*
X1075515Y6092441D01*
X1081421Y6092354D01*
X1087231Y6091288D01*
X1092783Y6089271D01*
X1097923Y6086360D01*
X1102507Y6082635D01*
X1106410Y6078201D01*
X1109521Y6073180D01*
X1111756Y6067712D01*
X1113050Y6061949D01*
X1113385Y6057090D01*
Y5809060D01*
X1112893Y5803173D01*
X1111429Y5797451D01*
X1109036Y5792050D01*
X1105778Y5787123D01*
X1101747Y5782805D01*
X1097055Y5779217D01*
X1091832Y5776457D01*
X1086224Y5774604D01*
X1080385Y5773709D01*
X1074479Y5773795D01*
X1068669Y5774862D01*
X1063117Y5776879D01*
X1057977Y5779790D01*
X1053393Y5783514D01*
X1049490Y5787949D01*
X1046379Y5792970D01*
X1044144Y5798438D01*
X1042850Y5804201D01*
X1042515Y5809060D01*
X5763865Y4443090D02*
Y4608440D01*
X5764357Y4614326D01*
X5765821Y4620049D01*
X5768214Y4625449D01*
X5771472Y4630377D01*
X5775503Y4634695D01*
X5780195Y4638283D01*
X5785418Y4641042D01*
X5791026Y4642895D01*
X5796865Y4643791D01*
X5802771Y4643704D01*
X5808581Y4642638D01*
X5814133Y4640621D01*
X5819273Y4637710D01*
X5823857Y4633985D01*
X5827760Y4629551D01*
X5830871Y4624530D01*
X5833106Y4619062D01*
X5834400Y4613299D01*
X5834735Y4608440D01*
Y4443090D01*
X5834243Y4437203D01*
X5832779Y4431481D01*
X5830386Y4426081D01*
X5827128Y4421153D01*
X5823097Y4416835D01*
X5818405Y4413247D01*
X5813182Y4410488D01*
X5807574Y4408634D01*
X5801735Y4407739D01*
X5795829Y4407825D01*
X5790019Y4408892D01*
X5784467Y4410909D01*
X5779327Y4413820D01*
X5774743Y4417544D01*
X5770840Y4421979D01*
X5767729Y4427000D01*
X5765494Y4432468D01*
X5764200Y4438231D01*
X5763865Y4443090D01*
Y5171440D02*
Y5297420D01*
X5764357Y5303306D01*
X5765821Y5309029D01*
X5768214Y5314429D01*
X5771472Y5319357D01*
X5775503Y5323675D01*
X5780195Y5327263D01*
X5785418Y5330022D01*
X5791026Y5331875D01*
X5796865Y5332771D01*
X5802771Y5332684D01*
X5808581Y5331618D01*
X5814133Y5329601D01*
X5819273Y5326690D01*
X5823857Y5322965D01*
X5827760Y5318531D01*
X5830871Y5313510D01*
X5833106Y5308042D01*
X5834400Y5302279D01*
X5834735Y5297420D01*
Y5171440D01*
X5834243Y5165553D01*
X5832779Y5159831D01*
X5830386Y5154431D01*
X5827128Y5149503D01*
X5823097Y5145185D01*
X5818405Y5141597D01*
X5813182Y5138838D01*
X5807574Y5136984D01*
X5801735Y5136089D01*
X5795829Y5136175D01*
X5790019Y5137242D01*
X5784467Y5139259D01*
X5779327Y5142170D01*
X5774743Y5145894D01*
X5770840Y5150329D01*
X5767729Y5155350D01*
X5765494Y5160818D01*
X5764200Y5166581D01*
X5763865Y5171440D01*
Y5807260D02*
Y6055290D01*
X5764357Y6061176D01*
X5765821Y6066899D01*
X5768214Y6072299D01*
X5771472Y6077227D01*
X5775503Y6081545D01*
X5780195Y6085133D01*
X5785418Y6087892D01*
X5791026Y6089745D01*
X5796865Y6090641D01*
X5802771Y6090554D01*
X5808581Y6089488D01*
X5814133Y6087471D01*
X5819273Y6084560D01*
X5823857Y6080835D01*
X5827760Y6076401D01*
X5830871Y6071380D01*
X5833106Y6065912D01*
X5834400Y6060149D01*
X5834735Y6055290D01*
Y5807260D01*
X5834243Y5801373D01*
X5832779Y5795651D01*
X5830386Y5790250D01*
X5827128Y5785323D01*
X5823097Y5781005D01*
X5818405Y5777417D01*
X5813182Y5774657D01*
X5807574Y5772804D01*
X5801735Y5771909D01*
X5795829Y5771995D01*
X5790019Y5773062D01*
X5784467Y5775079D01*
X5779327Y5777990D01*
X5774743Y5781714D01*
X5770840Y5786149D01*
X5767729Y5791170D01*
X5765494Y5796638D01*
X5764200Y5802401D01*
X5763865Y5807260D01*
X8562065Y4444890D02*
Y4610240D01*
X8562557Y4616126D01*
X8564021Y4621849D01*
X8566414Y4627249D01*
X8569672Y4632177D01*
X8573703Y4636495D01*
X8578395Y4640083D01*
X8583618Y4642842D01*
X8589226Y4644695D01*
X8595065Y4645591D01*
X8600971Y4645504D01*
X8606781Y4644438D01*
X8612333Y4642421D01*
X8617473Y4639510D01*
X8622057Y4635785D01*
X8625960Y4631351D01*
X8629071Y4626330D01*
X8631306Y4620862D01*
X8632600Y4615099D01*
X8632935Y4610240D01*
Y4444890D01*
X8632443Y4439003D01*
X8630979Y4433281D01*
X8628586Y4427881D01*
X8625328Y4422953D01*
X8621297Y4418635D01*
X8616605Y4415047D01*
X8611382Y4412288D01*
X8605774Y4410434D01*
X8599935Y4409539D01*
X8594029Y4409625D01*
X8588219Y4410692D01*
X8582667Y4412709D01*
X8577527Y4415620D01*
X8572943Y4419344D01*
X8569040Y4423779D01*
X8565929Y4428800D01*
X8563694Y4434268D01*
X8562400Y4440031D01*
X8562065Y4444890D01*
Y5173230D02*
Y5299220D01*
X8562557Y5305106D01*
X8564021Y5310829D01*
X8566414Y5316229D01*
X8569672Y5321157D01*
X8573703Y5325475D01*
X8578395Y5329063D01*
X8583618Y5331822D01*
X8589226Y5333675D01*
X8595065Y5334571D01*
X8600971Y5334484D01*
X8606781Y5333418D01*
X8612333Y5331401D01*
X8617473Y5328490D01*
X8622057Y5324765D01*
X8625960Y5320331D01*
X8629071Y5315310D01*
X8631306Y5309842D01*
X8632600Y5304079D01*
X8632935Y5299220D01*
Y5173230D01*
X8632443Y5167343D01*
X8630979Y5161621D01*
X8628586Y5156220D01*
X8625328Y5151293D01*
X8621297Y5146975D01*
X8616605Y5143387D01*
X8611382Y5140627D01*
X8605774Y5138774D01*
X8599935Y5137879D01*
X8594029Y5137965D01*
X8588219Y5139032D01*
X8582667Y5141049D01*
X8577527Y5143960D01*
X8572943Y5147684D01*
X8569040Y5152119D01*
X8565929Y5157140D01*
X8563694Y5162608D01*
X8562400Y5168371D01*
X8562065Y5173230D01*
Y5809060D02*
Y6057090D01*
X8562557Y6062976D01*
X8564021Y6068699D01*
X8566414Y6074099D01*
X8569672Y6079027D01*
X8573703Y6083345D01*
X8578395Y6086933D01*
X8583618Y6089692D01*
X8589226Y6091545D01*
X8595065Y6092441D01*
X8600971Y6092354D01*
X8606781Y6091288D01*
X8612333Y6089271D01*
X8617473Y6086360D01*
X8622057Y6082635D01*
X8625960Y6078201D01*
X8629071Y6073180D01*
X8631306Y6067712D01*
X8632600Y6061949D01*
X8632935Y6057090D01*
Y5809060D01*
X8632443Y5803173D01*
X8630979Y5797451D01*
X8628586Y5792050D01*
X8625328Y5787123D01*
X8621297Y5782805D01*
X8616605Y5779217D01*
X8611382Y5776457D01*
X8605774Y5774604D01*
X8599935Y5773709D01*
X8594029Y5773795D01*
X8588219Y5774862D01*
X8582667Y5776879D01*
X8577527Y5779790D01*
X8572943Y5783514D01*
X8569040Y5787949D01*
X8565929Y5792970D01*
X8563694Y5798438D01*
X8562400Y5804201D01*
X8562065Y5809060D01*
X10785200Y5788590D02*
X10780829Y5788099D01*
X10776676Y5786649D01*
X10772949Y5784313D01*
X10769833Y5781208D01*
X10767485Y5777489D01*
X10766021Y5773341D01*
X10765515Y5768972D01*
X10765992Y5764599D01*
X10767427Y5760441D01*
X10769750Y5756706D01*
X10772845Y5753580D01*
X10776556Y5751219D01*
X10780699Y5749741D01*
X10785066Y5749220D01*
X10785200Y5749220D01*
Y5749220D02*
X11100000D01*
X10785200D03*
Y5788590D02*
X11100000D01*
Y5788590D02*
X11104371Y5788099D01*
X11108524Y5786649D01*
X11112251Y5784313D01*
X11115367Y5781208D01*
X11117715Y5777489D01*
X11119179Y5773341D01*
X11119685Y5768972D01*
X11119208Y5764599D01*
X11117773Y5760441D01*
X11115450Y5756706D01*
X11112355Y5753580D01*
X11108644Y5751219D01*
X11104501Y5749741D01*
X11100134Y5749220D01*
X11100000Y5749220D01*
X1042515Y7948830D02*
Y8114180D01*
X1043007Y8120066D01*
X1044471Y8125789D01*
X1046864Y8131189D01*
X1050122Y8136117D01*
X1054153Y8140435D01*
X1058845Y8144023D01*
X1064068Y8146782D01*
X1069676Y8148635D01*
X1075515Y8149531D01*
X1081421Y8149444D01*
X1087231Y8148378D01*
X1092783Y8146361D01*
X1097923Y8143450D01*
X1102507Y8139725D01*
X1106410Y8135291D01*
X1109521Y8130270D01*
X1111756Y8124802D01*
X1113050Y8119038D01*
X1113385Y8114180D01*
Y7948830D01*
X1112893Y7942943D01*
X1111429Y7937221D01*
X1109036Y7931820D01*
X1105778Y7926893D01*
X1101747Y7922575D01*
X1097055Y7918986D01*
X1091832Y7916227D01*
X1086224Y7914374D01*
X1080385Y7913479D01*
X1074479Y7913565D01*
X1068669Y7914632D01*
X1063117Y7916649D01*
X1057977Y7919560D01*
X1053393Y7923284D01*
X1049490Y7927719D01*
X1046379Y7932740D01*
X1044144Y7938208D01*
X1042850Y7943971D01*
X1042515Y7948830D01*
Y8677170D02*
Y8803160D01*
X1043007Y8809046D01*
X1044471Y8814769D01*
X1046864Y8820169D01*
X1050122Y8825097D01*
X1054153Y8829415D01*
X1058845Y8833003D01*
X1064068Y8835762D01*
X1069676Y8837615D01*
X1075515Y8838511D01*
X1081421Y8838424D01*
X1087231Y8837358D01*
X1092783Y8835341D01*
X1097923Y8832430D01*
X1102507Y8828705D01*
X1106410Y8824271D01*
X1109521Y8819250D01*
X1111756Y8813782D01*
X1113050Y8808018D01*
X1113385Y8803160D01*
Y8677170D01*
X1112893Y8671283D01*
X1111429Y8665561D01*
X1109036Y8660160D01*
X1105778Y8655233D01*
X1101747Y8650915D01*
X1097055Y8647326D01*
X1091832Y8644567D01*
X1086224Y8642714D01*
X1080385Y8641819D01*
X1074479Y8641905D01*
X1068669Y8642972D01*
X1063117Y8644989D01*
X1057977Y8647900D01*
X1053393Y8651624D01*
X1049490Y8656059D01*
X1046379Y8661080D01*
X1044144Y8666548D01*
X1042850Y8672311D01*
X1042515Y8677170D01*
Y9313000D02*
Y9561030D01*
X1043007Y9566916D01*
X1044471Y9572639D01*
X1046864Y9578039D01*
X1050122Y9582967D01*
X1054153Y9587285D01*
X1058845Y9590873D01*
X1064068Y9593632D01*
X1069676Y9595485D01*
X1075515Y9596381D01*
X1081421Y9596294D01*
X1087231Y9595228D01*
X1092783Y9593211D01*
X1097923Y9590300D01*
X1102507Y9586575D01*
X1106410Y9582141D01*
X1109521Y9577120D01*
X1111756Y9571652D01*
X1113050Y9565888D01*
X1113385Y9561030D01*
Y9313000D01*
X1112893Y9307113D01*
X1111429Y9301391D01*
X1109036Y9295990D01*
X1105778Y9291063D01*
X1101747Y9286745D01*
X1097055Y9283156D01*
X1091832Y9280397D01*
X1086224Y9278544D01*
X1080385Y9277649D01*
X1074479Y9277735D01*
X1068669Y9278802D01*
X1063117Y9280819D01*
X1057977Y9283730D01*
X1053393Y9287454D01*
X1049490Y9291889D01*
X1046379Y9296910D01*
X1044144Y9302378D01*
X1042850Y9308141D01*
X1042515Y9313000D01*
X5763865Y7947030D02*
Y8112380D01*
X5764357Y8118266D01*
X5765821Y8123989D01*
X5768214Y8129389D01*
X5771472Y8134317D01*
X5775503Y8138635D01*
X5780195Y8142223D01*
X5785418Y8144982D01*
X5791026Y8146835D01*
X5796865Y8147731D01*
X5802771Y8147644D01*
X5808581Y8146578D01*
X5814133Y8144561D01*
X5819273Y8141650D01*
X5823857Y8137925D01*
X5827760Y8133491D01*
X5830871Y8128470D01*
X5833106Y8123002D01*
X5834400Y8117238D01*
X5834735Y8112380D01*
Y7947030D01*
X5834243Y7941143D01*
X5832779Y7935421D01*
X5830386Y7930020D01*
X5827128Y7925093D01*
X5823097Y7920775D01*
X5818405Y7917186D01*
X5813182Y7914427D01*
X5807574Y7912574D01*
X5801735Y7911679D01*
X5795829Y7911765D01*
X5790019Y7912832D01*
X5784467Y7914849D01*
X5779327Y7917760D01*
X5774743Y7921484D01*
X5770840Y7925919D01*
X5767729Y7930940D01*
X5765494Y7936408D01*
X5764200Y7942171D01*
X5763865Y7947030D01*
Y8675380D02*
Y8801360D01*
X5764357Y8807246D01*
X5765821Y8812969D01*
X5768214Y8818369D01*
X5771472Y8823297D01*
X5775503Y8827615D01*
X5780195Y8831203D01*
X5785418Y8833962D01*
X5791026Y8835815D01*
X5796865Y8836711D01*
X5802771Y8836624D01*
X5808581Y8835558D01*
X5814133Y8833541D01*
X5819273Y8830630D01*
X5823857Y8826905D01*
X5827760Y8822471D01*
X5830871Y8817450D01*
X5833106Y8811982D01*
X5834400Y8806218D01*
X5834735Y8801360D01*
Y8675380D01*
X5834243Y8669493D01*
X5832779Y8663771D01*
X5830386Y8658370D01*
X5827128Y8653443D01*
X5823097Y8649125D01*
X5818405Y8645536D01*
X5813182Y8642777D01*
X5807574Y8640924D01*
X5801735Y8640029D01*
X5795829Y8640115D01*
X5790019Y8641182D01*
X5784467Y8643199D01*
X5779327Y8646110D01*
X5774743Y8649834D01*
X5770840Y8654269D01*
X5767729Y8659290D01*
X5765494Y8664758D01*
X5764200Y8670521D01*
X5763865Y8675380D01*
Y9311200D02*
Y9559230D01*
X5764357Y9565116D01*
X5765821Y9570839D01*
X5768214Y9576239D01*
X5771472Y9581167D01*
X5775503Y9585485D01*
X5780195Y9589073D01*
X5785418Y9591832D01*
X5791026Y9593685D01*
X5796865Y9594581D01*
X5802771Y9594494D01*
X5808581Y9593428D01*
X5814133Y9591411D01*
X5819273Y9588500D01*
X5823857Y9584775D01*
X5827760Y9580341D01*
X5830871Y9575320D01*
X5833106Y9569852D01*
X5834400Y9564088D01*
X5834735Y9559230D01*
Y9311200D01*
X5834243Y9305313D01*
X5832779Y9299591D01*
X5830386Y9294190D01*
X5827128Y9289263D01*
X5823097Y9284945D01*
X5818405Y9281356D01*
X5813182Y9278597D01*
X5807574Y9276744D01*
X5801735Y9275849D01*
X5795829Y9275935D01*
X5790019Y9277002D01*
X5784467Y9279019D01*
X5779327Y9281930D01*
X5774743Y9285654D01*
X5770840Y9290089D01*
X5767729Y9295110D01*
X5765494Y9300578D01*
X5764200Y9306341D01*
X5763865Y9311200D01*
X8562065Y7948830D02*
Y8114180D01*
X8562557Y8120066D01*
X8564021Y8125789D01*
X8566414Y8131189D01*
X8569672Y8136117D01*
X8573703Y8140435D01*
X8578395Y8144023D01*
X8583618Y8146782D01*
X8589226Y8148635D01*
X8595065Y8149531D01*
X8600971Y8149444D01*
X8606781Y8148378D01*
X8612333Y8146361D01*
X8617473Y8143450D01*
X8622057Y8139725D01*
X8625960Y8135291D01*
X8629071Y8130270D01*
X8631306Y8124802D01*
X8632600Y8119038D01*
X8632935Y8114180D01*
Y7948830D01*
X8632443Y7942943D01*
X8630979Y7937221D01*
X8628586Y7931820D01*
X8625328Y7926893D01*
X8621297Y7922575D01*
X8616605Y7918986D01*
X8611382Y7916227D01*
X8605774Y7914374D01*
X8599935Y7913479D01*
X8594029Y7913565D01*
X8588219Y7914632D01*
X8582667Y7916649D01*
X8577527Y7919560D01*
X8572943Y7923284D01*
X8569040Y7927719D01*
X8565929Y7932740D01*
X8563694Y7938208D01*
X8562400Y7943971D01*
X8562065Y7948830D01*
Y8677170D02*
Y8803160D01*
X8562557Y8809046D01*
X8564021Y8814769D01*
X8566414Y8820169D01*
X8569672Y8825097D01*
X8573703Y8829415D01*
X8578395Y8833003D01*
X8583618Y8835762D01*
X8589226Y8837615D01*
X8595065Y8838511D01*
X8600971Y8838424D01*
X8606781Y8837358D01*
X8612333Y8835341D01*
X8617473Y8832430D01*
X8622057Y8828705D01*
X8625960Y8824271D01*
X8629071Y8819250D01*
X8631306Y8813782D01*
X8632600Y8808018D01*
X8632935Y8803160D01*
Y8677170D01*
X8632443Y8671283D01*
X8630979Y8665561D01*
X8628586Y8660160D01*
X8625328Y8655233D01*
X8621297Y8650915D01*
X8616605Y8647326D01*
X8611382Y8644567D01*
X8605774Y8642714D01*
X8599935Y8641819D01*
X8594029Y8641905D01*
X8588219Y8642972D01*
X8582667Y8644989D01*
X8577527Y8647900D01*
X8572943Y8651624D01*
X8569040Y8656059D01*
X8565929Y8661080D01*
X8563694Y8666548D01*
X8562400Y8672311D01*
X8562065Y8677170D01*
Y9313000D02*
Y9561030D01*
X8562557Y9566916D01*
X8564021Y9572639D01*
X8566414Y9578039D01*
X8569672Y9582967D01*
X8573703Y9587285D01*
X8578395Y9590873D01*
X8583618Y9593632D01*
X8589226Y9595485D01*
X8595065Y9596381D01*
X8600971Y9596294D01*
X8606781Y9595228D01*
X8612333Y9593211D01*
X8617473Y9590300D01*
X8622057Y9586575D01*
X8625960Y9582141D01*
X8629071Y9577120D01*
X8631306Y9571652D01*
X8632600Y9565888D01*
X8632935Y9561030D01*
Y9313000D01*
X8632443Y9307113D01*
X8630979Y9301391D01*
X8628586Y9295990D01*
X8625328Y9291063D01*
X8621297Y9286745D01*
X8616605Y9283156D01*
X8611382Y9280397D01*
X8605774Y9278544D01*
X8599935Y9277649D01*
X8594029Y9277735D01*
X8588219Y9278802D01*
X8582667Y9280819D01*
X8577527Y9283730D01*
X8572943Y9287454D01*
X8569040Y9291889D01*
X8565929Y9296910D01*
X8563694Y9302378D01*
X8562400Y9308141D01*
X8562065Y9313000D01*
X10785200Y9292530D02*
X10780829Y9292038D01*
X10776676Y9290589D01*
X10772949Y9288253D01*
X10769833Y9285148D01*
X10767485Y9281429D01*
X10766021Y9277281D01*
X10765515Y9272912D01*
X10765992Y9268539D01*
X10767427Y9264381D01*
X10769750Y9260646D01*
X10772845Y9257520D01*
X10776556Y9255159D01*
X10780699Y9253681D01*
X10785066Y9253160D01*
X10785200Y9253160D01*
Y9253160D02*
X11100000D01*
X10785200D03*
Y9292530D02*
X11100000D01*
Y9292530D02*
X11104371Y9292038D01*
X11108524Y9290589D01*
X11112251Y9288253D01*
X11115367Y9285148D01*
X11117715Y9281429D01*
X11119179Y9277281D01*
X11119685Y9272912D01*
X11119208Y9268539D01*
X11117773Y9264381D01*
X11115450Y9260646D01*
X11112355Y9257520D01*
X11108644Y9255159D01*
X11104501Y9253681D01*
X11100134Y9253160D01*
X11100000Y9253160D01*
X1042515Y11452770D02*
Y11618120D01*
X1043007Y11624006D01*
X1044471Y11629729D01*
X1046864Y11635129D01*
X1050122Y11640056D01*
X1054153Y11644375D01*
X1058845Y11647963D01*
X1064068Y11650722D01*
X1069676Y11652575D01*
X1075515Y11653471D01*
X1081421Y11653384D01*
X1087231Y11652318D01*
X1092783Y11650301D01*
X1097923Y11647389D01*
X1102507Y11643665D01*
X1106410Y11639231D01*
X1109521Y11634210D01*
X1111756Y11628741D01*
X1113050Y11622978D01*
X1113385Y11618120D01*
Y11452770D01*
X1112893Y11446883D01*
X1111429Y11441160D01*
X1109036Y11435760D01*
X1105778Y11430833D01*
X1101747Y11426515D01*
X1097055Y11422926D01*
X1091832Y11420167D01*
X1086224Y11418314D01*
X1080385Y11417418D01*
X1074479Y11417505D01*
X1068669Y11418572D01*
X1063117Y11420589D01*
X1057977Y11423500D01*
X1053393Y11427224D01*
X1049490Y11431659D01*
X1046379Y11436680D01*
X1044144Y11442148D01*
X1042850Y11447911D01*
X1042515Y11452770D01*
Y12181110D02*
Y12307100D01*
X1043007Y12312986D01*
X1044471Y12318709D01*
X1046864Y12324109D01*
X1050122Y12329037D01*
X1054153Y12333355D01*
X1058845Y12336943D01*
X1064068Y12339702D01*
X1069676Y12341555D01*
X1075515Y12342451D01*
X1081421Y12342364D01*
X1087231Y12341298D01*
X1092783Y12339281D01*
X1097923Y12336369D01*
X1102507Y12332645D01*
X1106410Y12328211D01*
X1109521Y12323190D01*
X1111756Y12317721D01*
X1113050Y12311958D01*
X1113385Y12307100D01*
Y12181110D01*
X1112893Y12175223D01*
X1111429Y12169500D01*
X1109036Y12164100D01*
X1105778Y12159173D01*
X1101747Y12154855D01*
X1097055Y12151266D01*
X1091832Y12148507D01*
X1086224Y12146654D01*
X1080385Y12145758D01*
X1074479Y12145845D01*
X1068669Y12146912D01*
X1063117Y12148929D01*
X1057977Y12151840D01*
X1053393Y12155564D01*
X1049490Y12159999D01*
X1046379Y12165020D01*
X1044144Y12170488D01*
X1042850Y12176251D01*
X1042515Y12181110D01*
Y12816940D02*
Y13064970D01*
X1043007Y13070856D01*
X1044471Y13076579D01*
X1046864Y13081979D01*
X1050122Y13086906D01*
X1054153Y13091225D01*
X1058845Y13094813D01*
X1064068Y13097572D01*
X1069676Y13099425D01*
X1075515Y13100321D01*
X1081421Y13100234D01*
X1087231Y13099168D01*
X1092783Y13097151D01*
X1097923Y13094239D01*
X1102507Y13090515D01*
X1106410Y13086081D01*
X1109521Y13081060D01*
X1111756Y13075591D01*
X1113050Y13069828D01*
X1113385Y13064970D01*
Y12816940D01*
X1112893Y12811053D01*
X1111429Y12805330D01*
X1109036Y12799930D01*
X1105778Y12795003D01*
X1101747Y12790685D01*
X1097055Y12787096D01*
X1091832Y12784337D01*
X1086224Y12782484D01*
X1080385Y12781588D01*
X1074479Y12781675D01*
X1068669Y12782742D01*
X1063117Y12784759D01*
X1057977Y12787670D01*
X1053393Y12791394D01*
X1049490Y12795829D01*
X1046379Y12800850D01*
X1044144Y12806318D01*
X1042850Y12812081D01*
X1042515Y12816940D01*
X5763865Y11450970D02*
Y11616320D01*
X5764357Y11622206D01*
X5765821Y11627929D01*
X5768214Y11633329D01*
X5771472Y11638256D01*
X5775503Y11642575D01*
X5780195Y11646163D01*
X5785418Y11648922D01*
X5791026Y11650775D01*
X5796865Y11651671D01*
X5802771Y11651584D01*
X5808581Y11650518D01*
X5814133Y11648501D01*
X5819273Y11645589D01*
X5823857Y11641865D01*
X5827760Y11637431D01*
X5830871Y11632410D01*
X5833106Y11626941D01*
X5834400Y11621178D01*
X5834735Y11616320D01*
Y11450970D01*
X5834243Y11445083D01*
X5832779Y11439360D01*
X5830386Y11433960D01*
X5827128Y11429033D01*
X5823097Y11424715D01*
X5818405Y11421126D01*
X5813182Y11418367D01*
X5807574Y11416514D01*
X5801735Y11415618D01*
X5795829Y11415705D01*
X5790019Y11416772D01*
X5784467Y11418789D01*
X5779327Y11421700D01*
X5774743Y11425424D01*
X5770840Y11429859D01*
X5767729Y11434880D01*
X5765494Y11440348D01*
X5764200Y11446111D01*
X5763865Y11450970D01*
Y12179320D02*
Y12305300D01*
X5764357Y12311186D01*
X5765821Y12316909D01*
X5768214Y12322309D01*
X5771472Y12327237D01*
X5775503Y12331555D01*
X5780195Y12335143D01*
X5785418Y12337902D01*
X5791026Y12339755D01*
X5796865Y12340651D01*
X5802771Y12340564D01*
X5808581Y12339498D01*
X5814133Y12337481D01*
X5819273Y12334569D01*
X5823857Y12330845D01*
X5827760Y12326411D01*
X5830871Y12321390D01*
X5833106Y12315921D01*
X5834400Y12310158D01*
X5834735Y12305300D01*
Y12179320D01*
X5834243Y12173433D01*
X5832779Y12167710D01*
X5830386Y12162310D01*
X5827128Y12157383D01*
X5823097Y12153065D01*
X5818405Y12149476D01*
X5813182Y12146717D01*
X5807574Y12144864D01*
X5801735Y12143968D01*
X5795829Y12144055D01*
X5790019Y12145122D01*
X5784467Y12147139D01*
X5779327Y12150050D01*
X5774743Y12153774D01*
X5770840Y12158209D01*
X5767729Y12163230D01*
X5765494Y12168698D01*
X5764200Y12174461D01*
X5763865Y12179320D01*
Y12815140D02*
Y13063170D01*
X5764357Y13069056D01*
X5765821Y13074779D01*
X5768214Y13080179D01*
X5771472Y13085106D01*
X5775503Y13089425D01*
X5780195Y13093013D01*
X5785418Y13095772D01*
X5791026Y13097625D01*
X5796865Y13098521D01*
X5802771Y13098434D01*
X5808581Y13097368D01*
X5814133Y13095351D01*
X5819273Y13092439D01*
X5823857Y13088715D01*
X5827760Y13084281D01*
X5830871Y13079260D01*
X5833106Y13073791D01*
X5834400Y13068028D01*
X5834735Y13063170D01*
Y12815140D01*
X5834243Y12809253D01*
X5832779Y12803530D01*
X5830386Y12798130D01*
X5827128Y12793203D01*
X5823097Y12788885D01*
X5818405Y12785296D01*
X5813182Y12782537D01*
X5807574Y12780684D01*
X5801735Y12779788D01*
X5795829Y12779875D01*
X5790019Y12780942D01*
X5784467Y12782959D01*
X5779327Y12785870D01*
X5774743Y12789594D01*
X5770840Y12794029D01*
X5767729Y12799050D01*
X5765494Y12804518D01*
X5764200Y12810281D01*
X5763865Y12815140D01*
X8562065Y11452770D02*
Y11618120D01*
X8562557Y11624006D01*
X8564021Y11629729D01*
X8566414Y11635129D01*
X8569672Y11640056D01*
X8573703Y11644375D01*
X8578395Y11647963D01*
X8583618Y11650722D01*
X8589226Y11652575D01*
X8595065Y11653471D01*
X8600971Y11653384D01*
X8606781Y11652318D01*
X8612333Y11650301D01*
X8617473Y11647389D01*
X8622057Y11643665D01*
X8625960Y11639231D01*
X8629071Y11634210D01*
X8631306Y11628741D01*
X8632600Y11622978D01*
X8632935Y11618120D01*
Y11452770D01*
X8632443Y11446883D01*
X8630979Y11441160D01*
X8628586Y11435760D01*
X8625328Y11430833D01*
X8621297Y11426515D01*
X8616605Y11422926D01*
X8611382Y11420167D01*
X8605774Y11418314D01*
X8599935Y11417418D01*
X8594029Y11417505D01*
X8588219Y11418572D01*
X8582667Y11420589D01*
X8577527Y11423500D01*
X8572943Y11427224D01*
X8569040Y11431659D01*
X8565929Y11436680D01*
X8563694Y11442148D01*
X8562400Y11447911D01*
X8562065Y11452770D01*
Y12181110D02*
Y12307100D01*
X8562557Y12312986D01*
X8564021Y12318709D01*
X8566414Y12324109D01*
X8569672Y12329037D01*
X8573703Y12333355D01*
X8578395Y12336943D01*
X8583618Y12339702D01*
X8589226Y12341555D01*
X8595065Y12342451D01*
X8600971Y12342364D01*
X8606781Y12341298D01*
X8612333Y12339281D01*
X8617473Y12336369D01*
X8622057Y12332645D01*
X8625960Y12328211D01*
X8629071Y12323190D01*
X8631306Y12317721D01*
X8632600Y12311958D01*
X8632935Y12307100D01*
Y12181110D01*
X8632443Y12175223D01*
X8630979Y12169500D01*
X8628586Y12164100D01*
X8625328Y12159173D01*
X8621297Y12154855D01*
X8616605Y12151266D01*
X8611382Y12148507D01*
X8605774Y12146654D01*
X8599935Y12145758D01*
X8594029Y12145845D01*
X8588219Y12146912D01*
X8582667Y12148929D01*
X8577527Y12151840D01*
X8572943Y12155564D01*
X8569040Y12159999D01*
X8565929Y12165020D01*
X8563694Y12170488D01*
X8562400Y12176251D01*
X8562065Y12181110D01*
Y12816940D02*
Y13064970D01*
X8562557Y13070856D01*
X8564021Y13076579D01*
X8566414Y13081979D01*
X8569672Y13086906D01*
X8573703Y13091225D01*
X8578395Y13094813D01*
X8583618Y13097572D01*
X8589226Y13099425D01*
X8595065Y13100321D01*
X8600971Y13100234D01*
X8606781Y13099168D01*
X8612333Y13097151D01*
X8617473Y13094239D01*
X8622057Y13090515D01*
X8625960Y13086081D01*
X8629071Y13081060D01*
X8631306Y13075591D01*
X8632600Y13069828D01*
X8632935Y13064970D01*
Y12816940D01*
X8632443Y12811053D01*
X8630979Y12805330D01*
X8628586Y12799930D01*
X8625328Y12795003D01*
X8621297Y12790685D01*
X8616605Y12787096D01*
X8611382Y12784337D01*
X8605774Y12782484D01*
X8599935Y12781588D01*
X8594029Y12781675D01*
X8588219Y12782742D01*
X8582667Y12784759D01*
X8577527Y12787670D01*
X8572943Y12791394D01*
X8569040Y12795829D01*
X8565929Y12800850D01*
X8563694Y12806318D01*
X8562400Y12812081D01*
X8562065Y12816940D01*
X10785200Y12796470D02*
X10780829Y12795978D01*
X10776676Y12794528D01*
X10772949Y12792193D01*
X10769833Y12789088D01*
X10767485Y12785369D01*
X10766021Y12781221D01*
X10765515Y12776851D01*
X10765992Y12772479D01*
X10767427Y12768321D01*
X10769750Y12764586D01*
X10772845Y12761460D01*
X10776556Y12759099D01*
X10780699Y12757621D01*
X10785066Y12757100D01*
X10785200Y12757100D01*
Y12757100D02*
X11100000D01*
X10785200D03*
Y12796470D02*
X11100000D01*
Y12796470D02*
X11104371Y12795978D01*
X11108524Y12794528D01*
X11112251Y12792193D01*
X11115367Y12789088D01*
X11117715Y12785369D01*
X11119179Y12781221D01*
X11119685Y12776851D01*
X11119208Y12772479D01*
X11117773Y12768321D01*
X11115450Y12764586D01*
X11112355Y12761460D01*
X11108644Y12759099D01*
X11104501Y12757621D01*
X11100134Y12757100D01*
X11100000Y12757100D01*
M02*
