*
%FSLAX26Y26*%
%MOIN*%
%ADD10R,0.056361X0.056361*%
%ADD11C,0.118110*%
%ADD12R,0.040181X0.040181*%
%ADD13R,0.039181X0.039181*%
%ADD14R,0.048181X0.048181*%
%ADD15R,0.111481X0.111481*%
%ADD16R,0.018181X0.018181*%
%ADD17R,0.071181X0.071181*%
%ADD18R,0.029181X0.029181*%
%ADD19R,0.045181X0.045181*%
%ADD20R,0.082181X0.082181*%
%ADD21R,0.068171X0.068171*%
%ADD22R,0.052181X0.052181*%
%ADD23R,0.083921X0.083921*%
%ADD24R,0.080181X0.080181*%
%ADD25C,0.080181*%
%ADD26C,0.068171*%
%ADD27C,0.069371*%
%ADD28R,0.069371X0.069371*%
%ADD29C,0.083921*%
%ADD30C,0.091791*%
%ADD31C,0.079981*%
%ADD32R,0.079981X0.079981*%
%ADD33C,0.100181*%
%ADD34C,0.065181*%
%ADD35C,0.035181*%
%ADD36C,0.057681*%
%ADD37C,0.010000*%
%ADD38C,0.049439*%
%ADD39C,0.088809*%
%ADD40C,0.128179*%
%ADD41C,0.078970*%
%ADD42R,0.080181X0.080181*%
%ADD43C,0.004100*%
%ADD44C,0.040000*%
%ADD45C,0.157480*%
%ADD46C,0.133976*%
%IPPOS*%
%LNts*%
%LPD*%
G75*
G54D10*
X4623030Y3032280D02*
X4626970D01*
X4623030Y3146460D02*
X4626970D01*
X6603030Y2682280D02*
X6606970D01*
X6603030Y2796460D02*
X6606970D01*
X6118030Y2647280D02*
X6121970D01*
X6118030Y2761460D02*
X6121970D01*
X5633030Y2647280D02*
X5636970D01*
X5633030Y2761460D02*
X5636970D01*
X4623030Y2622280D02*
X4626970D01*
X4623030Y2736460D02*
X4626970D01*
X4623030Y2417280D02*
X4626970D01*
X4623030Y2531460D02*
X4626970D01*
X4623030Y3237280D02*
X4626970D01*
X4623030Y3351460D02*
X4626970D01*
X4623030Y2827280D02*
X4626970D01*
X4623030Y2941460D02*
X4626970D01*
G36*
X10890945Y3089370D02*
G02X10950000Y3148425I59055J0D01*
G02X11009055Y3089370I0J-59055D01*
G02X10973001Y3034978I-59055J0D01*
G01X10972916Y3035064D01*
X10971514Y3036466D01*
G03X10961890Y3040460I-9624J-9596D01*
G01X10916904D01*
G02X10890945Y3089370I33096J48910D01*
G37*
G54D11*
X72500Y3099370D03*
X225000Y339370D03*
G54D12*
X59340Y2683090D02*
G01X64340D01*
X59340Y2735890D02*
X64340D01*
X1317500Y3083120D02*
X1322500D01*
X1317500Y3135920D02*
X1322500D01*
X2882500Y3025770D02*
X2887500D01*
X2882500Y2972970D02*
X2887500D01*
X3206400Y2587700D02*
X3211400D01*
X3206400Y2534900D02*
X3211400D01*
X527500Y2682970D02*
X532500D01*
X527500Y2735770D02*
X532500D01*
G54D13*
X1413750Y2973430D02*
Y2979430D01*
X1452140Y2886810D02*
Y2892810D01*
X1375360Y2886810D02*
Y2892810D01*
X10675000Y2998430D02*
Y3004430D01*
X10713390Y2911810D02*
Y2917810D01*
X10636610Y2911810D02*
Y2917810D01*
X1575000Y2335930D02*
Y2341930D01*
X1613390Y2249310D02*
Y2255310D01*
X1536610Y2249310D02*
Y2255310D01*
X1431250Y2249310D02*
Y2255310D01*
X1392860Y2335930D02*
Y2341930D01*
X1469640Y2335930D02*
Y2341930D01*
X1862500Y2335930D02*
Y2341930D01*
X1900890Y2249310D02*
Y2255310D01*
X1824110Y2249310D02*
Y2255310D01*
X1718750Y2249310D02*
Y2255310D01*
X1680360Y2335930D02*
Y2341930D01*
X1757140Y2335930D02*
Y2341930D01*
X2300000Y2254680D02*
Y2260680D01*
X2338390Y2168060D02*
Y2174060D01*
X2261610Y2168060D02*
Y2174060D01*
X2450000Y2168060D02*
Y2174060D01*
X2411610Y2254680D02*
Y2260680D01*
X2488390Y2254680D02*
Y2260680D01*
X2150000Y2168060D02*
Y2174060D01*
X2111610Y2254680D02*
Y2260680D01*
X2188390Y2254680D02*
Y2260680D01*
X2900000Y2254680D02*
Y2260680D01*
X2938390Y2168060D02*
Y2174060D01*
X2861610Y2168060D02*
Y2174060D01*
X3050000Y2168060D02*
Y2174060D01*
X3011610Y2254680D02*
Y2260680D01*
X3088390Y2254680D02*
Y2260680D01*
X2750000Y2168060D02*
Y2174060D01*
X2711610Y2254680D02*
Y2260680D01*
X2788390Y2254680D02*
Y2260680D01*
X3650000Y2168060D02*
Y2174060D01*
X3611610Y2254680D02*
Y2260680D01*
X3688390Y2254680D02*
Y2260680D01*
X3350000Y2168060D02*
Y2174060D01*
X3311610Y2254680D02*
Y2260680D01*
X3388390Y2254680D02*
Y2260680D01*
X4100000Y2254680D02*
Y2260680D01*
X4138390Y2168060D02*
Y2174060D01*
X4061610Y2168060D02*
Y2174060D01*
X4250000Y2168060D02*
Y2174060D01*
X4211610Y2254680D02*
Y2260680D01*
X4288390Y2254680D02*
Y2260680D01*
X3950000Y2168060D02*
Y2174060D01*
X3911610Y2254680D02*
Y2260680D01*
X3988390Y2254680D02*
Y2260680D01*
X4700000Y2254680D02*
Y2260680D01*
X4738390Y2168060D02*
Y2174060D01*
X4661610Y2168060D02*
Y2174060D01*
X4850000Y2168060D02*
Y2174060D01*
X4811610Y2254680D02*
Y2260680D01*
X4888390Y2254680D02*
Y2260680D01*
X4550000Y2168060D02*
Y2174060D01*
X4511610Y2254680D02*
Y2260680D01*
X4588390Y2254680D02*
Y2260680D01*
X5268750Y2254680D02*
Y2260680D01*
X5307140Y2168060D02*
Y2174060D01*
X5230360Y2168060D02*
Y2174060D01*
X5418750Y2168060D02*
Y2174060D01*
X5380360Y2254680D02*
Y2260680D01*
X5457140Y2254680D02*
Y2260680D01*
X5118750Y2168060D02*
Y2174060D01*
X5080360Y2254680D02*
Y2260680D01*
X5157140Y2254680D02*
Y2260680D01*
X6362500Y2254680D02*
Y2260680D01*
X6400890Y2168060D02*
Y2174060D01*
X6324110Y2168060D02*
Y2174060D01*
X6900000Y2254680D02*
Y2260680D01*
X6938390Y2168060D02*
Y2174060D01*
X6861610Y2168060D02*
Y2174060D01*
X7500000Y2254680D02*
Y2260680D01*
X7538390Y2168060D02*
Y2174060D01*
X7461610Y2168060D02*
Y2174060D01*
X8068750Y2254680D02*
Y2260680D01*
X8107140Y2168060D02*
Y2174060D01*
X8030360Y2168060D02*
Y2174060D01*
X6512500Y2168060D02*
Y2174060D01*
X6474110Y2254680D02*
Y2260680D01*
X6550890Y2254680D02*
Y2260680D01*
X6212500Y2168060D02*
Y2174060D01*
X6174110Y2254680D02*
Y2260680D01*
X6250890Y2254680D02*
Y2260680D01*
X7050000Y2168060D02*
Y2174060D01*
X7011610Y2254680D02*
Y2260680D01*
X7088390Y2254680D02*
Y2260680D01*
X6750000Y2168060D02*
Y2174060D01*
X6711610Y2254680D02*
Y2260680D01*
X6788390Y2254680D02*
Y2260680D01*
X7650000Y2168060D02*
Y2174060D01*
X7611610Y2254680D02*
Y2260680D01*
X7688390Y2254680D02*
Y2260680D01*
X7350000Y2168060D02*
Y2174060D01*
X7311610Y2254680D02*
Y2260680D01*
X7388390Y2254680D02*
Y2260680D01*
X8218750Y2168060D02*
Y2174060D01*
X8180360Y2254680D02*
Y2260680D01*
X8257140Y2254680D02*
Y2260680D01*
X7918750Y2168060D02*
Y2174060D01*
X7880360Y2254680D02*
Y2260680D01*
X7957140Y2254680D02*
Y2260680D01*
X9162500Y2254680D02*
Y2260680D01*
X9200890Y2168060D02*
Y2174060D01*
X9124110Y2168060D02*
Y2174060D01*
X9700000Y2254680D02*
Y2260680D01*
X9738390Y2168060D02*
Y2174060D01*
X9661610Y2168060D02*
Y2174060D01*
X9312500Y2168060D02*
Y2174060D01*
X9274110Y2254680D02*
Y2260680D01*
X9350890Y2254680D02*
Y2260680D01*
X9012500Y2168060D02*
Y2174060D01*
X8974110Y2254680D02*
Y2260680D01*
X9050890Y2254680D02*
Y2260680D01*
X9850000Y2168060D02*
Y2174060D01*
X9811610Y2254680D02*
Y2260680D01*
X9888390Y2254680D02*
Y2260680D01*
X9550000Y2168060D02*
Y2174060D01*
X9511610Y2254680D02*
Y2260680D01*
X9588390Y2254680D02*
Y2260680D01*
X10262500Y2335930D02*
Y2341930D01*
X10300890Y2249310D02*
Y2255310D01*
X10224110Y2249310D02*
Y2255310D01*
X10662500Y2335930D02*
Y2341930D01*
X10700890Y2249310D02*
Y2255310D01*
X10624110Y2249310D02*
Y2255310D01*
X10118750Y2249310D02*
Y2255310D01*
X10080360Y2335930D02*
Y2341930D01*
X10157140Y2335930D02*
Y2341930D01*
X10518750Y2249310D02*
Y2255310D01*
X10480360Y2335930D02*
Y2341930D01*
X10557140Y2335930D02*
Y2341930D01*
X662500Y2335930D02*
Y2341930D01*
X700890Y2249310D02*
Y2255310D01*
X624110Y2249310D02*
Y2255310D01*
X518750Y2249310D02*
Y2255310D01*
X480360Y2335930D02*
Y2341930D01*
X557140Y2335930D02*
Y2341930D01*
X3500000Y2254680D02*
Y2260680D01*
X3538390Y2168060D02*
Y2174060D01*
X3461610Y2168060D02*
Y2174060D01*
G54D14*
X1534000Y3302370D02*
Y3316370D01*
X1606000Y3302370D02*
Y3316370D01*
X1446500Y3219870D02*
Y3233870D01*
X1518500Y3219870D02*
Y3233870D01*
X6898500Y2469870D02*
Y2483870D01*
X6826500Y2469870D02*
Y2483870D01*
X5044000Y2372370D02*
Y2386370D01*
X5116000Y2372370D02*
Y2386370D01*
X4839000Y2372370D02*
Y2386370D01*
X4911000Y2372370D02*
Y2386370D01*
X5249000Y2372370D02*
Y2386370D01*
X5321000Y2372370D02*
Y2386370D01*
X5454000Y2372370D02*
Y2386370D01*
X5526000Y2372370D02*
Y2386370D01*
X7181000Y2602370D02*
Y2616370D01*
X7109000Y2602370D02*
Y2616370D01*
X8826000Y2742370D02*
Y2756370D01*
X8754000Y2742370D02*
Y2756370D01*
X8591000Y2742370D02*
Y2756370D01*
X8519000Y2742370D02*
Y2756370D01*
X7416000Y2602370D02*
Y2616370D01*
X7344000Y2602370D02*
Y2616370D01*
X8356000Y2742370D02*
Y2756370D01*
X8284000Y2742370D02*
Y2756370D01*
X7651000Y2601740D02*
Y2615740D01*
X7579000Y2601740D02*
Y2615740D01*
X8121000Y2742370D02*
Y2756370D01*
X8049000Y2742370D02*
Y2756370D01*
X7886000Y2742370D02*
Y2756370D01*
X7814000Y2742370D02*
Y2756370D01*
X1390250Y3301120D02*
Y3315120D01*
X1462250Y3301120D02*
Y3315120D01*
X1131000Y2919870D02*
Y2933870D01*
X1059000Y2919870D02*
Y2933870D01*
X6314000Y2426120D02*
Y2440120D01*
X6386000Y2426120D02*
Y2440120D01*
X4839000Y2642370D02*
Y2656370D01*
X4911000Y2642370D02*
Y2656370D01*
X5044000Y2462370D02*
Y2476370D01*
X5116000Y2462370D02*
Y2476370D01*
X5249000Y2642370D02*
Y2656370D01*
X5321000Y2642370D02*
Y2656370D01*
X5044000Y2642370D02*
Y2656370D01*
X5116000Y2642370D02*
Y2656370D01*
X4839000Y2462370D02*
Y2476370D01*
X4911000Y2462370D02*
Y2476370D01*
X5249000Y2462370D02*
Y2476370D01*
X5321000Y2462370D02*
Y2476370D01*
X4911000Y2552370D02*
Y2566370D01*
X4839000Y2552370D02*
Y2566370D01*
X5321000Y2552370D02*
Y2566370D01*
X5249000Y2552370D02*
Y2566370D01*
X5454000Y2642370D02*
Y2656370D01*
X5526000Y2642370D02*
Y2656370D01*
X5454000Y2462370D02*
Y2476370D01*
X5526000Y2462370D02*
Y2476370D01*
Y2552370D02*
Y2566370D01*
X5454000Y2552370D02*
Y2566370D01*
X8826000Y3012370D02*
Y3026370D01*
X8754000Y3012370D02*
Y3026370D01*
X8591000Y3012370D02*
Y3026370D01*
X8519000Y3012370D02*
Y3026370D01*
X7416000Y2872370D02*
Y2886370D01*
X7344000Y2872370D02*
Y2886370D01*
X7181000Y2692370D02*
Y2706370D01*
X7109000Y2692370D02*
Y2706370D01*
X8826000Y2832370D02*
Y2846370D01*
X8754000Y2832370D02*
Y2846370D01*
X8591000Y2832370D02*
Y2846370D01*
X8519000Y2832370D02*
Y2846370D01*
X7109000Y2782370D02*
Y2796370D01*
X7181000Y2782370D02*
Y2796370D01*
X8754000Y2922370D02*
Y2936370D01*
X8826000Y2922370D02*
Y2936370D01*
X8519000Y2922370D02*
Y2936370D01*
X8591000Y2922370D02*
Y2936370D01*
X7344000Y2782370D02*
Y2796370D01*
X7416000Y2782370D02*
Y2796370D01*
X8356000Y3012370D02*
Y3026370D01*
X8284000Y3012370D02*
Y3026370D01*
X7651000Y2872370D02*
Y2886370D01*
X7579000Y2872370D02*
Y2886370D01*
X8121000Y3012370D02*
Y3026370D01*
X8049000Y3012370D02*
Y3026370D01*
X7886000Y3012370D02*
Y3026370D01*
X7814000Y3012370D02*
Y3026370D01*
X8356000Y2832370D02*
Y2846370D01*
X8284000Y2832370D02*
Y2846370D01*
X7651000Y2691740D02*
Y2705740D01*
X7579000Y2691740D02*
Y2705740D01*
X7886000Y2832370D02*
Y2846370D01*
X7814000Y2832370D02*
Y2846370D01*
X8284000Y2922370D02*
Y2936370D01*
X8356000Y2922370D02*
Y2936370D01*
X8049000Y2922370D02*
Y2936370D01*
X8121000Y2922370D02*
Y2936370D01*
X5116000Y2552370D02*
Y2566370D01*
X5044000Y2552370D02*
Y2566370D01*
X7814000Y2922370D02*
Y2936370D01*
X7886000Y2922370D02*
Y2936370D01*
X615250Y3394250D02*
Y3408250D01*
X687250Y3394250D02*
Y3408250D01*
X615250Y3313000D02*
Y3327000D01*
X687250Y3313000D02*
Y3327000D01*
X3041000Y3172370D02*
Y3186370D01*
X2969000Y3172370D02*
Y3186370D01*
X10904750Y2932370D02*
Y2946370D01*
X10832750Y2932370D02*
Y2946370D01*
X1470250Y2407370D02*
Y2421370D01*
X1542250Y2407370D02*
Y2421370D01*
X1757750Y2407370D02*
Y2421370D01*
X1829750Y2407370D02*
Y2421370D01*
X10157750Y2407370D02*
Y2421370D01*
X10229750Y2407370D02*
Y2421370D01*
X10557750Y2407370D02*
Y2421370D01*
X10629750Y2407370D02*
Y2421370D01*
X557750Y2407370D02*
Y2421370D01*
X629750Y2407370D02*
Y2421370D01*
X7181000Y2872370D02*
Y2886370D01*
X7109000Y2872370D02*
Y2886370D01*
X7416000Y2692370D02*
Y2706370D01*
X7344000Y2692370D02*
Y2706370D01*
X7579000Y2781740D02*
Y2795740D01*
X7651000Y2781740D02*
Y2795740D01*
X8121000Y2832370D02*
Y2846370D01*
X8049000Y2832370D02*
Y2846370D01*
X1213750Y2919870D02*
Y2933870D01*
X1285750Y2919870D02*
Y2933870D01*
X1527750Y2957370D02*
Y2971370D01*
X1599750Y2957370D02*
Y2971370D01*
X6826500Y2388620D02*
Y2402620D01*
X6898500Y2388620D02*
Y2402620D01*
X6314000Y2526120D02*
Y2540120D01*
X6386000Y2526120D02*
Y2540120D01*
G54D13*
X2798690Y3139370D02*
X2804690D01*
X2885310Y3177760D02*
X2891310D01*
X2885310Y3100980D02*
X2891310D01*
G54D14*
X8832800Y2436120D02*
X8846800D01*
X8832800Y2508120D02*
X8846800D01*
X6032800Y2436120D02*
X6046800D01*
X6032800Y2508120D02*
X6046800D01*
X1313250Y2436120D02*
X1327250D01*
X1313250Y2508120D02*
X1327250D01*
X4258000Y3073370D02*
X4272000D01*
X4258000Y3145370D02*
X4272000D01*
X4258000Y2868370D02*
X4272000D01*
X4258000Y2940370D02*
X4272000D01*
X4258000Y3278370D02*
X4272000D01*
X4258000Y3350370D02*
X4272000D01*
X4258000Y2458370D02*
X4272000D01*
X4258000Y2530370D02*
X4272000D01*
X6958000Y2723370D02*
X6972000D01*
X6958000Y2795370D02*
X6972000D01*
X4258000Y2663370D02*
X4272000D01*
X4258000Y2735370D02*
X4272000D01*
X5988000Y2688370D02*
X6002000D01*
X5988000Y2760370D02*
X6002000D01*
X6473000Y2688370D02*
X6487000D01*
X6473000Y2760370D02*
X6487000D01*
X3658150Y3112800D02*
X3672150D01*
X3658150Y3184800D02*
X3672150D01*
X3189400Y3119050D02*
X3203400D01*
X3189400Y3191050D02*
X3203400D01*
X3408150Y3237800D02*
X3422150D01*
X3408150Y3309800D02*
X3422150D01*
X3445650Y2503550D02*
X3459650D01*
X3445650Y2431550D02*
X3459650D01*
X3564400Y3187800D02*
X3578400D01*
X3564400Y3259800D02*
X3578400D01*
X3353000Y2428370D02*
X3367000D01*
X3353000Y2500370D02*
X3367000D01*
X3718000Y2505370D02*
X3732000D01*
X3718000Y2433370D02*
X3732000D01*
X3538000Y2505370D02*
X3552000D01*
X3538000Y2433370D02*
X3552000D01*
X4528000Y2663370D02*
X4542000D01*
X4528000Y2735370D02*
X4542000D01*
X4528000Y3073370D02*
X4542000D01*
X4528000Y3145370D02*
X4542000D01*
X4528000Y2868370D02*
X4542000D01*
X4528000Y2940370D02*
X4542000D01*
X4528000Y3278370D02*
X4542000D01*
X4528000Y3350370D02*
X4542000D01*
X4528000Y2458370D02*
X4542000D01*
X4528000Y2530370D02*
X4542000D01*
X4348000Y3073370D02*
X4362000D01*
X4348000Y3145370D02*
X4362000D01*
X4348000Y2868370D02*
X4362000D01*
X4348000Y2940370D02*
X4362000D01*
X4348000Y3278370D02*
X4362000D01*
X4348000Y3350370D02*
X4362000D01*
X4348000Y2458370D02*
X4362000D01*
X4348000Y2530370D02*
X4362000D01*
X6868000Y2723370D02*
X6882000D01*
X6868000Y2795370D02*
X6882000D01*
X4348000Y2663370D02*
X4362000D01*
X4348000Y2735370D02*
X4362000D01*
X4438000D02*
X4452000D01*
X4438000Y2663370D02*
X4452000D01*
X5718000Y2688370D02*
X5732000D01*
X5718000Y2760370D02*
X5732000D01*
X6203000Y2688370D02*
X6217000D01*
X6203000Y2760370D02*
X6217000D01*
X6688000Y2723370D02*
X6702000D01*
X6688000Y2795370D02*
X6702000D01*
X5898000Y2688370D02*
X5912000D01*
X5898000Y2760370D02*
X5912000D01*
X6383000Y2688370D02*
X6397000D01*
X6383000Y2760370D02*
X6397000D01*
X5808000D02*
X5822000D01*
X5808000Y2688370D02*
X5822000D01*
X6293000Y2760370D02*
X6307000D01*
X6293000Y2688370D02*
X6307000D01*
X4438000Y3145370D02*
X4452000D01*
X4438000Y3073370D02*
X4452000D01*
X4438000Y2940370D02*
X4452000D01*
X4438000Y2868370D02*
X4452000D01*
X4438000Y3350370D02*
X4452000D01*
X4438000Y3278370D02*
X4452000D01*
X4438000Y2530370D02*
X4452000D01*
X4438000Y2458370D02*
X4452000D01*
X6778000Y2795370D02*
X6792000D01*
X6778000Y2723370D02*
X6792000D01*
X10630500Y2772120D02*
X10644500D01*
X10630500Y2844120D02*
X10644500D01*
X3628000Y2433370D02*
X3642000D01*
X3628000Y2505370D02*
X3642000D01*
X3808000Y2433370D02*
X3822000D01*
X3808000Y2505370D02*
X3822000D01*
X1588000Y3047120D02*
X1602000D01*
X1588000Y3119120D02*
X1602000D01*
X10993000Y2988760D02*
X11007000D01*
X10993000Y2916760D02*
X11007000D01*
G54D10*
X458340Y3243030D02*
Y3246970D01*
X344160Y3243030D02*
Y3246970D01*
X458340Y3349280D02*
Y3353220D01*
X344160Y3349280D02*
Y3353220D01*
X7927090Y3107400D02*
Y3111340D01*
X7812910Y3107400D02*
Y3111340D01*
X8162090Y3107400D02*
Y3111340D01*
X8047910Y3107400D02*
Y3111340D01*
X8397090Y3107400D02*
Y3111340D01*
X8282910Y3107400D02*
Y3111340D01*
X7457090Y2967400D02*
Y2971340D01*
X7342910Y2967400D02*
Y2971340D01*
X8632090Y3107400D02*
Y3111340D01*
X8517910Y3107400D02*
Y3111340D01*
X8867090Y3107400D02*
Y3111340D01*
X8752910Y3107400D02*
Y3111340D01*
X7222090Y2967400D02*
Y2971340D01*
X7107910Y2967400D02*
Y2971340D01*
X5412910Y2737400D02*
Y2741340D01*
X5527090Y2737400D02*
Y2741340D01*
X5002910Y2737400D02*
Y2741340D01*
X5117090Y2737400D02*
Y2741340D01*
X5207910Y2737400D02*
Y2741340D01*
X5322090Y2737400D02*
Y2741340D01*
X4797910Y2737400D02*
Y2741340D01*
X4912090Y2737400D02*
Y2741340D01*
X7692090Y2967400D02*
Y2971340D01*
X7577910Y2967400D02*
Y2971340D01*
G54D12*
X326400Y3011870D02*
Y3016870D01*
X273600Y3011870D02*
Y3016870D01*
G54D15*
X417440Y2859370D03*
Y2559370D03*
X172560D03*
Y2859370D03*
G54D16*
X3629620Y2884580D02*
X3691620D01*
X3629620Y2904260D02*
X3691620D01*
X3629620Y2923950D02*
X3691620D01*
X3629620Y2943630D02*
X3691620D01*
X3629620Y2963320D02*
X3691620D01*
X3629620Y2983000D02*
X3691620D01*
X3629620Y3002690D02*
X3691620D01*
X3629620Y2707410D02*
X3691620D01*
X3629620Y2727100D02*
X3691620D01*
X3629620Y2746780D02*
X3691620D01*
X3629620Y2766470D02*
X3691620D01*
X3629620Y2786150D02*
X3691620D01*
X3629620Y2805840D02*
X3691620D01*
X3629620Y2825520D02*
X3691620D01*
X3188680Y3002690D02*
X3250680D01*
X3188680Y2983000D02*
X3250680D01*
X3188680Y2963320D02*
X3250680D01*
X3188680Y2943630D02*
X3250680D01*
X3188680Y2923950D02*
X3250680D01*
X3188680Y2904260D02*
X3250680D01*
X3188680Y2884580D02*
X3250680D01*
X3188680Y2825520D02*
X3250680D01*
X3188680Y2805840D02*
X3250680D01*
X3188680Y2786150D02*
X3250680D01*
X3188680Y2766470D02*
X3250680D01*
X3188680Y2746780D02*
X3250680D01*
X3188680Y2727100D02*
X3250680D01*
X3188680Y2707410D02*
X3250680D01*
X3629620Y2845210D02*
X3691620D01*
X3629620Y2864890D02*
X3691620D01*
X3188680D02*
X3250680D01*
X3188680Y2845210D02*
X3250680D01*
X3587790Y3044520D02*
Y3106520D01*
X3568100Y3044520D02*
Y3106520D01*
X3548420Y3044520D02*
Y3106520D01*
X3528730Y3044520D02*
Y3106520D01*
X3509050Y3044520D02*
Y3106520D01*
X3489360Y3044520D02*
Y3106520D01*
X3469680Y3044520D02*
Y3106520D01*
Y2603580D02*
Y2665580D01*
X3489360Y2603580D02*
Y2665580D01*
X3509050Y2603580D02*
Y2665580D01*
X3528730Y2603580D02*
Y2665580D01*
X3548420Y2603580D02*
Y2665580D01*
X3568100Y2603580D02*
Y2665580D01*
X3587790Y2603580D02*
Y2665580D01*
X3410620Y3044520D02*
Y3106520D01*
X3390940Y3044520D02*
Y3106520D01*
X3371250Y3044520D02*
Y3106520D01*
X3351570Y3044520D02*
Y3106520D01*
X3331880Y3044520D02*
Y3106520D01*
X3312200Y3044520D02*
Y3106520D01*
X3292510Y3044520D02*
Y3106520D01*
Y2603580D02*
Y2665580D01*
X3312200Y2603580D02*
Y2665580D01*
X3331880Y2603580D02*
Y2665580D01*
X3351570Y2603580D02*
Y2665580D01*
X3371250Y2603580D02*
Y2665580D01*
X3390940Y2603580D02*
Y2665580D01*
X3410620Y2603580D02*
Y2665580D01*
X3449990Y3044520D02*
Y3106520D01*
X3430310Y3044520D02*
Y3106520D01*
Y2603580D02*
Y2665580D01*
X3449990Y2603580D02*
Y2665580D01*
G54D17*
X630000Y3141420D02*
X650000D01*
X630000Y2976060D02*
X650000D01*
G54D18*
X425000Y3068370D02*
Y3150370D01*
G54D19*
X487500Y3109370D03*
X362500D03*
G54D18*
X6724250Y2533120D02*
X6763250D01*
X6724250Y2433120D02*
X6763250D01*
X6724250Y2483120D02*
X6763250D01*
X6524250Y2433120D02*
X6563250D01*
X6524250Y2483120D02*
X6563250D01*
X6724250Y2583120D02*
X6763250D01*
X6524250Y2533120D02*
X6563250D01*
X6524250Y2583120D02*
X6563250D01*
G54D20*
X3058900Y2935060D02*
Y3074060D01*
Y2561040D02*
Y2700040D01*
G54D21*
X10816535Y2351570D02*
X10970085D01*
X10816535Y2213780D02*
X10970085D01*
X10816535Y2489370D02*
X10970085D01*
X10816535Y2627170D02*
X10970085D01*
X10816535Y2764960D02*
X10970085D01*
G54D22*
X1012910Y3018870D02*
Y3034870D01*
X1127090Y3018870D02*
Y3034870D01*
G54D23*
X1226400Y3136910D02*
Y3266830D01*
X1088600Y3136910D02*
Y3266830D01*
G54D18*
X1320000Y3285130D02*
Y3311130D01*
Y3192610D02*
Y3218610D01*
X1451250Y3034070D02*
Y3054070D01*
Y3124650D02*
Y3144650D01*
X1488650Y3034090D02*
Y3054090D01*
X1413850Y3034090D02*
Y3054090D01*
X1488650Y3124650D02*
Y3144650D01*
X1413850Y3124650D02*
Y3144650D01*
G54D24*
X8269290Y571580D03*
X5469290D03*
X868210Y1231550D03*
G54D25*
X8330710Y768430D03*
X5530710D03*
X806790Y1034700D03*
G54D26*
X259050Y1515750D03*
X140950D03*
Y1397640D03*
Y2224410D03*
X259050D03*
Y2342520D03*
G54D27*
X4950000Y3160240D03*
X5050000Y3060240D03*
Y3160240D03*
X5150000Y3060240D03*
Y3160240D03*
X5250000Y3060240D03*
Y3160240D03*
X5350000Y3060240D03*
Y3160240D03*
X5450000Y3060240D03*
Y3160240D03*
X5550000Y3060240D03*
Y3160240D03*
X5650000Y3060240D03*
Y3160240D03*
X5750000Y3060240D03*
Y3160240D03*
X5850000Y3060240D03*
Y3160240D03*
X5950000Y3060240D03*
Y3160240D03*
X6050000Y3060240D03*
Y3160240D03*
X6150000Y3060240D03*
Y3160240D03*
G54D21*
X259050Y1397640D03*
X140950Y2342520D03*
G54D28*
X4950000Y3060240D03*
G54D23*
X9552360Y1980310D03*
X7352360D03*
X2152360D03*
X2752360Y1982090D03*
X3352360Y1980310D03*
X3952360D03*
X4552360D03*
X5152360D03*
X6152360D03*
X6752360D03*
X8952360D03*
X7952360D03*
G54D29*
X9847640D03*
X9552360Y996060D03*
X9847640D03*
Y1389760D03*
Y1192910D03*
X9552360Y1389760D03*
Y1192910D03*
X7647640Y1980310D03*
X7352360Y996060D03*
X7647640D03*
Y1389760D03*
Y1192910D03*
X7352360Y1389760D03*
Y1192910D03*
X2447640Y1980310D03*
X2152360Y996060D03*
X2447640D03*
Y1389760D03*
Y1192910D03*
X2152360Y1389760D03*
Y1192910D03*
X3047640Y1982090D03*
X2752360Y997840D03*
X3047640D03*
Y1391540D03*
Y1194690D03*
X2752360Y1391540D03*
Y1194690D03*
X3647640Y1980310D03*
X3352360Y996060D03*
X3647640D03*
Y1389760D03*
Y1192910D03*
X3352360Y1389760D03*
Y1192910D03*
X4247640Y1980310D03*
X3952360Y996060D03*
X4247640D03*
Y1389760D03*
Y1192910D03*
X3952360Y1389760D03*
Y1192910D03*
X4847640Y1980310D03*
X4552360Y996060D03*
X4847640D03*
Y1389760D03*
Y1192910D03*
X4552360Y1389760D03*
Y1192910D03*
X5447640Y1980310D03*
X5152360Y996060D03*
X5447640D03*
Y1389760D03*
Y1192910D03*
X5152360Y1389760D03*
Y1192910D03*
X6447640Y1980310D03*
X6152360Y996060D03*
X6447640D03*
Y1389760D03*
Y1192910D03*
X6152360Y1389760D03*
Y1192910D03*
X7047640Y1980310D03*
X6752360Y996060D03*
X7047640D03*
Y1389760D03*
Y1192910D03*
X6752360Y1389760D03*
Y1192910D03*
X9247640Y1980310D03*
X8952360Y996060D03*
X9247640D03*
Y1389760D03*
Y1192910D03*
X8952360Y1389760D03*
Y1192910D03*
X8247640Y1980310D03*
X7952360Y996060D03*
X8247640D03*
Y1389760D03*
Y1192910D03*
X7952360Y1389760D03*
Y1192910D03*
G54D30*
X10647240Y1519690D03*
Y1125980D03*
Y1322840D03*
X1447240Y1519690D03*
Y1125980D03*
Y1322840D03*
X1847240Y1519690D03*
Y1125980D03*
Y1322840D03*
X10247240Y1519690D03*
Y1125980D03*
Y1322840D03*
X647240Y1519690D03*
Y1125980D03*
Y1322840D03*
G54D31*
X10647240Y1956690D03*
X1447240D03*
X1847240D03*
X10247240D03*
X647240D03*
G54D32*
X10647240Y2104330D03*
X1447240D03*
X1847240D03*
X10247240D03*
X647240D03*
G54D33*
X2137790Y395670D03*
Y95670D03*
X537800Y395670D03*
Y95670D03*
X6437790Y395670D03*
Y95670D03*
X6137800Y789370D03*
Y489370D03*
X8937800Y789370D03*
Y489370D03*
X10137800Y789370D03*
Y489370D03*
X10537790Y789370D03*
Y489370D03*
X3637800Y395670D03*
Y95670D03*
X4237790Y395670D03*
Y95670D03*
X4837790Y395670D03*
Y95670D03*
X7037800Y395670D03*
Y95670D03*
X7637800Y395670D03*
Y95670D03*
X9237800Y395670D03*
Y95670D03*
X10737800Y395670D03*
Y95670D03*
X8537790Y789370D03*
Y489370D03*
X937800Y789370D03*
Y489370D03*
X2137790Y789370D03*
Y489370D03*
X1537800Y395670D03*
Y95670D03*
X2437800Y395670D03*
Y95670D03*
X3037790Y395670D03*
Y95670D03*
X1337790Y789370D03*
Y489370D03*
X537800Y789370D03*
Y489370D03*
X6137800Y395670D03*
Y95670D03*
X8237800Y395670D03*
Y95670D03*
X8937800Y395670D03*
Y95670D03*
X9837790Y395670D03*
Y95670D03*
X5937790Y395670D03*
Y95670D03*
X8537790Y395670D03*
Y95670D03*
X8737800Y395670D03*
Y95670D03*
X10137800Y395670D03*
Y95670D03*
X10337790Y395670D03*
Y95670D03*
X10537790Y395670D03*
Y95670D03*
X737790Y395670D03*
Y95670D03*
X937800Y395670D03*
Y95670D03*
X1137800Y395670D03*
Y95670D03*
X1937800Y395670D03*
Y95670D03*
X1337790Y395670D03*
Y95670D03*
X5737790Y789370D03*
Y489370D03*
X5437790Y395670D03*
Y95670D03*
X5737790Y395670D03*
Y95670D03*
G54D34*
X931250Y2876870D03*
X1530000Y3389370D03*
X640000Y2899370D03*
X560000Y2973740D03*
X170000Y2464370D03*
G54D35*
X344160Y3190210D03*
X275000Y3349370D03*
X1370000Y3249370D03*
X1060000Y2864370D03*
X1001250Y2926870D03*
X1470000Y2983120D03*
X1637500Y3376870D03*
X1695000Y3069370D03*
X1745000Y3159370D03*
X1645000D03*
X1690000Y3249370D03*
X6600000Y2924370D03*
X8050000Y3174370D03*
X7825000D03*
X7750000Y3099370D03*
X7345000Y3034370D03*
X7595000Y3044370D03*
X6540000Y2634370D03*
Y2689370D03*
X8645000Y2824370D03*
X8695000D03*
X9005000Y2914370D03*
X3725000Y3114370D03*
X3445000Y3144370D03*
X3415150Y3184580D03*
X3820000Y2874370D03*
X3850000Y2924370D03*
X3920000Y2874370D03*
X3270000Y2544370D03*
X3340000Y2569370D03*
X3310000Y2504370D03*
X505000Y3235000D03*
X270000Y2964370D03*
X225000Y3014370D03*
X1815000Y2674370D03*
X1535000D03*
X2835000Y2969370D03*
X10500000Y3404370D03*
X10600000D03*
X10700000D03*
X10800000D03*
X10115000D03*
X10215000D03*
X10315000D03*
X10415000D03*
X10030000D03*
X9930000D03*
X9830000D03*
X9730000D03*
X9630000D03*
X9530000D03*
X9430000D03*
X9330000D03*
X9230000D03*
X9130000D03*
X9030000D03*
X8930000D03*
X8830000D03*
X8730000D03*
X8630000D03*
X8530000D03*
X8430000D03*
X8330000D03*
X8230000D03*
X8130000D03*
X8030000D03*
X7930000D03*
X7830000D03*
X7730000D03*
X7630000D03*
X7530000D03*
X7430000D03*
X7330000D03*
X7230000D03*
X7130000D03*
X7030000D03*
X6930000D03*
X6830000D03*
X6730000D03*
X6630000D03*
X6530000D03*
X6430000D03*
X6330000D03*
X6230000D03*
X6130000D03*
X6030000D03*
X5930000D03*
X5830000D03*
X5730000D03*
X5630000D03*
X5530000D03*
X5430000D03*
X5330000D03*
X5230000D03*
X5130000D03*
X6315000Y2639370D03*
X4145000Y2399370D03*
X4030000Y2409370D03*
X4075000Y2439370D03*
X3985000Y2454370D03*
X3940000Y2499370D03*
X3365000Y3309370D03*
X3260000Y3234370D03*
X3255000Y3169370D03*
X3265000Y3099370D03*
X3330000Y2979370D03*
X3510000Y2824370D03*
X3435000Y2819370D03*
X506250Y2414370D03*
X2489000Y2307000D03*
X3090000Y2305620D03*
X3687500Y2308120D03*
X2930000Y3099370D03*
X3255000Y2664370D03*
X3395000Y2549370D03*
X3815000D03*
X3635000D03*
X3530000Y2724370D03*
X3595000Y2914370D03*
X3735000Y2679370D03*
X3790000D03*
X3855000D03*
X3405000Y2754370D03*
X3345000D03*
X3535000Y3144370D03*
X3315000Y2809370D03*
X3340000Y2854370D03*
X3385000Y2874370D03*
Y2924370D03*
X3155000Y2914370D03*
X5970000Y2644370D03*
X4810000Y2789370D03*
X4625000Y2369370D03*
X4535000Y2414370D03*
X4445000D03*
X4265000Y2574370D03*
X4535000Y2619370D03*
X4445000D03*
X4265000Y2779370D03*
X4445000Y2824370D03*
X4265000Y2984370D03*
X4445000Y3029370D03*
X4265000Y3189370D03*
X4445000Y3234370D03*
X5005000Y2794370D03*
X5415000Y2789370D03*
X5210000D03*
X4795000Y2649370D03*
Y2559370D03*
X4955000Y2379370D03*
X5000000Y2649370D03*
Y2379370D03*
Y2559370D03*
X5160000Y2379370D03*
X5205000Y2649370D03*
Y2379370D03*
Y2559370D03*
X5365000Y2379370D03*
X5410000Y2649370D03*
Y2379370D03*
Y2559370D03*
X5570000Y2379370D03*
X7270000Y2969370D03*
X7225000Y2789370D03*
X7065000Y2609370D03*
X7505000Y2969370D03*
X7460000Y2789370D03*
X7740000Y2968740D03*
X7695000Y2788740D03*
X7975000Y3109370D03*
X7930000Y2929370D03*
X7770000Y2749370D03*
X8210000Y3109370D03*
X8165000Y2929370D03*
X8005000Y2749370D03*
X8445000Y3109370D03*
X8400000Y2929370D03*
X8240000Y2749370D03*
X8915000Y3109370D03*
X8870000Y2749370D03*
Y2929370D03*
X8710000Y2749370D03*
X8475000D03*
X8635000Y2929370D03*
X8680000Y3109370D03*
X6130000Y2599370D03*
X1320250Y2378370D03*
X6428120Y2258120D03*
X706250Y1858120D03*
X1450000D03*
X1781250D03*
X2156250D03*
X2450000D03*
X2756250Y1859890D03*
X3050000D03*
X3356250Y1858120D03*
X3650000D03*
X3956250D03*
X4250000D03*
X4556250D03*
X4850000D03*
X5156250D03*
X5450000D03*
X6156250D03*
X6450000D03*
X6756250D03*
X7050000D03*
X7356250D03*
X7650000D03*
X8250000D03*
X7956250D03*
X1931250Y2708120D03*
X1706250Y2676870D03*
X5143750Y2320620D03*
X1563000Y2598370D03*
X1624000Y2476370D03*
X7350000Y2549370D03*
X7143750Y2533120D03*
X1156250Y2851870D03*
X3131650Y2763300D03*
X10775000Y2939370D03*
X513750Y3351250D03*
X3196400Y3061300D03*
X3190150Y3242550D03*
X10737500Y2351870D03*
X9506250Y2915620D03*
X470000Y1860000D03*
X8268750Y2483120D03*
X4100000Y3404370D03*
X256250Y3451870D03*
X9325000Y3115620D03*
X9525000Y3084370D03*
X9306250Y2978120D03*
X9687500Y2928120D03*
X9981250Y3151870D03*
X10385000Y2505000D03*
X10375000Y2345620D03*
X10830000Y3260000D03*
X4350000Y2145620D03*
Y2264370D03*
X4150000D03*
X3787500Y2145620D03*
X4100000Y2125370D03*
X3500000Y2126870D03*
X3193750Y2145620D03*
X2900000Y2126870D03*
X2587500Y2258120D03*
Y2139370D03*
X2300000Y2126870D03*
X2362500Y2276870D03*
X2206250Y2314370D03*
X3493750Y1976870D03*
X4093750Y2039370D03*
X2900000Y1983120D03*
X2293750Y1989370D03*
X2285000Y3385000D03*
X10045000Y2665000D03*
X5010000Y3404370D03*
X2581250Y3401870D03*
X2025000Y3376870D03*
X4680000Y3404370D03*
X10012500Y2045620D03*
X10406250Y2033120D03*
Y2189370D03*
X2000000Y2201870D03*
X1987500Y1970620D03*
X1990000Y2150000D03*
X1731250Y1970620D03*
X1612500Y2133120D03*
X3212500Y1976870D03*
X3800000Y1983120D03*
X4400000Y1989370D03*
X11050000Y1864370D03*
Y3064370D03*
X6481250Y2482500D03*
X3449990Y2557710D03*
X3452650Y2380050D03*
X3152650Y2723800D03*
X3146400Y2805050D03*
X10637500Y2720620D03*
X10712500Y2864370D03*
X3127650Y3023800D03*
X3125000Y2964370D03*
X3033900Y2773800D03*
X3096400Y2836300D03*
X2985650Y2640550D03*
X3115150Y3136300D03*
X2971400Y2992550D03*
X2977650Y2911300D03*
X3165150Y2480050D03*
X3127650Y2613300D03*
Y2542550D03*
X2637500Y2320620D03*
X3970000Y3404370D03*
X4870000D03*
X10450000Y2964370D03*
X10187500Y2745620D03*
X10387500Y2764370D03*
X10681250Y2576870D03*
X10562500Y2758120D03*
X10768750Y2989370D03*
X7012500Y2558120D03*
X6662500Y2570620D03*
X6600000Y2458120D03*
X10456250Y2876870D03*
X11050000Y2051870D03*
X10762500D03*
Y1858120D03*
X10406250D03*
X10081250D03*
X10193750Y2545620D03*
X3150000Y2295620D03*
X9012500Y1858120D03*
X9400000D03*
X9737500D03*
X4046000Y2258370D03*
X2246000D03*
X2846000D03*
X1525000Y2339370D03*
X1381250Y2276870D03*
X1668750D03*
X1887500Y2414370D03*
X1812500Y2339370D03*
X10068750Y2276870D03*
X10287500Y2414370D03*
X10212500Y2339370D03*
X10468750Y2276870D03*
X10687500Y2414370D03*
X10612500Y2339370D03*
X468750Y2276870D03*
X687500Y2414370D03*
X612500Y2339370D03*
X9108500Y2258370D03*
X9646000D03*
X8014750D03*
X7446000D03*
X6308500D03*
X5214750D03*
X4646000D03*
X3208900Y2480050D03*
X4888390Y2308120D03*
X6787500D03*
X1262500Y2508120D03*
X3050000Y2320620D03*
X2981250D03*
X3246400Y3042550D03*
X763750Y3401250D03*
Y3320000D03*
X1600000Y2414370D03*
X5982050Y2508120D03*
X6039800Y2378370D03*
X7387500Y2308120D03*
X8782050Y2508120D03*
X9050000Y2308120D03*
X4287500D03*
X8825000Y2620620D03*
X4793750Y2308120D03*
X5393750D03*
X2093750Y2201870D03*
X2693750D03*
X3293750D03*
X3893750D03*
X4493750D03*
X5062500D03*
X6156250D03*
X6693750D03*
X7293750D03*
X7862500D03*
X8956250D03*
X9493750D03*
X9274110Y2308120D03*
X9812500D03*
X6043750Y2564370D03*
X6250000Y2364370D03*
X7956250Y2308120D03*
X8839800Y2378370D03*
X4493750Y2145620D03*
X5000000Y2045620D03*
X3065150Y2492550D03*
X5640000Y2379370D03*
X5606250Y2495620D03*
X6237500Y2426870D03*
X6168750Y2314370D03*
X6362500Y2358120D03*
X6475000Y2364370D03*
X6756250Y2345620D03*
X6631250Y2258120D03*
X6806250Y2570620D03*
X7156250Y2401870D03*
X7256250Y2433120D03*
X7431250Y2308120D03*
X7200000Y2251870D03*
Y2083120D03*
X6600000Y2101870D03*
X7800000Y1983120D03*
Y2158120D03*
Y2264370D03*
X8381250Y2351870D03*
X8706250Y2645620D03*
X8962500Y2620620D03*
X9043750Y2633120D03*
X9525000Y2358120D03*
X9200000Y2314370D03*
X8881250Y2301870D03*
X9425000Y2245620D03*
X9400000Y2108120D03*
X10006250Y2370620D03*
X9431250Y2533120D03*
X9418750Y2626870D03*
X10631250Y2514370D03*
X9637500Y2358120D03*
X9225000Y2483120D03*
X10481250Y2645620D03*
X10775000Y2883120D03*
X8162500Y2414370D03*
X8275000Y2645620D03*
X8031250Y2545620D03*
X7868750Y2645620D03*
X7618750Y2408120D03*
X7515000Y2529370D03*
X7887500Y2426870D03*
X8118750Y2314370D03*
X7556250Y2264370D03*
X6662500Y2345620D03*
X6081250Y2326870D03*
X7712500Y2533120D03*
X7418750Y2464370D03*
X9856250Y2526870D03*
X9812500Y2651870D03*
X9993750Y2220620D03*
X8456250Y2645620D03*
X8368750Y2564370D03*
X5675000Y2508120D03*
X955450D03*
X8475000D03*
X6956250Y2395620D03*
Y2476870D03*
X6841620Y2258370D03*
X6839060Y2325310D03*
X4465000Y3404370D03*
X4680000Y3239370D03*
Y3034370D03*
Y2849370D03*
X4675000Y2624370D03*
X6605000Y2634370D03*
X6695000Y2674370D03*
X6785000D03*
X6965000D03*
Y2844370D03*
X6050000Y2759370D03*
X5635000Y2599370D03*
X5725000Y2639370D03*
X5815000D03*
X6480000Y2809370D03*
X6250000Y2639370D03*
X9580000Y2359370D03*
X10106250Y2414370D03*
X10506250D03*
X10737500Y2176870D03*
X10718160Y2764960D03*
X10518750Y2864370D03*
X10581250Y2914370D03*
X7930000Y2749370D03*
X7695000Y2608740D03*
X7460000Y2609370D03*
X8165000Y2749370D03*
X8400000D03*
X8635000D03*
X6450000Y2433120D03*
X6436750Y2533120D03*
X6055000Y2679370D03*
X3545000Y2384370D03*
X3635000D03*
X3725000D03*
X3815000D03*
X3480000Y3304370D03*
X4270000Y3404370D03*
X4790000Y2399370D03*
X7250000Y2849370D03*
X7485000D03*
X7720000D03*
X7980000Y2824370D03*
X8215000D03*
X8450000D03*
X8920000D03*
X2705000Y3004370D03*
X9020000Y2509370D03*
X3755000Y2894370D03*
X3950000Y3024370D03*
X4130000D03*
X4115000Y2829370D03*
X3960000D03*
X4375000Y2379370D03*
X3360000D03*
X3285000Y2904370D03*
X3430000Y2699370D03*
X7290000Y2609370D03*
X7230000D03*
X7530000D03*
X3515000Y3214370D03*
X3570000Y3309370D03*
X3665150Y3234220D03*
X3290000Y3009370D03*
X3390000Y2999370D03*
X3445000Y3004370D03*
X3500000Y3009370D03*
X3555000Y2844370D03*
X8985000Y3314370D03*
X9085000D03*
X9185000D03*
X9285000D03*
X9385000D03*
X9485000D03*
X9585000D03*
X9685000D03*
X9785000D03*
X9885000D03*
X9985000D03*
X10370000D03*
X10270000D03*
X10170000D03*
X10070000D03*
X10755000D03*
X10655000D03*
X10555000D03*
X10455000D03*
X9035000Y3224370D03*
X9135000D03*
X9235000D03*
X9335000D03*
X9435000D03*
X9535000D03*
X9635000D03*
X9735000D03*
X9835000D03*
X9935000D03*
X10035000D03*
X10420000D03*
X10320000D03*
X10220000D03*
X10120000D03*
X10805000D03*
X10705000D03*
X10605000D03*
X10505000D03*
X2095000Y3069370D03*
X1995000D03*
X1895000D03*
X1795000D03*
X2045000Y3159370D03*
X1945000D03*
X1845000D03*
X1790000Y3249370D03*
X1890000D03*
X1990000D03*
X2090000D03*
X4055000Y2974370D03*
X4065000Y2884370D03*
X3550000Y2259370D03*
X425000Y3184370D03*
X445000Y3034370D03*
G54D36*
X5862500Y1499830D03*
Y1251870D03*
X1142950D03*
Y1499830D03*
X8662500D03*
Y1251870D03*
G54D37*
X10785200Y2284650D02*
X10780829Y2284159D01*
X10776676Y2282709D01*
X10772949Y2280373D01*
X10769833Y2277268D01*
X10767485Y2273549D01*
X10766021Y2269401D01*
X10765515Y2265032D01*
X10765992Y2260659D01*
X10767427Y2256502D01*
X10769750Y2252766D01*
X10772845Y2249640D01*
X10776556Y2247280D01*
X10780699Y2245802D01*
X10785066Y2245281D01*
X10785200Y2245280D01*
X0Y0D02*
X11100000D01*
Y2245280D01*
X10785200D02*
X11100000D01*
X10785200D03*
Y2284650D02*
X11100000D01*
Y3503940D01*
X0D02*
X11100000D01*
X0Y0D02*
Y3503940D01*
G54D38*
X22840Y1552760D03*
X377160D03*
Y2187400D03*
X22840D03*
G54D39*
X11000000Y257480D03*
X100000D03*
X11000000Y3246460D03*
X100000D03*
G54D40*
X11000000Y100000D03*
X100000D03*
X11000000Y3403940D03*
X100000D03*
G54D41*
X8597500Y940950D02*
Y1106300D01*
X5799300Y939150D02*
Y1104500D01*
X1077950Y940950D02*
Y1106300D01*
Y1669290D02*
Y1795280D01*
Y2305120D02*
Y2553150D01*
X5799300Y2303320D02*
Y2551350D01*
Y1667500D02*
Y1793480D01*
X8597500Y1669290D02*
Y1795280D01*
Y2305120D02*
Y2553150D01*
G54D16*
X3629620Y3002690D02*
X3691620D01*
X3629620Y2707410D02*
X3691620D01*
G54D42*
X3660620Y2747500D02*
Y2962600D01*
G54D16*
X3188680Y2707410D02*
X3250680D01*
X3188680Y3002690D02*
X3250680D01*
G54D42*
X3219680Y2747500D02*
Y2962600D01*
G54D16*
X3587790Y2603580D02*
Y2665580D01*
X3292510Y2603580D02*
Y2665580D01*
G54D42*
X3332600Y2634580D02*
X3547700D01*
G54D16*
X3292510Y3044520D02*
Y3106520D01*
X3587790Y3044520D02*
Y3106520D01*
G54D42*
X3332600Y3075520D02*
X3547700D01*
G36*
X11114310Y2835370D02*
Y2143370D01*
X10772310D01*
Y2835370D01*
X11114310D01*
G37*
%LPC*%
G75*
X11114310Y2835370D02*
G54D43*
X3550034Y3158962D02*
X3531687Y3165209D01*
%LPD*%
G75*
X3531687Y3165209D02*
G54D44*
X10785200Y2264965D02*
X11103372D01*
G54D10*
X4623030Y6536220D02*
X4626970D01*
X4623030Y6650400D02*
X4626970D01*
X6603030Y6186220D02*
X6606970D01*
X6603030Y6300400D02*
X6606970D01*
X6118030Y6151220D02*
X6121970D01*
X6118030Y6265400D02*
X6121970D01*
X5633030Y6151220D02*
X5636970D01*
X5633030Y6265400D02*
X5636970D01*
X4623030Y6126220D02*
X4626970D01*
X4623030Y6240400D02*
X4626970D01*
X4623030Y5921220D02*
X4626970D01*
X4623030Y6035400D02*
X4626970D01*
X4623030Y6741220D02*
X4626970D01*
X4623030Y6855400D02*
X4626970D01*
X4623030Y6331220D02*
X4626970D01*
X4623030Y6445400D02*
X4626970D01*
G36*
X10890945Y6593310D02*
G02X10950000Y6652365I59055J0D01*
G02X11009055Y6593310I0J-59055D01*
G02X10973001Y6538918I-59055J0D01*
G01X10972916Y6539004D01*
X10971514Y6540406D01*
G03X10961890Y6544400I-9624J-9596D01*
G01X10916904D01*
G02X10890945Y6593310I33096J48910D01*
G37*
G54D11*
X72500Y6603310D03*
X225000Y3843310D03*
G54D12*
X59340Y6187030D02*
G01X64340D01*
X59340Y6239830D02*
X64340D01*
X1317500Y6587060D02*
X1322500D01*
X1317500Y6639860D02*
X1322500D01*
X2882500Y6529710D02*
X2887500D01*
X2882500Y6476910D02*
X2887500D01*
X3206400Y6091640D02*
X3211400D01*
X3206400Y6038840D02*
X3211400D01*
X527500Y6186910D02*
X532500D01*
X527500Y6239710D02*
X532500D01*
G54D13*
X1413750Y6477370D02*
Y6483370D01*
X1452140Y6390750D02*
Y6396750D01*
X1375360Y6390750D02*
Y6396750D01*
X10675000Y6502370D02*
Y6508370D01*
X10713390Y6415750D02*
Y6421750D01*
X10636610Y6415750D02*
Y6421750D01*
X1575000Y5839870D02*
Y5845870D01*
X1613390Y5753250D02*
Y5759250D01*
X1536610Y5753250D02*
Y5759250D01*
X1431250Y5753250D02*
Y5759250D01*
X1392860Y5839870D02*
Y5845870D01*
X1469640Y5839870D02*
Y5845870D01*
X1862500Y5839870D02*
Y5845870D01*
X1900890Y5753250D02*
Y5759250D01*
X1824110Y5753250D02*
Y5759250D01*
X1718750Y5753250D02*
Y5759250D01*
X1680360Y5839870D02*
Y5845870D01*
X1757140Y5839870D02*
Y5845870D01*
X2300000Y5758620D02*
Y5764620D01*
X2338390Y5672000D02*
Y5678000D01*
X2261610Y5672000D02*
Y5678000D01*
X2450000Y5672000D02*
Y5678000D01*
X2411610Y5758620D02*
Y5764620D01*
X2488390Y5758620D02*
Y5764620D01*
X2150000Y5672000D02*
Y5678000D01*
X2111610Y5758620D02*
Y5764620D01*
X2188390Y5758620D02*
Y5764620D01*
X2900000Y5758620D02*
Y5764620D01*
X2938390Y5672000D02*
Y5678000D01*
X2861610Y5672000D02*
Y5678000D01*
X3050000Y5672000D02*
Y5678000D01*
X3011610Y5758620D02*
Y5764620D01*
X3088390Y5758620D02*
Y5764620D01*
X2750000Y5672000D02*
Y5678000D01*
X2711610Y5758620D02*
Y5764620D01*
X2788390Y5758620D02*
Y5764620D01*
X3650000Y5672000D02*
Y5678000D01*
X3611610Y5758620D02*
Y5764620D01*
X3688390Y5758620D02*
Y5764620D01*
X3350000Y5672000D02*
Y5678000D01*
X3311610Y5758620D02*
Y5764620D01*
X3388390Y5758620D02*
Y5764620D01*
X4100000Y5758620D02*
Y5764620D01*
X4138390Y5672000D02*
Y5678000D01*
X4061610Y5672000D02*
Y5678000D01*
X4250000Y5672000D02*
Y5678000D01*
X4211610Y5758620D02*
Y5764620D01*
X4288390Y5758620D02*
Y5764620D01*
X3950000Y5672000D02*
Y5678000D01*
X3911610Y5758620D02*
Y5764620D01*
X3988390Y5758620D02*
Y5764620D01*
X4700000Y5758620D02*
Y5764620D01*
X4738390Y5672000D02*
Y5678000D01*
X4661610Y5672000D02*
Y5678000D01*
X4850000Y5672000D02*
Y5678000D01*
X4811610Y5758620D02*
Y5764620D01*
X4888390Y5758620D02*
Y5764620D01*
X4550000Y5672000D02*
Y5678000D01*
X4511610Y5758620D02*
Y5764620D01*
X4588390Y5758620D02*
Y5764620D01*
X5268750Y5758620D02*
Y5764620D01*
X5307140Y5672000D02*
Y5678000D01*
X5230360Y5672000D02*
Y5678000D01*
X5418750Y5672000D02*
Y5678000D01*
X5380360Y5758620D02*
Y5764620D01*
X5457140Y5758620D02*
Y5764620D01*
X5118750Y5672000D02*
Y5678000D01*
X5080360Y5758620D02*
Y5764620D01*
X5157140Y5758620D02*
Y5764620D01*
X6362500Y5758620D02*
Y5764620D01*
X6400890Y5672000D02*
Y5678000D01*
X6324110Y5672000D02*
Y5678000D01*
X6900000Y5758620D02*
Y5764620D01*
X6938390Y5672000D02*
Y5678000D01*
X6861610Y5672000D02*
Y5678000D01*
X7500000Y5758620D02*
Y5764620D01*
X7538390Y5672000D02*
Y5678000D01*
X7461610Y5672000D02*
Y5678000D01*
X8068750Y5758620D02*
Y5764620D01*
X8107140Y5672000D02*
Y5678000D01*
X8030360Y5672000D02*
Y5678000D01*
X6512500Y5672000D02*
Y5678000D01*
X6474110Y5758620D02*
Y5764620D01*
X6550890Y5758620D02*
Y5764620D01*
X6212500Y5672000D02*
Y5678000D01*
X6174110Y5758620D02*
Y5764620D01*
X6250890Y5758620D02*
Y5764620D01*
X7050000Y5672000D02*
Y5678000D01*
X7011610Y5758620D02*
Y5764620D01*
X7088390Y5758620D02*
Y5764620D01*
X6750000Y5672000D02*
Y5678000D01*
X6711610Y5758620D02*
Y5764620D01*
X6788390Y5758620D02*
Y5764620D01*
X7650000Y5672000D02*
Y5678000D01*
X7611610Y5758620D02*
Y5764620D01*
X7688390Y5758620D02*
Y5764620D01*
X7350000Y5672000D02*
Y5678000D01*
X7311610Y5758620D02*
Y5764620D01*
X7388390Y5758620D02*
Y5764620D01*
X8218750Y5672000D02*
Y5678000D01*
X8180360Y5758620D02*
Y5764620D01*
X8257140Y5758620D02*
Y5764620D01*
X7918750Y5672000D02*
Y5678000D01*
X7880360Y5758620D02*
Y5764620D01*
X7957140Y5758620D02*
Y5764620D01*
X9162500Y5758620D02*
Y5764620D01*
X9200890Y5672000D02*
Y5678000D01*
X9124110Y5672000D02*
Y5678000D01*
X9700000Y5758620D02*
Y5764620D01*
X9738390Y5672000D02*
Y5678000D01*
X9661610Y5672000D02*
Y5678000D01*
X9312500Y5672000D02*
Y5678000D01*
X9274110Y5758620D02*
Y5764620D01*
X9350890Y5758620D02*
Y5764620D01*
X9012500Y5672000D02*
Y5678000D01*
X8974110Y5758620D02*
Y5764620D01*
X9050890Y5758620D02*
Y5764620D01*
X9850000Y5672000D02*
Y5678000D01*
X9811610Y5758620D02*
Y5764620D01*
X9888390Y5758620D02*
Y5764620D01*
X9550000Y5672000D02*
Y5678000D01*
X9511610Y5758620D02*
Y5764620D01*
X9588390Y5758620D02*
Y5764620D01*
X10262500Y5839870D02*
Y5845870D01*
X10300890Y5753250D02*
Y5759250D01*
X10224110Y5753250D02*
Y5759250D01*
X10662500Y5839870D02*
Y5845870D01*
X10700890Y5753250D02*
Y5759250D01*
X10624110Y5753250D02*
Y5759250D01*
X10118750Y5753250D02*
Y5759250D01*
X10080360Y5839870D02*
Y5845870D01*
X10157140Y5839870D02*
Y5845870D01*
X10518750Y5753250D02*
Y5759250D01*
X10480360Y5839870D02*
Y5845870D01*
X10557140Y5839870D02*
Y5845870D01*
X662500Y5839870D02*
Y5845870D01*
X700890Y5753250D02*
Y5759250D01*
X624110Y5753250D02*
Y5759250D01*
X518750Y5753250D02*
Y5759250D01*
X480360Y5839870D02*
Y5845870D01*
X557140Y5839870D02*
Y5845870D01*
X3500000Y5758620D02*
Y5764620D01*
X3538390Y5672000D02*
Y5678000D01*
X3461610Y5672000D02*
Y5678000D01*
G54D14*
X1534000Y6806310D02*
Y6820310D01*
X1606000Y6806310D02*
Y6820310D01*
X1446500Y6723810D02*
Y6737810D01*
X1518500Y6723810D02*
Y6737810D01*
X6898500Y5973810D02*
Y5987810D01*
X6826500Y5973810D02*
Y5987810D01*
X5044000Y5876310D02*
Y5890310D01*
X5116000Y5876310D02*
Y5890310D01*
X4839000Y5876310D02*
Y5890310D01*
X4911000Y5876310D02*
Y5890310D01*
X5249000Y5876310D02*
Y5890310D01*
X5321000Y5876310D02*
Y5890310D01*
X5454000Y5876310D02*
Y5890310D01*
X5526000Y5876310D02*
Y5890310D01*
X7181000Y6106310D02*
Y6120310D01*
X7109000Y6106310D02*
Y6120310D01*
X8826000Y6246310D02*
Y6260310D01*
X8754000Y6246310D02*
Y6260310D01*
X8591000Y6246310D02*
Y6260310D01*
X8519000Y6246310D02*
Y6260310D01*
X7416000Y6106310D02*
Y6120310D01*
X7344000Y6106310D02*
Y6120310D01*
X8356000Y6246310D02*
Y6260310D01*
X8284000Y6246310D02*
Y6260310D01*
X7651000Y6105680D02*
Y6119680D01*
X7579000Y6105680D02*
Y6119680D01*
X8121000Y6246310D02*
Y6260310D01*
X8049000Y6246310D02*
Y6260310D01*
X7886000Y6246310D02*
Y6260310D01*
X7814000Y6246310D02*
Y6260310D01*
X1390250Y6805060D02*
Y6819060D01*
X1462250Y6805060D02*
Y6819060D01*
X1131000Y6423810D02*
Y6437810D01*
X1059000Y6423810D02*
Y6437810D01*
X6314000Y5930060D02*
Y5944060D01*
X6386000Y5930060D02*
Y5944060D01*
X4839000Y6146310D02*
Y6160310D01*
X4911000Y6146310D02*
Y6160310D01*
X5044000Y5966310D02*
Y5980310D01*
X5116000Y5966310D02*
Y5980310D01*
X5249000Y6146310D02*
Y6160310D01*
X5321000Y6146310D02*
Y6160310D01*
X5044000Y6146310D02*
Y6160310D01*
X5116000Y6146310D02*
Y6160310D01*
X4839000Y5966310D02*
Y5980310D01*
X4911000Y5966310D02*
Y5980310D01*
X5249000Y5966310D02*
Y5980310D01*
X5321000Y5966310D02*
Y5980310D01*
X4911000Y6056310D02*
Y6070310D01*
X4839000Y6056310D02*
Y6070310D01*
X5321000Y6056310D02*
Y6070310D01*
X5249000Y6056310D02*
Y6070310D01*
X5454000Y6146310D02*
Y6160310D01*
X5526000Y6146310D02*
Y6160310D01*
X5454000Y5966310D02*
Y5980310D01*
X5526000Y5966310D02*
Y5980310D01*
Y6056310D02*
Y6070310D01*
X5454000Y6056310D02*
Y6070310D01*
X8826000Y6516310D02*
Y6530310D01*
X8754000Y6516310D02*
Y6530310D01*
X8591000Y6516310D02*
Y6530310D01*
X8519000Y6516310D02*
Y6530310D01*
X7416000Y6376310D02*
Y6390310D01*
X7344000Y6376310D02*
Y6390310D01*
X7181000Y6196310D02*
Y6210310D01*
X7109000Y6196310D02*
Y6210310D01*
X8826000Y6336310D02*
Y6350310D01*
X8754000Y6336310D02*
Y6350310D01*
X8591000Y6336310D02*
Y6350310D01*
X8519000Y6336310D02*
Y6350310D01*
X7109000Y6286310D02*
Y6300310D01*
X7181000Y6286310D02*
Y6300310D01*
X8754000Y6426310D02*
Y6440310D01*
X8826000Y6426310D02*
Y6440310D01*
X8519000Y6426310D02*
Y6440310D01*
X8591000Y6426310D02*
Y6440310D01*
X7344000Y6286310D02*
Y6300310D01*
X7416000Y6286310D02*
Y6300310D01*
X8356000Y6516310D02*
Y6530310D01*
X8284000Y6516310D02*
Y6530310D01*
X7651000Y6376310D02*
Y6390310D01*
X7579000Y6376310D02*
Y6390310D01*
X8121000Y6516310D02*
Y6530310D01*
X8049000Y6516310D02*
Y6530310D01*
X7886000Y6516310D02*
Y6530310D01*
X7814000Y6516310D02*
Y6530310D01*
X8356000Y6336310D02*
Y6350310D01*
X8284000Y6336310D02*
Y6350310D01*
X7651000Y6195680D02*
Y6209680D01*
X7579000Y6195680D02*
Y6209680D01*
X7886000Y6336310D02*
Y6350310D01*
X7814000Y6336310D02*
Y6350310D01*
X8284000Y6426310D02*
Y6440310D01*
X8356000Y6426310D02*
Y6440310D01*
X8049000Y6426310D02*
Y6440310D01*
X8121000Y6426310D02*
Y6440310D01*
X5116000Y6056310D02*
Y6070310D01*
X5044000Y6056310D02*
Y6070310D01*
X7814000Y6426310D02*
Y6440310D01*
X7886000Y6426310D02*
Y6440310D01*
X615250Y6898190D02*
Y6912190D01*
X687250Y6898190D02*
Y6912190D01*
X615250Y6816940D02*
Y6830940D01*
X687250Y6816940D02*
Y6830940D01*
X3041000Y6676310D02*
Y6690310D01*
X2969000Y6676310D02*
Y6690310D01*
X10904750Y6436310D02*
Y6450310D01*
X10832750Y6436310D02*
Y6450310D01*
X1470250Y5911310D02*
Y5925310D01*
X1542250Y5911310D02*
Y5925310D01*
X1757750Y5911310D02*
Y5925310D01*
X1829750Y5911310D02*
Y5925310D01*
X10157750Y5911310D02*
Y5925310D01*
X10229750Y5911310D02*
Y5925310D01*
X10557750Y5911310D02*
Y5925310D01*
X10629750Y5911310D02*
Y5925310D01*
X557750Y5911310D02*
Y5925310D01*
X629750Y5911310D02*
Y5925310D01*
X7181000Y6376310D02*
Y6390310D01*
X7109000Y6376310D02*
Y6390310D01*
X7416000Y6196310D02*
Y6210310D01*
X7344000Y6196310D02*
Y6210310D01*
X7579000Y6285680D02*
Y6299680D01*
X7651000Y6285680D02*
Y6299680D01*
X8121000Y6336310D02*
Y6350310D01*
X8049000Y6336310D02*
Y6350310D01*
X1213750Y6423810D02*
Y6437810D01*
X1285750Y6423810D02*
Y6437810D01*
X1527750Y6461310D02*
Y6475310D01*
X1599750Y6461310D02*
Y6475310D01*
X6826500Y5892560D02*
Y5906560D01*
X6898500Y5892560D02*
Y5906560D01*
X6314000Y6030060D02*
Y6044060D01*
X6386000Y6030060D02*
Y6044060D01*
G54D13*
X2798690Y6643310D02*
X2804690D01*
X2885310Y6681700D02*
X2891310D01*
X2885310Y6604920D02*
X2891310D01*
G54D14*
X8832800Y5940060D02*
X8846800D01*
X8832800Y6012060D02*
X8846800D01*
X6032800Y5940060D02*
X6046800D01*
X6032800Y6012060D02*
X6046800D01*
X1313250Y5940060D02*
X1327250D01*
X1313250Y6012060D02*
X1327250D01*
X4258000Y6577310D02*
X4272000D01*
X4258000Y6649310D02*
X4272000D01*
X4258000Y6372310D02*
X4272000D01*
X4258000Y6444310D02*
X4272000D01*
X4258000Y6782310D02*
X4272000D01*
X4258000Y6854310D02*
X4272000D01*
X4258000Y5962310D02*
X4272000D01*
X4258000Y6034310D02*
X4272000D01*
X6958000Y6227310D02*
X6972000D01*
X6958000Y6299310D02*
X6972000D01*
X4258000Y6167310D02*
X4272000D01*
X4258000Y6239310D02*
X4272000D01*
X5988000Y6192310D02*
X6002000D01*
X5988000Y6264310D02*
X6002000D01*
X6473000Y6192310D02*
X6487000D01*
X6473000Y6264310D02*
X6487000D01*
X3658150Y6616740D02*
X3672150D01*
X3658150Y6688740D02*
X3672150D01*
X3189400Y6622990D02*
X3203400D01*
X3189400Y6694990D02*
X3203400D01*
X3408150Y6741740D02*
X3422150D01*
X3408150Y6813740D02*
X3422150D01*
X3445650Y6007490D02*
X3459650D01*
X3445650Y5935490D02*
X3459650D01*
X3564400Y6691740D02*
X3578400D01*
X3564400Y6763740D02*
X3578400D01*
X3353000Y5932310D02*
X3367000D01*
X3353000Y6004310D02*
X3367000D01*
X3718000Y6009310D02*
X3732000D01*
X3718000Y5937310D02*
X3732000D01*
X3538000Y6009310D02*
X3552000D01*
X3538000Y5937310D02*
X3552000D01*
X4528000Y6167310D02*
X4542000D01*
X4528000Y6239310D02*
X4542000D01*
X4528000Y6577310D02*
X4542000D01*
X4528000Y6649310D02*
X4542000D01*
X4528000Y6372310D02*
X4542000D01*
X4528000Y6444310D02*
X4542000D01*
X4528000Y6782310D02*
X4542000D01*
X4528000Y6854310D02*
X4542000D01*
X4528000Y5962310D02*
X4542000D01*
X4528000Y6034310D02*
X4542000D01*
X4348000Y6577310D02*
X4362000D01*
X4348000Y6649310D02*
X4362000D01*
X4348000Y6372310D02*
X4362000D01*
X4348000Y6444310D02*
X4362000D01*
X4348000Y6782310D02*
X4362000D01*
X4348000Y6854310D02*
X4362000D01*
X4348000Y5962310D02*
X4362000D01*
X4348000Y6034310D02*
X4362000D01*
X6868000Y6227310D02*
X6882000D01*
X6868000Y6299310D02*
X6882000D01*
X4348000Y6167310D02*
X4362000D01*
X4348000Y6239310D02*
X4362000D01*
X4438000D02*
X4452000D01*
X4438000Y6167310D02*
X4452000D01*
X5718000Y6192310D02*
X5732000D01*
X5718000Y6264310D02*
X5732000D01*
X6203000Y6192310D02*
X6217000D01*
X6203000Y6264310D02*
X6217000D01*
X6688000Y6227310D02*
X6702000D01*
X6688000Y6299310D02*
X6702000D01*
X5898000Y6192310D02*
X5912000D01*
X5898000Y6264310D02*
X5912000D01*
X6383000Y6192310D02*
X6397000D01*
X6383000Y6264310D02*
X6397000D01*
X5808000D02*
X5822000D01*
X5808000Y6192310D02*
X5822000D01*
X6293000Y6264310D02*
X6307000D01*
X6293000Y6192310D02*
X6307000D01*
X4438000Y6649310D02*
X4452000D01*
X4438000Y6577310D02*
X4452000D01*
X4438000Y6444310D02*
X4452000D01*
X4438000Y6372310D02*
X4452000D01*
X4438000Y6854310D02*
X4452000D01*
X4438000Y6782310D02*
X4452000D01*
X4438000Y6034310D02*
X4452000D01*
X4438000Y5962310D02*
X4452000D01*
X6778000Y6299310D02*
X6792000D01*
X6778000Y6227310D02*
X6792000D01*
X10630500Y6276060D02*
X10644500D01*
X10630500Y6348060D02*
X10644500D01*
X3628000Y5937310D02*
X3642000D01*
X3628000Y6009310D02*
X3642000D01*
X3808000Y5937310D02*
X3822000D01*
X3808000Y6009310D02*
X3822000D01*
X1588000Y6551060D02*
X1602000D01*
X1588000Y6623060D02*
X1602000D01*
X10993000Y6492700D02*
X11007000D01*
X10993000Y6420700D02*
X11007000D01*
G54D10*
X458340Y6746970D02*
Y6750910D01*
X344160Y6746970D02*
Y6750910D01*
X458340Y6853220D02*
Y6857160D01*
X344160Y6853220D02*
Y6857160D01*
X7927090Y6611340D02*
Y6615280D01*
X7812910Y6611340D02*
Y6615280D01*
X8162090Y6611340D02*
Y6615280D01*
X8047910Y6611340D02*
Y6615280D01*
X8397090Y6611340D02*
Y6615280D01*
X8282910Y6611340D02*
Y6615280D01*
X7457090Y6471340D02*
Y6475280D01*
X7342910Y6471340D02*
Y6475280D01*
X8632090Y6611340D02*
Y6615280D01*
X8517910Y6611340D02*
Y6615280D01*
X8867090Y6611340D02*
Y6615280D01*
X8752910Y6611340D02*
Y6615280D01*
X7222090Y6471340D02*
Y6475280D01*
X7107910Y6471340D02*
Y6475280D01*
X5412910Y6241340D02*
Y6245280D01*
X5527090Y6241340D02*
Y6245280D01*
X5002910Y6241340D02*
Y6245280D01*
X5117090Y6241340D02*
Y6245280D01*
X5207910Y6241340D02*
Y6245280D01*
X5322090Y6241340D02*
Y6245280D01*
X4797910Y6241340D02*
Y6245280D01*
X4912090Y6241340D02*
Y6245280D01*
X7692090Y6471340D02*
Y6475280D01*
X7577910Y6471340D02*
Y6475280D01*
G54D12*
X326400Y6515810D02*
Y6520810D01*
X273600Y6515810D02*
Y6520810D01*
G54D15*
X417440Y6363310D03*
Y6063310D03*
X172560D03*
Y6363310D03*
G54D16*
X3629620Y6388520D02*
X3691620D01*
X3629620Y6408200D02*
X3691620D01*
X3629620Y6427890D02*
X3691620D01*
X3629620Y6447570D02*
X3691620D01*
X3629620Y6467260D02*
X3691620D01*
X3629620Y6486940D02*
X3691620D01*
X3629620Y6506630D02*
X3691620D01*
X3629620Y6211350D02*
X3691620D01*
X3629620Y6231040D02*
X3691620D01*
X3629620Y6250720D02*
X3691620D01*
X3629620Y6270410D02*
X3691620D01*
X3629620Y6290090D02*
X3691620D01*
X3629620Y6309780D02*
X3691620D01*
X3629620Y6329460D02*
X3691620D01*
X3188680Y6506630D02*
X3250680D01*
X3188680Y6486940D02*
X3250680D01*
X3188680Y6467260D02*
X3250680D01*
X3188680Y6447570D02*
X3250680D01*
X3188680Y6427890D02*
X3250680D01*
X3188680Y6408200D02*
X3250680D01*
X3188680Y6388520D02*
X3250680D01*
X3188680Y6329460D02*
X3250680D01*
X3188680Y6309780D02*
X3250680D01*
X3188680Y6290090D02*
X3250680D01*
X3188680Y6270410D02*
X3250680D01*
X3188680Y6250720D02*
X3250680D01*
X3188680Y6231040D02*
X3250680D01*
X3188680Y6211350D02*
X3250680D01*
X3629620Y6349150D02*
X3691620D01*
X3629620Y6368830D02*
X3691620D01*
X3188680D02*
X3250680D01*
X3188680Y6349150D02*
X3250680D01*
X3587790Y6548460D02*
Y6610460D01*
X3568100Y6548460D02*
Y6610460D01*
X3548420Y6548460D02*
Y6610460D01*
X3528730Y6548460D02*
Y6610460D01*
X3509050Y6548460D02*
Y6610460D01*
X3489360Y6548460D02*
Y6610460D01*
X3469680Y6548460D02*
Y6610460D01*
Y6107520D02*
Y6169520D01*
X3489360Y6107520D02*
Y6169520D01*
X3509050Y6107520D02*
Y6169520D01*
X3528730Y6107520D02*
Y6169520D01*
X3548420Y6107520D02*
Y6169520D01*
X3568100Y6107520D02*
Y6169520D01*
X3587790Y6107520D02*
Y6169520D01*
X3410620Y6548460D02*
Y6610460D01*
X3390940Y6548460D02*
Y6610460D01*
X3371250Y6548460D02*
Y6610460D01*
X3351570Y6548460D02*
Y6610460D01*
X3331880Y6548460D02*
Y6610460D01*
X3312200Y6548460D02*
Y6610460D01*
X3292510Y6548460D02*
Y6610460D01*
Y6107520D02*
Y6169520D01*
X3312200Y6107520D02*
Y6169520D01*
X3331880Y6107520D02*
Y6169520D01*
X3351570Y6107520D02*
Y6169520D01*
X3371250Y6107520D02*
Y6169520D01*
X3390940Y6107520D02*
Y6169520D01*
X3410620Y6107520D02*
Y6169520D01*
X3449990Y6548460D02*
Y6610460D01*
X3430310Y6548460D02*
Y6610460D01*
Y6107520D02*
Y6169520D01*
X3449990Y6107520D02*
Y6169520D01*
G54D17*
X630000Y6645360D02*
X650000D01*
X630000Y6480000D02*
X650000D01*
G54D18*
X425000Y6572310D02*
Y6654310D01*
G54D19*
X487500Y6613310D03*
X362500D03*
G54D18*
X6724250Y6037060D02*
X6763250D01*
X6724250Y5937060D02*
X6763250D01*
X6724250Y5987060D02*
X6763250D01*
X6524250Y5937060D02*
X6563250D01*
X6524250Y5987060D02*
X6563250D01*
X6724250Y6087060D02*
X6763250D01*
X6524250Y6037060D02*
X6563250D01*
X6524250Y6087060D02*
X6563250D01*
G54D20*
X3058900Y6439000D02*
Y6578000D01*
Y6064980D02*
Y6203980D01*
G54D21*
X10816535Y5855510D02*
X10970085D01*
X10816535Y5717720D02*
X10970085D01*
X10816535Y5993310D02*
X10970085D01*
X10816535Y6131110D02*
X10970085D01*
X10816535Y6268900D02*
X10970085D01*
G54D22*
X1012910Y6522810D02*
Y6538810D01*
X1127090Y6522810D02*
Y6538810D01*
G54D23*
X1226400Y6640850D02*
Y6770770D01*
X1088600Y6640850D02*
Y6770770D01*
G54D18*
X1320000Y6789070D02*
Y6815070D01*
Y6696550D02*
Y6722550D01*
X1451250Y6538010D02*
Y6558010D01*
Y6628590D02*
Y6648590D01*
X1488650Y6538030D02*
Y6558030D01*
X1413850Y6538030D02*
Y6558030D01*
X1488650Y6628590D02*
Y6648590D01*
X1413850Y6628590D02*
Y6648590D01*
G54D24*
X8269290Y4075520D03*
X5469290D03*
X868210Y4735490D03*
G54D25*
X8330710Y4272370D03*
X5530710D03*
X806790Y4538640D03*
G54D26*
X259050Y5019690D03*
X140950D03*
Y4901580D03*
Y5728350D03*
X259050D03*
Y5846460D03*
G54D27*
X4950000Y6664180D03*
X5050000Y6564180D03*
Y6664180D03*
X5150000Y6564180D03*
Y6664180D03*
X5250000Y6564180D03*
Y6664180D03*
X5350000Y6564180D03*
Y6664180D03*
X5450000Y6564180D03*
Y6664180D03*
X5550000Y6564180D03*
Y6664180D03*
X5650000Y6564180D03*
Y6664180D03*
X5750000Y6564180D03*
Y6664180D03*
X5850000Y6564180D03*
Y6664180D03*
X5950000Y6564180D03*
Y6664180D03*
X6050000Y6564180D03*
Y6664180D03*
X6150000Y6564180D03*
Y6664180D03*
G54D21*
X259050Y4901580D03*
X140950Y5846460D03*
G54D28*
X4950000Y6564180D03*
G54D23*
X9552360Y5484250D03*
X7352360D03*
X2152360D03*
X2752360Y5486030D03*
X3352360Y5484250D03*
X3952360D03*
X4552360D03*
X5152360D03*
X6152360D03*
X6752360D03*
X8952360D03*
X7952360D03*
G54D29*
X9847640D03*
X9552360Y4500000D03*
X9847640D03*
Y4893700D03*
Y4696850D03*
X9552360Y4893700D03*
Y4696850D03*
X7647640Y5484250D03*
X7352360Y4500000D03*
X7647640D03*
Y4893700D03*
Y4696850D03*
X7352360Y4893700D03*
Y4696850D03*
X2447640Y5484250D03*
X2152360Y4500000D03*
X2447640D03*
Y4893700D03*
Y4696850D03*
X2152360Y4893700D03*
Y4696850D03*
X3047640Y5486030D03*
X2752360Y4501780D03*
X3047640D03*
Y4895480D03*
Y4698630D03*
X2752360Y4895480D03*
Y4698630D03*
X3647640Y5484250D03*
X3352360Y4500000D03*
X3647640D03*
Y4893700D03*
Y4696850D03*
X3352360Y4893700D03*
Y4696850D03*
X4247640Y5484250D03*
X3952360Y4500000D03*
X4247640D03*
Y4893700D03*
Y4696850D03*
X3952360Y4893700D03*
Y4696850D03*
X4847640Y5484250D03*
X4552360Y4500000D03*
X4847640D03*
Y4893700D03*
Y4696850D03*
X4552360Y4893700D03*
Y4696850D03*
X5447640Y5484250D03*
X5152360Y4500000D03*
X5447640D03*
Y4893700D03*
Y4696850D03*
X5152360Y4893700D03*
Y4696850D03*
X6447640Y5484250D03*
X6152360Y4500000D03*
X6447640D03*
Y4893700D03*
Y4696850D03*
X6152360Y4893700D03*
Y4696850D03*
X7047640Y5484250D03*
X6752360Y4500000D03*
X7047640D03*
Y4893700D03*
Y4696850D03*
X6752360Y4893700D03*
Y4696850D03*
X9247640Y5484250D03*
X8952360Y4500000D03*
X9247640D03*
Y4893700D03*
Y4696850D03*
X8952360Y4893700D03*
Y4696850D03*
X8247640Y5484250D03*
X7952360Y4500000D03*
X8247640D03*
Y4893700D03*
Y4696850D03*
X7952360Y4893700D03*
Y4696850D03*
G54D30*
X10647240Y5023630D03*
Y4629920D03*
Y4826780D03*
X1447240Y5023630D03*
Y4629920D03*
Y4826780D03*
X1847240Y5023630D03*
Y4629920D03*
Y4826780D03*
X10247240Y5023630D03*
Y4629920D03*
Y4826780D03*
X647240Y5023630D03*
Y4629920D03*
Y4826780D03*
G54D31*
X10647240Y5460630D03*
X1447240D03*
X1847240D03*
X10247240D03*
X647240D03*
G54D32*
X10647240Y5608270D03*
X1447240D03*
X1847240D03*
X10247240D03*
X647240D03*
G54D33*
X2137790Y3899610D03*
Y3599610D03*
X537800Y3899610D03*
Y3599610D03*
X6437790Y3899610D03*
Y3599610D03*
X6137800Y4293310D03*
Y3993310D03*
X8937800Y4293310D03*
Y3993310D03*
X10137800Y4293310D03*
Y3993310D03*
X10537790Y4293310D03*
Y3993310D03*
X3637800Y3899610D03*
Y3599610D03*
X4237790Y3899610D03*
Y3599610D03*
X4837790Y3899610D03*
Y3599610D03*
X7037800Y3899610D03*
Y3599610D03*
X7637800Y3899610D03*
Y3599610D03*
X9237800Y3899610D03*
Y3599610D03*
X10737800Y3899610D03*
Y3599610D03*
X8537790Y4293310D03*
Y3993310D03*
X937800Y4293310D03*
Y3993310D03*
X2137790Y4293310D03*
Y3993310D03*
X1537800Y3899610D03*
Y3599610D03*
X2437800Y3899610D03*
Y3599610D03*
X3037790Y3899610D03*
Y3599610D03*
X1337790Y4293310D03*
Y3993310D03*
X537800Y4293310D03*
Y3993310D03*
X6137800Y3899610D03*
Y3599610D03*
X8237800Y3899610D03*
Y3599610D03*
X8937800Y3899610D03*
Y3599610D03*
X9837790Y3899610D03*
Y3599610D03*
X5937790Y3899610D03*
Y3599610D03*
X8537790Y3899610D03*
Y3599610D03*
X8737800Y3899610D03*
Y3599610D03*
X10137800Y3899610D03*
Y3599610D03*
X10337790Y3899610D03*
Y3599610D03*
X10537790Y3899610D03*
Y3599610D03*
X737790Y3899610D03*
Y3599610D03*
X937800Y3899610D03*
Y3599610D03*
X1137800Y3899610D03*
Y3599610D03*
X1937800Y3899610D03*
Y3599610D03*
X1337790Y3899610D03*
Y3599610D03*
X5737790Y4293310D03*
Y3993310D03*
X5437790Y3899610D03*
Y3599610D03*
X5737790Y3899610D03*
Y3599610D03*
G54D34*
X931250Y6380810D03*
X1530000Y6893310D03*
X640000Y6403310D03*
X560000Y6477680D03*
X170000Y5968310D03*
G54D35*
X344160Y6694150D03*
X275000Y6853310D03*
X1370000Y6753310D03*
X1060000Y6368310D03*
X1001250Y6430810D03*
X1470000Y6487060D03*
X1637500Y6880810D03*
X1695000Y6573310D03*
X1745000Y6663310D03*
X1645000D03*
X1690000Y6753310D03*
X6600000Y6428310D03*
X8050000Y6678310D03*
X7825000D03*
X7750000Y6603310D03*
X7345000Y6538310D03*
X7595000Y6548310D03*
X6540000Y6138310D03*
Y6193310D03*
X8645000Y6328310D03*
X8695000D03*
X9005000Y6418310D03*
X3725000Y6618310D03*
X3445000Y6648310D03*
X3415150Y6688520D03*
X3820000Y6378310D03*
X3850000Y6428310D03*
X3920000Y6378310D03*
X3270000Y6048310D03*
X3340000Y6073310D03*
X3310000Y6008310D03*
X505000Y6738940D03*
X270000Y6468310D03*
X225000Y6518310D03*
X1815000Y6178310D03*
X1535000D03*
X2835000Y6473310D03*
X10500000Y6908310D03*
X10600000D03*
X10700000D03*
X10800000D03*
X10115000D03*
X10215000D03*
X10315000D03*
X10415000D03*
X10030000D03*
X9930000D03*
X9830000D03*
X9730000D03*
X9630000D03*
X9530000D03*
X9430000D03*
X9330000D03*
X9230000D03*
X9130000D03*
X9030000D03*
X8930000D03*
X8830000D03*
X8730000D03*
X8630000D03*
X8530000D03*
X8430000D03*
X8330000D03*
X8230000D03*
X8130000D03*
X8030000D03*
X7930000D03*
X7830000D03*
X7730000D03*
X7630000D03*
X7530000D03*
X7430000D03*
X7330000D03*
X7230000D03*
X7130000D03*
X7030000D03*
X6930000D03*
X6830000D03*
X6730000D03*
X6630000D03*
X6530000D03*
X6430000D03*
X6330000D03*
X6230000D03*
X6130000D03*
X6030000D03*
X5930000D03*
X5830000D03*
X5730000D03*
X5630000D03*
X5530000D03*
X5430000D03*
X5330000D03*
X5230000D03*
X5130000D03*
X6315000Y6143310D03*
X4145000Y5903310D03*
X4030000Y5913310D03*
X4075000Y5943310D03*
X3985000Y5958310D03*
X3940000Y6003310D03*
X3365000Y6813310D03*
X3260000Y6738310D03*
X3255000Y6673310D03*
X3265000Y6603310D03*
X3330000Y6483310D03*
X3510000Y6328310D03*
X3435000Y6323310D03*
X506250Y5918310D03*
X2489000Y5810940D03*
X3090000Y5809560D03*
X3687500Y5812060D03*
X2930000Y6603310D03*
X3255000Y6168310D03*
X3395000Y6053310D03*
X3815000D03*
X3635000D03*
X3530000Y6228310D03*
X3595000Y6418310D03*
X3735000Y6183310D03*
X3790000D03*
X3855000D03*
X3405000Y6258310D03*
X3345000D03*
X3535000Y6648310D03*
X3315000Y6313310D03*
X3340000Y6358310D03*
X3385000Y6378310D03*
Y6428310D03*
X3155000Y6418310D03*
X5970000Y6148310D03*
X4810000Y6293310D03*
X4625000Y5873310D03*
X4535000Y5918310D03*
X4445000D03*
X4265000Y6078310D03*
X4535000Y6123310D03*
X4445000D03*
X4265000Y6283310D03*
X4445000Y6328310D03*
X4265000Y6488310D03*
X4445000Y6533310D03*
X4265000Y6693310D03*
X4445000Y6738310D03*
X5005000Y6298310D03*
X5415000Y6293310D03*
X5210000D03*
X4795000Y6153310D03*
Y6063310D03*
X4955000Y5883310D03*
X5000000Y6153310D03*
Y5883310D03*
Y6063310D03*
X5160000Y5883310D03*
X5205000Y6153310D03*
Y5883310D03*
Y6063310D03*
X5365000Y5883310D03*
X5410000Y6153310D03*
Y5883310D03*
Y6063310D03*
X5570000Y5883310D03*
X7270000Y6473310D03*
X7225000Y6293310D03*
X7065000Y6113310D03*
X7505000Y6473310D03*
X7460000Y6293310D03*
X7740000Y6472680D03*
X7695000Y6292680D03*
X7975000Y6613310D03*
X7930000Y6433310D03*
X7770000Y6253310D03*
X8210000Y6613310D03*
X8165000Y6433310D03*
X8005000Y6253310D03*
X8445000Y6613310D03*
X8400000Y6433310D03*
X8240000Y6253310D03*
X8915000Y6613310D03*
X8870000Y6253310D03*
Y6433310D03*
X8710000Y6253310D03*
X8475000D03*
X8635000Y6433310D03*
X8680000Y6613310D03*
X6130000Y6103310D03*
X1320250Y5882310D03*
X6428120Y5762060D03*
X706250Y5362060D03*
X1450000D03*
X1781250D03*
X2156250D03*
X2450000D03*
X2756250Y5363830D03*
X3050000D03*
X3356250Y5362060D03*
X3650000D03*
X3956250D03*
X4250000D03*
X4556250D03*
X4850000D03*
X5156250D03*
X5450000D03*
X6156250D03*
X6450000D03*
X6756250D03*
X7050000D03*
X7356250D03*
X7650000D03*
X8250000D03*
X7956250D03*
X1931250Y6212060D03*
X1706250Y6180810D03*
X5143750Y5824560D03*
X1563000Y6102310D03*
X1624000Y5980310D03*
X7350000Y6053310D03*
X7143750Y6037060D03*
X1156250Y6355810D03*
X3131650Y6267240D03*
X10775000Y6443310D03*
X513750Y6855190D03*
X3196400Y6565240D03*
X3190150Y6746490D03*
X10737500Y5855810D03*
X9506250Y6419560D03*
X470000Y5363940D03*
X8268750Y5987060D03*
X4100000Y6908310D03*
X256250Y6955810D03*
X9325000Y6619560D03*
X9525000Y6588310D03*
X9306250Y6482060D03*
X9687500Y6432060D03*
X9981250Y6655810D03*
X10385000Y6008940D03*
X10375000Y5849560D03*
X10830000Y6763940D03*
X4350000Y5649560D03*
Y5768310D03*
X4150000D03*
X3787500Y5649560D03*
X4100000Y5629310D03*
X3500000Y5630810D03*
X3193750Y5649560D03*
X2900000Y5630810D03*
X2587500Y5762060D03*
Y5643310D03*
X2300000Y5630810D03*
X2362500Y5780810D03*
X2206250Y5818310D03*
X3493750Y5480810D03*
X4093750Y5543310D03*
X2900000Y5487060D03*
X2293750Y5493310D03*
X2285000Y6888940D03*
X10045000Y6168940D03*
X5010000Y6908310D03*
X2581250Y6905810D03*
X2025000Y6880810D03*
X4680000Y6908310D03*
X10012500Y5549560D03*
X10406250Y5537060D03*
Y5693310D03*
X2000000Y5705810D03*
X1987500Y5474560D03*
X1990000Y5653940D03*
X1731250Y5474560D03*
X1612500Y5637060D03*
X3212500Y5480810D03*
X3800000Y5487060D03*
X4400000Y5493310D03*
X11050000Y5368310D03*
Y6568310D03*
X6481250Y5986440D03*
X3449990Y6061650D03*
X3452650Y5883990D03*
X3152650Y6227740D03*
X3146400Y6308990D03*
X10637500Y6224560D03*
X10712500Y6368310D03*
X3127650Y6527740D03*
X3125000Y6468310D03*
X3033900Y6277740D03*
X3096400Y6340240D03*
X2985650Y6144490D03*
X3115150Y6640240D03*
X2971400Y6496490D03*
X2977650Y6415240D03*
X3165150Y5983990D03*
X3127650Y6117240D03*
Y6046490D03*
X2637500Y5824560D03*
X3970000Y6908310D03*
X4870000D03*
X10450000Y6468310D03*
X10187500Y6249560D03*
X10387500Y6268310D03*
X10681250Y6080810D03*
X10562500Y6262060D03*
X10768750Y6493310D03*
X7012500Y6062060D03*
X6662500Y6074560D03*
X6600000Y5962060D03*
X10456250Y6380810D03*
X11050000Y5555810D03*
X10762500D03*
Y5362060D03*
X10406250D03*
X10081250D03*
X10193750Y6049560D03*
X3150000Y5799560D03*
X9012500Y5362060D03*
X9400000D03*
X9737500D03*
X4046000Y5762310D03*
X2246000D03*
X2846000D03*
X1525000Y5843310D03*
X1381250Y5780810D03*
X1668750D03*
X1887500Y5918310D03*
X1812500Y5843310D03*
X10068750Y5780810D03*
X10287500Y5918310D03*
X10212500Y5843310D03*
X10468750Y5780810D03*
X10687500Y5918310D03*
X10612500Y5843310D03*
X468750Y5780810D03*
X687500Y5918310D03*
X612500Y5843310D03*
X9108500Y5762310D03*
X9646000D03*
X8014750D03*
X7446000D03*
X6308500D03*
X5214750D03*
X4646000D03*
X3208900Y5983990D03*
X4888390Y5812060D03*
X6787500D03*
X1262500Y6012060D03*
X3050000Y5824560D03*
X2981250D03*
X3246400Y6546490D03*
X763750Y6905190D03*
Y6823940D03*
X1600000Y5918310D03*
X5982050Y6012060D03*
X6039800Y5882310D03*
X7387500Y5812060D03*
X8782050Y6012060D03*
X9050000Y5812060D03*
X4287500D03*
X8825000Y6124560D03*
X4793750Y5812060D03*
X5393750D03*
X2093750Y5705810D03*
X2693750D03*
X3293750D03*
X3893750D03*
X4493750D03*
X5062500D03*
X6156250D03*
X6693750D03*
X7293750D03*
X7862500D03*
X8956250D03*
X9493750D03*
X9274110Y5812060D03*
X9812500D03*
X6043750Y6068310D03*
X6250000Y5868310D03*
X7956250Y5812060D03*
X8839800Y5882310D03*
X4493750Y5649560D03*
X5000000Y5549560D03*
X3065150Y5996490D03*
X5640000Y5883310D03*
X5606250Y5999560D03*
X6237500Y5930810D03*
X6168750Y5818310D03*
X6362500Y5862060D03*
X6475000Y5868310D03*
X6756250Y5849560D03*
X6631250Y5762060D03*
X6806250Y6074560D03*
X7156250Y5905810D03*
X7256250Y5937060D03*
X7431250Y5812060D03*
X7200000Y5755810D03*
Y5587060D03*
X6600000Y5605810D03*
X7800000Y5487060D03*
Y5662060D03*
Y5768310D03*
X8381250Y5855810D03*
X8706250Y6149560D03*
X8962500Y6124560D03*
X9043750Y6137060D03*
X9525000Y5862060D03*
X9200000Y5818310D03*
X8881250Y5805810D03*
X9425000Y5749560D03*
X9400000Y5612060D03*
X10006250Y5874560D03*
X9431250Y6037060D03*
X9418750Y6130810D03*
X10631250Y6018310D03*
X9637500Y5862060D03*
X9225000Y5987060D03*
X10481250Y6149560D03*
X10775000Y6387060D03*
X8162500Y5918310D03*
X8275000Y6149560D03*
X8031250Y6049560D03*
X7868750Y6149560D03*
X7618750Y5912060D03*
X7515000Y6033310D03*
X7887500Y5930810D03*
X8118750Y5818310D03*
X7556250Y5768310D03*
X6662500Y5849560D03*
X6081250Y5830810D03*
X7712500Y6037060D03*
X7418750Y5968310D03*
X9856250Y6030810D03*
X9812500Y6155810D03*
X9993750Y5724560D03*
X8456250Y6149560D03*
X8368750Y6068310D03*
X5675000Y6012060D03*
X955450D03*
X8475000D03*
X6956250Y5899560D03*
Y5980810D03*
X6841620Y5762310D03*
X6839060Y5829250D03*
X4465000Y6908310D03*
X4680000Y6743310D03*
Y6538310D03*
Y6353310D03*
X4675000Y6128310D03*
X6605000Y6138310D03*
X6695000Y6178310D03*
X6785000D03*
X6965000D03*
Y6348310D03*
X6050000Y6263310D03*
X5635000Y6103310D03*
X5725000Y6143310D03*
X5815000D03*
X6480000Y6313310D03*
X6250000Y6143310D03*
X9580000Y5863310D03*
X10106250Y5918310D03*
X10506250D03*
X10737500Y5680810D03*
X10718160Y6268900D03*
X10518750Y6368310D03*
X10581250Y6418310D03*
X7930000Y6253310D03*
X7695000Y6112680D03*
X7460000Y6113310D03*
X8165000Y6253310D03*
X8400000D03*
X8635000D03*
X6450000Y5937060D03*
X6436750Y6037060D03*
X6055000Y6183310D03*
X3545000Y5888310D03*
X3635000D03*
X3725000D03*
X3815000D03*
X3480000Y6808310D03*
X4270000Y6908310D03*
X4790000Y5903310D03*
X7250000Y6353310D03*
X7485000D03*
X7720000D03*
X7980000Y6328310D03*
X8215000D03*
X8450000D03*
X8920000D03*
X2705000Y6508310D03*
X9020000Y6013310D03*
X3755000Y6398310D03*
X3950000Y6528310D03*
X4130000D03*
X4115000Y6333310D03*
X3960000D03*
X4375000Y5883310D03*
X3360000D03*
X3285000Y6408310D03*
X3430000Y6203310D03*
X7290000Y6113310D03*
X7230000D03*
X7530000D03*
X3515000Y6718310D03*
X3570000Y6813310D03*
X3665150Y6738160D03*
X3290000Y6513310D03*
X3390000Y6503310D03*
X3445000Y6508310D03*
X3500000Y6513310D03*
X3555000Y6348310D03*
X8985000Y6818310D03*
X9085000D03*
X9185000D03*
X9285000D03*
X9385000D03*
X9485000D03*
X9585000D03*
X9685000D03*
X9785000D03*
X9885000D03*
X9985000D03*
X10370000D03*
X10270000D03*
X10170000D03*
X10070000D03*
X10755000D03*
X10655000D03*
X10555000D03*
X10455000D03*
X9035000Y6728310D03*
X9135000D03*
X9235000D03*
X9335000D03*
X9435000D03*
X9535000D03*
X9635000D03*
X9735000D03*
X9835000D03*
X9935000D03*
X10035000D03*
X10420000D03*
X10320000D03*
X10220000D03*
X10120000D03*
X10805000D03*
X10705000D03*
X10605000D03*
X10505000D03*
X2095000Y6573310D03*
X1995000D03*
X1895000D03*
X1795000D03*
X2045000Y6663310D03*
X1945000D03*
X1845000D03*
X1790000Y6753310D03*
X1890000D03*
X1990000D03*
X2090000D03*
X4055000Y6478310D03*
X4065000Y6388310D03*
X3550000Y5763310D03*
X425000Y6688310D03*
X445000Y6538310D03*
G54D36*
X5862500Y5003770D03*
Y4755810D03*
X1142950D03*
Y5003770D03*
X8662500D03*
Y4755810D03*
G54D37*
X10785200Y5788590D02*
X10780829Y5788099D01*
X10776676Y5786649D01*
X10772949Y5784313D01*
X10769833Y5781208D01*
X10767485Y5777489D01*
X10766021Y5773341D01*
X10765515Y5768972D01*
X10765992Y5764599D01*
X10767427Y5760441D01*
X10769750Y5756706D01*
X10772845Y5753580D01*
X10776556Y5751219D01*
X10780699Y5749741D01*
X10785066Y5749220D01*
X10785200Y5749220D01*
X0Y3503940D02*
X11100000D01*
Y5749220D01*
X10785200D02*
X11100000D01*
X10785200D03*
Y5788590D02*
X11100000D01*
Y7007880D01*
X0D02*
X11100000D01*
X0Y3503940D02*
Y7007880D01*
G54D38*
X22840Y5056700D03*
X377160D03*
Y5691340D03*
X22840D03*
G54D39*
X11000000Y3761420D03*
X100000D03*
X11000000Y6750400D03*
X100000D03*
G54D40*
X11000000Y3603940D03*
X100000D03*
X11000000Y6907880D03*
X100000D03*
G54D41*
X8597500Y4444890D02*
Y4610240D01*
X5799300Y4443090D02*
Y4608440D01*
X1077950Y4444890D02*
Y4610240D01*
Y5173230D02*
Y5299220D01*
Y5809060D02*
Y6057090D01*
X5799300Y5807260D02*
Y6055290D01*
Y5171440D02*
Y5297420D01*
X8597500Y5173230D02*
Y5299220D01*
Y5809060D02*
Y6057090D01*
G54D16*
X3629620Y6506630D02*
X3691620D01*
X3629620Y6211350D02*
X3691620D01*
G54D42*
X3660620Y6251440D02*
Y6466539D01*
G54D16*
X3188680Y6211350D02*
X3250680D01*
X3188680Y6506630D02*
X3250680D01*
G54D42*
X3219680Y6251440D02*
Y6466539D01*
G54D16*
X3587790Y6107520D02*
Y6169520D01*
X3292510Y6107520D02*
Y6169520D01*
G54D42*
X3332600Y6138520D02*
X3547700D01*
G54D16*
X3292510Y6548460D02*
Y6610460D01*
X3587790Y6548460D02*
Y6610460D01*
G54D42*
X3332600Y6579460D02*
X3547700D01*
G36*
X11114310Y6339310D02*
Y5647310D01*
X10772310D01*
Y6339310D01*
X11114310D01*
G37*
%LPC*%
G75*
X11114310Y6339310D02*
G54D43*
X3550034Y6662901D02*
X3531687Y6669149D01*
%LPD*%
G75*
X3531687Y6669149D02*
G54D44*
X10785200Y5768905D02*
X11103372D01*
G54D10*
X4623030Y10040160D02*
X4626970D01*
X4623030Y10154340D02*
X4626970D01*
X6603030Y9690160D02*
X6606970D01*
X6603030Y9804340D02*
X6606970D01*
X6118030Y9655160D02*
X6121970D01*
X6118030Y9769340D02*
X6121970D01*
X5633030Y9655160D02*
X5636970D01*
X5633030Y9769340D02*
X5636970D01*
X4623030Y9630160D02*
X4626970D01*
X4623030Y9744340D02*
X4626970D01*
X4623030Y9425160D02*
X4626970D01*
X4623030Y9539340D02*
X4626970D01*
X4623030Y10245160D02*
X4626970D01*
X4623030Y10359340D02*
X4626970D01*
X4623030Y9835160D02*
X4626970D01*
X4623030Y9949340D02*
X4626970D01*
G36*
X10890945Y10097250D02*
G02X10950000Y10156305I59055J0D01*
G02X11009055Y10097250I0J-59055D01*
G02X10973001Y10042858I-59055J0D01*
G01X10972916Y10042944D01*
X10971514Y10044345D01*
G03X10961890Y10048340I-9624J-9596D01*
G01X10916904D01*
G02X10890945Y10097250I33096J48910D01*
G37*
G54D11*
X72500Y10107250D03*
X225000Y7347250D03*
G54D12*
X59340Y9690970D02*
G01X64340D01*
X59340Y9743770D02*
X64340D01*
X1317500Y10091000D02*
X1322500D01*
X1317500Y10143800D02*
X1322500D01*
X2882500Y10033650D02*
X2887500D01*
X2882500Y9980850D02*
X2887500D01*
X3206400Y9595580D02*
X3211400D01*
X3206400Y9542780D02*
X3211400D01*
X527500Y9690850D02*
X532500D01*
X527500Y9743650D02*
X532500D01*
G54D13*
X1413750Y9981310D02*
Y9987310D01*
X1452140Y9894690D02*
Y9900690D01*
X1375360Y9894690D02*
Y9900690D01*
X10675000Y10006310D02*
Y10012310D01*
X10713390Y9919690D02*
Y9925690D01*
X10636610Y9919690D02*
Y9925690D01*
X1575000Y9343810D02*
Y9349810D01*
X1613390Y9257190D02*
Y9263190D01*
X1536610Y9257190D02*
Y9263190D01*
X1431250Y9257190D02*
Y9263190D01*
X1392860Y9343810D02*
Y9349810D01*
X1469640Y9343810D02*
Y9349810D01*
X1862500Y9343810D02*
Y9349810D01*
X1900890Y9257190D02*
Y9263190D01*
X1824110Y9257190D02*
Y9263190D01*
X1718750Y9257190D02*
Y9263190D01*
X1680360Y9343810D02*
Y9349810D01*
X1757140Y9343810D02*
Y9349810D01*
X2300000Y9262560D02*
Y9268560D01*
X2338390Y9175940D02*
Y9181940D01*
X2261610Y9175940D02*
Y9181940D01*
X2450000Y9175940D02*
Y9181940D01*
X2411610Y9262560D02*
Y9268560D01*
X2488390Y9262560D02*
Y9268560D01*
X2150000Y9175940D02*
Y9181940D01*
X2111610Y9262560D02*
Y9268560D01*
X2188390Y9262560D02*
Y9268560D01*
X2900000Y9262560D02*
Y9268560D01*
X2938390Y9175940D02*
Y9181940D01*
X2861610Y9175940D02*
Y9181940D01*
X3050000Y9175940D02*
Y9181940D01*
X3011610Y9262560D02*
Y9268560D01*
X3088390Y9262560D02*
Y9268560D01*
X2750000Y9175940D02*
Y9181940D01*
X2711610Y9262560D02*
Y9268560D01*
X2788390Y9262560D02*
Y9268560D01*
X3650000Y9175940D02*
Y9181940D01*
X3611610Y9262560D02*
Y9268560D01*
X3688390Y9262560D02*
Y9268560D01*
X3350000Y9175940D02*
Y9181940D01*
X3311610Y9262560D02*
Y9268560D01*
X3388390Y9262560D02*
Y9268560D01*
X4100000Y9262560D02*
Y9268560D01*
X4138390Y9175940D02*
Y9181940D01*
X4061610Y9175940D02*
Y9181940D01*
X4250000Y9175940D02*
Y9181940D01*
X4211610Y9262560D02*
Y9268560D01*
X4288390Y9262560D02*
Y9268560D01*
X3950000Y9175940D02*
Y9181940D01*
X3911610Y9262560D02*
Y9268560D01*
X3988390Y9262560D02*
Y9268560D01*
X4700000Y9262560D02*
Y9268560D01*
X4738390Y9175940D02*
Y9181940D01*
X4661610Y9175940D02*
Y9181940D01*
X4850000Y9175940D02*
Y9181940D01*
X4811610Y9262560D02*
Y9268560D01*
X4888390Y9262560D02*
Y9268560D01*
X4550000Y9175940D02*
Y9181940D01*
X4511610Y9262560D02*
Y9268560D01*
X4588390Y9262560D02*
Y9268560D01*
X5268750Y9262560D02*
Y9268560D01*
X5307140Y9175940D02*
Y9181940D01*
X5230360Y9175940D02*
Y9181940D01*
X5418750Y9175940D02*
Y9181940D01*
X5380360Y9262560D02*
Y9268560D01*
X5457140Y9262560D02*
Y9268560D01*
X5118750Y9175940D02*
Y9181940D01*
X5080360Y9262560D02*
Y9268560D01*
X5157140Y9262560D02*
Y9268560D01*
X6362500Y9262560D02*
Y9268560D01*
X6400890Y9175940D02*
Y9181940D01*
X6324110Y9175940D02*
Y9181940D01*
X6900000Y9262560D02*
Y9268560D01*
X6938390Y9175940D02*
Y9181940D01*
X6861610Y9175940D02*
Y9181940D01*
X7500000Y9262560D02*
Y9268560D01*
X7538390Y9175940D02*
Y9181940D01*
X7461610Y9175940D02*
Y9181940D01*
X8068750Y9262560D02*
Y9268560D01*
X8107140Y9175940D02*
Y9181940D01*
X8030360Y9175940D02*
Y9181940D01*
X6512500Y9175940D02*
Y9181940D01*
X6474110Y9262560D02*
Y9268560D01*
X6550890Y9262560D02*
Y9268560D01*
X6212500Y9175940D02*
Y9181940D01*
X6174110Y9262560D02*
Y9268560D01*
X6250890Y9262560D02*
Y9268560D01*
X7050000Y9175940D02*
Y9181940D01*
X7011610Y9262560D02*
Y9268560D01*
X7088390Y9262560D02*
Y9268560D01*
X6750000Y9175940D02*
Y9181940D01*
X6711610Y9262560D02*
Y9268560D01*
X6788390Y9262560D02*
Y9268560D01*
X7650000Y9175940D02*
Y9181940D01*
X7611610Y9262560D02*
Y9268560D01*
X7688390Y9262560D02*
Y9268560D01*
X7350000Y9175940D02*
Y9181940D01*
X7311610Y9262560D02*
Y9268560D01*
X7388390Y9262560D02*
Y9268560D01*
X8218750Y9175940D02*
Y9181940D01*
X8180360Y9262560D02*
Y9268560D01*
X8257140Y9262560D02*
Y9268560D01*
X7918750Y9175940D02*
Y9181940D01*
X7880360Y9262560D02*
Y9268560D01*
X7957140Y9262560D02*
Y9268560D01*
X9162500Y9262560D02*
Y9268560D01*
X9200890Y9175940D02*
Y9181940D01*
X9124110Y9175940D02*
Y9181940D01*
X9700000Y9262560D02*
Y9268560D01*
X9738390Y9175940D02*
Y9181940D01*
X9661610Y9175940D02*
Y9181940D01*
X9312500Y9175940D02*
Y9181940D01*
X9274110Y9262560D02*
Y9268560D01*
X9350890Y9262560D02*
Y9268560D01*
X9012500Y9175940D02*
Y9181940D01*
X8974110Y9262560D02*
Y9268560D01*
X9050890Y9262560D02*
Y9268560D01*
X9850000Y9175940D02*
Y9181940D01*
X9811610Y9262560D02*
Y9268560D01*
X9888390Y9262560D02*
Y9268560D01*
X9550000Y9175940D02*
Y9181940D01*
X9511610Y9262560D02*
Y9268560D01*
X9588390Y9262560D02*
Y9268560D01*
X10262500Y9343810D02*
Y9349810D01*
X10300890Y9257190D02*
Y9263190D01*
X10224110Y9257190D02*
Y9263190D01*
X10662500Y9343810D02*
Y9349810D01*
X10700890Y9257190D02*
Y9263190D01*
X10624110Y9257190D02*
Y9263190D01*
X10118750Y9257190D02*
Y9263190D01*
X10080360Y9343810D02*
Y9349810D01*
X10157140Y9343810D02*
Y9349810D01*
X10518750Y9257190D02*
Y9263190D01*
X10480360Y9343810D02*
Y9349810D01*
X10557140Y9343810D02*
Y9349810D01*
X662500Y9343810D02*
Y9349810D01*
X700890Y9257190D02*
Y9263190D01*
X624110Y9257190D02*
Y9263190D01*
X518750Y9257190D02*
Y9263190D01*
X480360Y9343810D02*
Y9349810D01*
X557140Y9343810D02*
Y9349810D01*
X3500000Y9262560D02*
Y9268560D01*
X3538390Y9175940D02*
Y9181940D01*
X3461610Y9175940D02*
Y9181940D01*
G54D14*
X1534000Y10310250D02*
Y10324250D01*
X1606000Y10310250D02*
Y10324250D01*
X1446500Y10227750D02*
Y10241750D01*
X1518500Y10227750D02*
Y10241750D01*
X6898500Y9477750D02*
Y9491750D01*
X6826500Y9477750D02*
Y9491750D01*
X5044000Y9380250D02*
Y9394250D01*
X5116000Y9380250D02*
Y9394250D01*
X4839000Y9380250D02*
Y9394250D01*
X4911000Y9380250D02*
Y9394250D01*
X5249000Y9380250D02*
Y9394250D01*
X5321000Y9380250D02*
Y9394250D01*
X5454000Y9380250D02*
Y9394250D01*
X5526000Y9380250D02*
Y9394250D01*
X7181000Y9610250D02*
Y9624250D01*
X7109000Y9610250D02*
Y9624250D01*
X8826000Y9750250D02*
Y9764250D01*
X8754000Y9750250D02*
Y9764250D01*
X8591000Y9750250D02*
Y9764250D01*
X8519000Y9750250D02*
Y9764250D01*
X7416000Y9610250D02*
Y9624250D01*
X7344000Y9610250D02*
Y9624250D01*
X8356000Y9750250D02*
Y9764250D01*
X8284000Y9750250D02*
Y9764250D01*
X7651000Y9609620D02*
Y9623620D01*
X7579000Y9609620D02*
Y9623620D01*
X8121000Y9750250D02*
Y9764250D01*
X8049000Y9750250D02*
Y9764250D01*
X7886000Y9750250D02*
Y9764250D01*
X7814000Y9750250D02*
Y9764250D01*
X1390250Y10309000D02*
Y10323000D01*
X1462250Y10309000D02*
Y10323000D01*
X1131000Y9927750D02*
Y9941750D01*
X1059000Y9927750D02*
Y9941750D01*
X6314000Y9434000D02*
Y9448000D01*
X6386000Y9434000D02*
Y9448000D01*
X4839000Y9650250D02*
Y9664250D01*
X4911000Y9650250D02*
Y9664250D01*
X5044000Y9470250D02*
Y9484250D01*
X5116000Y9470250D02*
Y9484250D01*
X5249000Y9650250D02*
Y9664250D01*
X5321000Y9650250D02*
Y9664250D01*
X5044000Y9650250D02*
Y9664250D01*
X5116000Y9650250D02*
Y9664250D01*
X4839000Y9470250D02*
Y9484250D01*
X4911000Y9470250D02*
Y9484250D01*
X5249000Y9470250D02*
Y9484250D01*
X5321000Y9470250D02*
Y9484250D01*
X4911000Y9560250D02*
Y9574250D01*
X4839000Y9560250D02*
Y9574250D01*
X5321000Y9560250D02*
Y9574250D01*
X5249000Y9560250D02*
Y9574250D01*
X5454000Y9650250D02*
Y9664250D01*
X5526000Y9650250D02*
Y9664250D01*
X5454000Y9470250D02*
Y9484250D01*
X5526000Y9470250D02*
Y9484250D01*
Y9560250D02*
Y9574250D01*
X5454000Y9560250D02*
Y9574250D01*
X8826000Y10020250D02*
Y10034250D01*
X8754000Y10020250D02*
Y10034250D01*
X8591000Y10020250D02*
Y10034250D01*
X8519000Y10020250D02*
Y10034250D01*
X7416000Y9880250D02*
Y9894250D01*
X7344000Y9880250D02*
Y9894250D01*
X7181000Y9700250D02*
Y9714250D01*
X7109000Y9700250D02*
Y9714250D01*
X8826000Y9840250D02*
Y9854250D01*
X8754000Y9840250D02*
Y9854250D01*
X8591000Y9840250D02*
Y9854250D01*
X8519000Y9840250D02*
Y9854250D01*
X7109000Y9790250D02*
Y9804250D01*
X7181000Y9790250D02*
Y9804250D01*
X8754000Y9930250D02*
Y9944250D01*
X8826000Y9930250D02*
Y9944250D01*
X8519000Y9930250D02*
Y9944250D01*
X8591000Y9930250D02*
Y9944250D01*
X7344000Y9790250D02*
Y9804250D01*
X7416000Y9790250D02*
Y9804250D01*
X8356000Y10020250D02*
Y10034250D01*
X8284000Y10020250D02*
Y10034250D01*
X7651000Y9880250D02*
Y9894250D01*
X7579000Y9880250D02*
Y9894250D01*
X8121000Y10020250D02*
Y10034250D01*
X8049000Y10020250D02*
Y10034250D01*
X7886000Y10020250D02*
Y10034250D01*
X7814000Y10020250D02*
Y10034250D01*
X8356000Y9840250D02*
Y9854250D01*
X8284000Y9840250D02*
Y9854250D01*
X7651000Y9699620D02*
Y9713620D01*
X7579000Y9699620D02*
Y9713620D01*
X7886000Y9840250D02*
Y9854250D01*
X7814000Y9840250D02*
Y9854250D01*
X8284000Y9930250D02*
Y9944250D01*
X8356000Y9930250D02*
Y9944250D01*
X8049000Y9930250D02*
Y9944250D01*
X8121000Y9930250D02*
Y9944250D01*
X5116000Y9560250D02*
Y9574250D01*
X5044000Y9560250D02*
Y9574250D01*
X7814000Y9930250D02*
Y9944250D01*
X7886000Y9930250D02*
Y9944250D01*
X615250Y10402130D02*
Y10416130D01*
X687250Y10402130D02*
Y10416130D01*
X615250Y10320880D02*
Y10334880D01*
X687250Y10320880D02*
Y10334880D01*
X3041000Y10180250D02*
Y10194250D01*
X2969000Y10180250D02*
Y10194250D01*
X10904750Y9940250D02*
Y9954250D01*
X10832750Y9940250D02*
Y9954250D01*
X1470250Y9415250D02*
Y9429250D01*
X1542250Y9415250D02*
Y9429250D01*
X1757750Y9415250D02*
Y9429250D01*
X1829750Y9415250D02*
Y9429250D01*
X10157750Y9415250D02*
Y9429250D01*
X10229750Y9415250D02*
Y9429250D01*
X10557750Y9415250D02*
Y9429250D01*
X10629750Y9415250D02*
Y9429250D01*
X557750Y9415250D02*
Y9429250D01*
X629750Y9415250D02*
Y9429250D01*
X7181000Y9880250D02*
Y9894250D01*
X7109000Y9880250D02*
Y9894250D01*
X7416000Y9700250D02*
Y9714250D01*
X7344000Y9700250D02*
Y9714250D01*
X7579000Y9789620D02*
Y9803620D01*
X7651000Y9789620D02*
Y9803620D01*
X8121000Y9840250D02*
Y9854250D01*
X8049000Y9840250D02*
Y9854250D01*
X1213750Y9927750D02*
Y9941750D01*
X1285750Y9927750D02*
Y9941750D01*
X1527750Y9965250D02*
Y9979250D01*
X1599750Y9965250D02*
Y9979250D01*
X6826500Y9396500D02*
Y9410500D01*
X6898500Y9396500D02*
Y9410500D01*
X6314000Y9534000D02*
Y9548000D01*
X6386000Y9534000D02*
Y9548000D01*
G54D13*
X2798690Y10147250D02*
X2804690D01*
X2885310Y10185640D02*
X2891310D01*
X2885310Y10108860D02*
X2891310D01*
G54D14*
X8832800Y9444000D02*
X8846800D01*
X8832800Y9516000D02*
X8846800D01*
X6032800Y9444000D02*
X6046800D01*
X6032800Y9516000D02*
X6046800D01*
X1313250Y9444000D02*
X1327250D01*
X1313250Y9516000D02*
X1327250D01*
X4258000Y10081250D02*
X4272000D01*
X4258000Y10153250D02*
X4272000D01*
X4258000Y9876250D02*
X4272000D01*
X4258000Y9948250D02*
X4272000D01*
X4258000Y10286250D02*
X4272000D01*
X4258000Y10358250D02*
X4272000D01*
X4258000Y9466250D02*
X4272000D01*
X4258000Y9538250D02*
X4272000D01*
X6958000Y9731250D02*
X6972000D01*
X6958000Y9803250D02*
X6972000D01*
X4258000Y9671250D02*
X4272000D01*
X4258000Y9743250D02*
X4272000D01*
X5988000Y9696250D02*
X6002000D01*
X5988000Y9768250D02*
X6002000D01*
X6473000Y9696250D02*
X6487000D01*
X6473000Y9768250D02*
X6487000D01*
X3658150Y10120680D02*
X3672150D01*
X3658150Y10192680D02*
X3672150D01*
X3189400Y10126930D02*
X3203400D01*
X3189400Y10198930D02*
X3203400D01*
X3408150Y10245680D02*
X3422150D01*
X3408150Y10317680D02*
X3422150D01*
X3445650Y9511430D02*
X3459650D01*
X3445650Y9439430D02*
X3459650D01*
X3564400Y10195680D02*
X3578400D01*
X3564400Y10267680D02*
X3578400D01*
X3353000Y9436250D02*
X3367000D01*
X3353000Y9508250D02*
X3367000D01*
X3718000Y9513250D02*
X3732000D01*
X3718000Y9441250D02*
X3732000D01*
X3538000Y9513250D02*
X3552000D01*
X3538000Y9441250D02*
X3552000D01*
X4528000Y9671250D02*
X4542000D01*
X4528000Y9743250D02*
X4542000D01*
X4528000Y10081250D02*
X4542000D01*
X4528000Y10153250D02*
X4542000D01*
X4528000Y9876250D02*
X4542000D01*
X4528000Y9948250D02*
X4542000D01*
X4528000Y10286250D02*
X4542000D01*
X4528000Y10358250D02*
X4542000D01*
X4528000Y9466250D02*
X4542000D01*
X4528000Y9538250D02*
X4542000D01*
X4348000Y10081250D02*
X4362000D01*
X4348000Y10153250D02*
X4362000D01*
X4348000Y9876250D02*
X4362000D01*
X4348000Y9948250D02*
X4362000D01*
X4348000Y10286250D02*
X4362000D01*
X4348000Y10358250D02*
X4362000D01*
X4348000Y9466250D02*
X4362000D01*
X4348000Y9538250D02*
X4362000D01*
X6868000Y9731250D02*
X6882000D01*
X6868000Y9803250D02*
X6882000D01*
X4348000Y9671250D02*
X4362000D01*
X4348000Y9743250D02*
X4362000D01*
X4438000D02*
X4452000D01*
X4438000Y9671250D02*
X4452000D01*
X5718000Y9696250D02*
X5732000D01*
X5718000Y9768250D02*
X5732000D01*
X6203000Y9696250D02*
X6217000D01*
X6203000Y9768250D02*
X6217000D01*
X6688000Y9731250D02*
X6702000D01*
X6688000Y9803250D02*
X6702000D01*
X5898000Y9696250D02*
X5912000D01*
X5898000Y9768250D02*
X5912000D01*
X6383000Y9696250D02*
X6397000D01*
X6383000Y9768250D02*
X6397000D01*
X5808000D02*
X5822000D01*
X5808000Y9696250D02*
X5822000D01*
X6293000Y9768250D02*
X6307000D01*
X6293000Y9696250D02*
X6307000D01*
X4438000Y10153250D02*
X4452000D01*
X4438000Y10081250D02*
X4452000D01*
X4438000Y9948250D02*
X4452000D01*
X4438000Y9876250D02*
X4452000D01*
X4438000Y10358250D02*
X4452000D01*
X4438000Y10286250D02*
X4452000D01*
X4438000Y9538250D02*
X4452000D01*
X4438000Y9466250D02*
X4452000D01*
X6778000Y9803250D02*
X6792000D01*
X6778000Y9731250D02*
X6792000D01*
X10630500Y9780000D02*
X10644500D01*
X10630500Y9852000D02*
X10644500D01*
X3628000Y9441250D02*
X3642000D01*
X3628000Y9513250D02*
X3642000D01*
X3808000Y9441250D02*
X3822000D01*
X3808000Y9513250D02*
X3822000D01*
X1588000Y10055000D02*
X1602000D01*
X1588000Y10127000D02*
X1602000D01*
X10993000Y9996640D02*
X11007000D01*
X10993000Y9924640D02*
X11007000D01*
G54D10*
X458340Y10250910D02*
Y10254850D01*
X344160Y10250910D02*
Y10254850D01*
X458340Y10357160D02*
Y10361100D01*
X344160Y10357160D02*
Y10361100D01*
X7927090Y10115280D02*
Y10119220D01*
X7812910Y10115280D02*
Y10119220D01*
X8162090Y10115280D02*
Y10119220D01*
X8047910Y10115280D02*
Y10119220D01*
X8397090Y10115280D02*
Y10119220D01*
X8282910Y10115280D02*
Y10119220D01*
X7457090Y9975280D02*
Y9979220D01*
X7342910Y9975280D02*
Y9979220D01*
X8632090Y10115280D02*
Y10119220D01*
X8517910Y10115280D02*
Y10119220D01*
X8867090Y10115280D02*
Y10119220D01*
X8752910Y10115280D02*
Y10119220D01*
X7222090Y9975280D02*
Y9979220D01*
X7107910Y9975280D02*
Y9979220D01*
X5412910Y9745280D02*
Y9749220D01*
X5527090Y9745280D02*
Y9749220D01*
X5002910Y9745280D02*
Y9749220D01*
X5117090Y9745280D02*
Y9749220D01*
X5207910Y9745280D02*
Y9749220D01*
X5322090Y9745280D02*
Y9749220D01*
X4797910Y9745280D02*
Y9749220D01*
X4912090Y9745280D02*
Y9749220D01*
X7692090Y9975280D02*
Y9979220D01*
X7577910Y9975280D02*
Y9979220D01*
G54D12*
X326400Y10019750D02*
Y10024750D01*
X273600Y10019750D02*
Y10024750D01*
G54D15*
X417440Y9867250D03*
Y9567250D03*
X172560D03*
Y9867250D03*
G54D16*
X3629620Y9892460D02*
X3691620D01*
X3629620Y9912140D02*
X3691620D01*
X3629620Y9931830D02*
X3691620D01*
X3629620Y9951510D02*
X3691620D01*
X3629620Y9971200D02*
X3691620D01*
X3629620Y9990880D02*
X3691620D01*
X3629620Y10010570D02*
X3691620D01*
X3629620Y9715290D02*
X3691620D01*
X3629620Y9734980D02*
X3691620D01*
X3629620Y9754660D02*
X3691620D01*
X3629620Y9774350D02*
X3691620D01*
X3629620Y9794030D02*
X3691620D01*
X3629620Y9813720D02*
X3691620D01*
X3629620Y9833400D02*
X3691620D01*
X3188680Y10010570D02*
X3250680D01*
X3188680Y9990880D02*
X3250680D01*
X3188680Y9971200D02*
X3250680D01*
X3188680Y9951510D02*
X3250680D01*
X3188680Y9931830D02*
X3250680D01*
X3188680Y9912140D02*
X3250680D01*
X3188680Y9892460D02*
X3250680D01*
X3188680Y9833400D02*
X3250680D01*
X3188680Y9813720D02*
X3250680D01*
X3188680Y9794030D02*
X3250680D01*
X3188680Y9774350D02*
X3250680D01*
X3188680Y9754660D02*
X3250680D01*
X3188680Y9734980D02*
X3250680D01*
X3188680Y9715290D02*
X3250680D01*
X3629620Y9853090D02*
X3691620D01*
X3629620Y9872770D02*
X3691620D01*
X3188680D02*
X3250680D01*
X3188680Y9853090D02*
X3250680D01*
X3587790Y10052400D02*
Y10114400D01*
X3568100Y10052400D02*
Y10114400D01*
X3548420Y10052400D02*
Y10114400D01*
X3528730Y10052400D02*
Y10114400D01*
X3509050Y10052400D02*
Y10114400D01*
X3489360Y10052400D02*
Y10114400D01*
X3469680Y10052400D02*
Y10114400D01*
Y9611460D02*
Y9673460D01*
X3489360Y9611460D02*
Y9673460D01*
X3509050Y9611460D02*
Y9673460D01*
X3528730Y9611460D02*
Y9673460D01*
X3548420Y9611460D02*
Y9673460D01*
X3568100Y9611460D02*
Y9673460D01*
X3587790Y9611460D02*
Y9673460D01*
X3410620Y10052400D02*
Y10114400D01*
X3390940Y10052400D02*
Y10114400D01*
X3371250Y10052400D02*
Y10114400D01*
X3351570Y10052400D02*
Y10114400D01*
X3331880Y10052400D02*
Y10114400D01*
X3312200Y10052400D02*
Y10114400D01*
X3292510Y10052400D02*
Y10114400D01*
Y9611460D02*
Y9673460D01*
X3312200Y9611460D02*
Y9673460D01*
X3331880Y9611460D02*
Y9673460D01*
X3351570Y9611460D02*
Y9673460D01*
X3371250Y9611460D02*
Y9673460D01*
X3390940Y9611460D02*
Y9673460D01*
X3410620Y9611460D02*
Y9673460D01*
X3449990Y10052400D02*
Y10114400D01*
X3430310Y10052400D02*
Y10114400D01*
Y9611460D02*
Y9673460D01*
X3449990Y9611460D02*
Y9673460D01*
G54D17*
X630000Y10149300D02*
X650000D01*
X630000Y9983940D02*
X650000D01*
G54D18*
X425000Y10076250D02*
Y10158250D01*
G54D19*
X487500Y10117250D03*
X362500D03*
G54D18*
X6724250Y9541000D02*
X6763250D01*
X6724250Y9441000D02*
X6763250D01*
X6724250Y9491000D02*
X6763250D01*
X6524250Y9441000D02*
X6563250D01*
X6524250Y9491000D02*
X6563250D01*
X6724250Y9591000D02*
X6763250D01*
X6524250Y9541000D02*
X6563250D01*
X6524250Y9591000D02*
X6563250D01*
G54D20*
X3058900Y9942940D02*
Y10081940D01*
Y9568920D02*
Y9707920D01*
G54D21*
X10816535Y9359450D02*
X10970085D01*
X10816535Y9221660D02*
X10970085D01*
X10816535Y9497250D02*
X10970085D01*
X10816535Y9635050D02*
X10970085D01*
X10816535Y9772840D02*
X10970085D01*
G54D22*
X1012910Y10026750D02*
Y10042750D01*
X1127090Y10026750D02*
Y10042750D01*
G54D23*
X1226400Y10144790D02*
Y10274710D01*
X1088600Y10144790D02*
Y10274710D01*
G54D18*
X1320000Y10293010D02*
Y10319010D01*
Y10200490D02*
Y10226490D01*
X1451250Y10041950D02*
Y10061950D01*
Y10132530D02*
Y10152530D01*
X1488650Y10041970D02*
Y10061970D01*
X1413850Y10041970D02*
Y10061970D01*
X1488650Y10132530D02*
Y10152530D01*
X1413850Y10132530D02*
Y10152530D01*
G54D24*
X8269290Y7579460D03*
X5469290D03*
X868210Y8239430D03*
G54D25*
X8330710Y7776310D03*
X5530710D03*
X806790Y8042580D03*
G54D26*
X259050Y8523630D03*
X140950D03*
Y8405520D03*
Y9232290D03*
X259050D03*
Y9350400D03*
G54D27*
X4950000Y10168120D03*
X5050000Y10068120D03*
Y10168120D03*
X5150000Y10068120D03*
Y10168120D03*
X5250000Y10068120D03*
Y10168120D03*
X5350000Y10068120D03*
Y10168120D03*
X5450000Y10068120D03*
Y10168120D03*
X5550000Y10068120D03*
Y10168120D03*
X5650000Y10068120D03*
Y10168120D03*
X5750000Y10068120D03*
Y10168120D03*
X5850000Y10068120D03*
Y10168120D03*
X5950000Y10068120D03*
Y10168120D03*
X6050000Y10068120D03*
Y10168120D03*
X6150000Y10068120D03*
Y10168120D03*
G54D21*
X259050Y8405520D03*
X140950Y9350400D03*
G54D28*
X4950000Y10068120D03*
G54D23*
X9552360Y8988190D03*
X7352360D03*
X2152360D03*
X2752360Y8989970D03*
X3352360Y8988190D03*
X3952360D03*
X4552360D03*
X5152360D03*
X6152360D03*
X6752360D03*
X8952360D03*
X7952360D03*
G54D29*
X9847640D03*
X9552360Y8003940D03*
X9847640D03*
Y8397640D03*
Y8200790D03*
X9552360Y8397640D03*
Y8200790D03*
X7647640Y8988190D03*
X7352360Y8003940D03*
X7647640D03*
Y8397640D03*
Y8200790D03*
X7352360Y8397640D03*
Y8200790D03*
X2447640Y8988190D03*
X2152360Y8003940D03*
X2447640D03*
Y8397640D03*
Y8200790D03*
X2152360Y8397640D03*
Y8200790D03*
X3047640Y8989970D03*
X2752360Y8005720D03*
X3047640D03*
Y8399420D03*
Y8202570D03*
X2752360Y8399420D03*
Y8202570D03*
X3647640Y8988190D03*
X3352360Y8003940D03*
X3647640D03*
Y8397640D03*
Y8200790D03*
X3352360Y8397640D03*
Y8200790D03*
X4247640Y8988190D03*
X3952360Y8003940D03*
X4247640D03*
Y8397640D03*
Y8200790D03*
X3952360Y8397640D03*
Y8200790D03*
X4847640Y8988190D03*
X4552360Y8003940D03*
X4847640D03*
Y8397640D03*
Y8200790D03*
X4552360Y8397640D03*
Y8200790D03*
X5447640Y8988190D03*
X5152360Y8003940D03*
X5447640D03*
Y8397640D03*
Y8200790D03*
X5152360Y8397640D03*
Y8200790D03*
X6447640Y8988190D03*
X6152360Y8003940D03*
X6447640D03*
Y8397640D03*
Y8200790D03*
X6152360Y8397640D03*
Y8200790D03*
X7047640Y8988190D03*
X6752360Y8003940D03*
X7047640D03*
Y8397640D03*
Y8200790D03*
X6752360Y8397640D03*
Y8200790D03*
X9247640Y8988190D03*
X8952360Y8003940D03*
X9247640D03*
Y8397640D03*
Y8200790D03*
X8952360Y8397640D03*
Y8200790D03*
X8247640Y8988190D03*
X7952360Y8003940D03*
X8247640D03*
Y8397640D03*
Y8200790D03*
X7952360Y8397640D03*
Y8200790D03*
G54D30*
X10647240Y8527570D03*
Y8133860D03*
Y8330720D03*
X1447240Y8527570D03*
Y8133860D03*
Y8330720D03*
X1847240Y8527570D03*
Y8133860D03*
Y8330720D03*
X10247240Y8527570D03*
Y8133860D03*
Y8330720D03*
X647240Y8527570D03*
Y8133860D03*
Y8330720D03*
G54D31*
X10647240Y8964570D03*
X1447240D03*
X1847240D03*
X10247240D03*
X647240D03*
G54D32*
X10647240Y9112210D03*
X1447240D03*
X1847240D03*
X10247240D03*
X647240D03*
G54D33*
X2137790Y7403550D03*
Y7103550D03*
X537800Y7403550D03*
Y7103550D03*
X6437790Y7403550D03*
Y7103550D03*
X6137800Y7797250D03*
Y7497250D03*
X8937800Y7797250D03*
Y7497250D03*
X10137800Y7797250D03*
Y7497250D03*
X10537790Y7797250D03*
Y7497250D03*
X3637800Y7403550D03*
Y7103550D03*
X4237790Y7403550D03*
Y7103550D03*
X4837790Y7403550D03*
Y7103550D03*
X7037800Y7403550D03*
Y7103550D03*
X7637800Y7403550D03*
Y7103550D03*
X9237800Y7403550D03*
Y7103550D03*
X10737800Y7403550D03*
Y7103550D03*
X8537790Y7797250D03*
Y7497250D03*
X937800Y7797250D03*
Y7497250D03*
X2137790Y7797250D03*
Y7497250D03*
X1537800Y7403550D03*
Y7103550D03*
X2437800Y7403550D03*
Y7103550D03*
X3037790Y7403550D03*
Y7103550D03*
X1337790Y7797250D03*
Y7497250D03*
X537800Y7797250D03*
Y7497250D03*
X6137800Y7403550D03*
Y7103550D03*
X8237800Y7403550D03*
Y7103550D03*
X8937800Y7403550D03*
Y7103550D03*
X9837790Y7403550D03*
Y7103550D03*
X5937790Y7403550D03*
Y7103550D03*
X8537790Y7403550D03*
Y7103550D03*
X8737800Y7403550D03*
Y7103550D03*
X10137800Y7403550D03*
Y7103550D03*
X10337790Y7403550D03*
Y7103550D03*
X10537790Y7403550D03*
Y7103550D03*
X737790Y7403550D03*
Y7103550D03*
X937800Y7403550D03*
Y7103550D03*
X1137800Y7403550D03*
Y7103550D03*
X1937800Y7403550D03*
Y7103550D03*
X1337790Y7403550D03*
Y7103550D03*
X5737790Y7797250D03*
Y7497250D03*
X5437790Y7403550D03*
Y7103550D03*
X5737790Y7403550D03*
Y7103550D03*
G54D34*
X931250Y9884750D03*
X1530000Y10397250D03*
X640000Y9907250D03*
X560000Y9981620D03*
X170000Y9472250D03*
G54D35*
X344160Y10198090D03*
X275000Y10357250D03*
X1370000Y10257250D03*
X1060000Y9872250D03*
X1001250Y9934750D03*
X1470000Y9991000D03*
X1637500Y10384750D03*
X1695000Y10077250D03*
X1745000Y10167250D03*
X1645000D03*
X1690000Y10257250D03*
X6600000Y9932250D03*
X8050000Y10182250D03*
X7825000D03*
X7750000Y10107250D03*
X7345000Y10042250D03*
X7595000Y10052250D03*
X6540000Y9642250D03*
Y9697250D03*
X8645000Y9832250D03*
X8695000D03*
X9005000Y9922250D03*
X3725000Y10122250D03*
X3445000Y10152250D03*
X3415150Y10192460D03*
X3820000Y9882250D03*
X3850000Y9932250D03*
X3920000Y9882250D03*
X3270000Y9552250D03*
X3340000Y9577250D03*
X3310000Y9512250D03*
X505000Y10242880D03*
X270000Y9972250D03*
X225000Y10022250D03*
X1815000Y9682250D03*
X1535000D03*
X2835000Y9977250D03*
X10500000Y10412250D03*
X10600000D03*
X10700000D03*
X10800000D03*
X10115000D03*
X10215000D03*
X10315000D03*
X10415000D03*
X10030000D03*
X9930000D03*
X9830000D03*
X9730000D03*
X9630000D03*
X9530000D03*
X9430000D03*
X9330000D03*
X9230000D03*
X9130000D03*
X9030000D03*
X8930000D03*
X8830000D03*
X8730000D03*
X8630000D03*
X8530000D03*
X8430000D03*
X8330000D03*
X8230000D03*
X8130000D03*
X8030000D03*
X7930000D03*
X7830000D03*
X7730000D03*
X7630000D03*
X7530000D03*
X7430000D03*
X7330000D03*
X7230000D03*
X7130000D03*
X7030000D03*
X6930000D03*
X6830000D03*
X6730000D03*
X6630000D03*
X6530000D03*
X6430000D03*
X6330000D03*
X6230000D03*
X6130000D03*
X6030000D03*
X5930000D03*
X5830000D03*
X5730000D03*
X5630000D03*
X5530000D03*
X5430000D03*
X5330000D03*
X5230000D03*
X5130000D03*
X6315000Y9647250D03*
X4145000Y9407250D03*
X4030000Y9417250D03*
X4075000Y9447250D03*
X3985000Y9462250D03*
X3940000Y9507250D03*
X3365000Y10317250D03*
X3260000Y10242250D03*
X3255000Y10177250D03*
X3265000Y10107250D03*
X3330000Y9987250D03*
X3510000Y9832250D03*
X3435000Y9827250D03*
X506250Y9422250D03*
X2489000Y9314880D03*
X3090000Y9313500D03*
X3687500Y9316000D03*
X2930000Y10107250D03*
X3255000Y9672250D03*
X3395000Y9557250D03*
X3815000D03*
X3635000D03*
X3530000Y9732250D03*
X3595000Y9922250D03*
X3735000Y9687250D03*
X3790000D03*
X3855000D03*
X3405000Y9762250D03*
X3345000D03*
X3535000Y10152250D03*
X3315000Y9817250D03*
X3340000Y9862250D03*
X3385000Y9882250D03*
Y9932250D03*
X3155000Y9922250D03*
X5970000Y9652250D03*
X4810000Y9797250D03*
X4625000Y9377250D03*
X4535000Y9422250D03*
X4445000D03*
X4265000Y9582250D03*
X4535000Y9627250D03*
X4445000D03*
X4265000Y9787250D03*
X4445000Y9832250D03*
X4265000Y9992250D03*
X4445000Y10037250D03*
X4265000Y10197250D03*
X4445000Y10242250D03*
X5005000Y9802250D03*
X5415000Y9797250D03*
X5210000D03*
X4795000Y9657250D03*
Y9567250D03*
X4955000Y9387250D03*
X5000000Y9657250D03*
Y9387250D03*
Y9567250D03*
X5160000Y9387250D03*
X5205000Y9657250D03*
Y9387250D03*
Y9567250D03*
X5365000Y9387250D03*
X5410000Y9657250D03*
Y9387250D03*
Y9567250D03*
X5570000Y9387250D03*
X7270000Y9977250D03*
X7225000Y9797250D03*
X7065000Y9617250D03*
X7505000Y9977250D03*
X7460000Y9797250D03*
X7740000Y9976620D03*
X7695000Y9796620D03*
X7975000Y10117250D03*
X7930000Y9937250D03*
X7770000Y9757250D03*
X8210000Y10117250D03*
X8165000Y9937250D03*
X8005000Y9757250D03*
X8445000Y10117250D03*
X8400000Y9937250D03*
X8240000Y9757250D03*
X8915000Y10117250D03*
X8870000Y9757250D03*
Y9937250D03*
X8710000Y9757250D03*
X8475000D03*
X8635000Y9937250D03*
X8680000Y10117250D03*
X6130000Y9607250D03*
X1320250Y9386250D03*
X6428120Y9266000D03*
X706250Y8866000D03*
X1450000D03*
X1781250D03*
X2156250D03*
X2450000D03*
X2756250Y8867770D03*
X3050000D03*
X3356250Y8866000D03*
X3650000D03*
X3956250D03*
X4250000D03*
X4556250D03*
X4850000D03*
X5156250D03*
X5450000D03*
X6156250D03*
X6450000D03*
X6756250D03*
X7050000D03*
X7356250D03*
X7650000D03*
X8250000D03*
X7956250D03*
X1931250Y9716000D03*
X1706250Y9684750D03*
X5143750Y9328500D03*
X1563000Y9606250D03*
X1624000Y9484250D03*
X7350000Y9557250D03*
X7143750Y9541000D03*
X1156250Y9859750D03*
X3131650Y9771180D03*
X10775000Y9947250D03*
X513750Y10359130D03*
X3196400Y10069180D03*
X3190150Y10250430D03*
X10737500Y9359750D03*
X9506250Y9923500D03*
X470000Y8867880D03*
X8268750Y9491000D03*
X4100000Y10412250D03*
X256250Y10459750D03*
X9325000Y10123500D03*
X9525000Y10092250D03*
X9306250Y9986000D03*
X9687500Y9936000D03*
X9981250Y10159750D03*
X10385000Y9512880D03*
X10375000Y9353500D03*
X10830000Y10267880D03*
X4350000Y9153500D03*
Y9272250D03*
X4150000D03*
X3787500Y9153500D03*
X4100000Y9133250D03*
X3500000Y9134750D03*
X3193750Y9153500D03*
X2900000Y9134750D03*
X2587500Y9266000D03*
Y9147250D03*
X2300000Y9134750D03*
X2362500Y9284750D03*
X2206250Y9322250D03*
X3493750Y8984750D03*
X4093750Y9047250D03*
X2900000Y8991000D03*
X2293750Y8997250D03*
X2285000Y10392880D03*
X10045000Y9672880D03*
X5010000Y10412250D03*
X2581250Y10409750D03*
X2025000Y10384750D03*
X4680000Y10412250D03*
X10012500Y9053500D03*
X10406250Y9041000D03*
Y9197250D03*
X2000000Y9209750D03*
X1987500Y8978500D03*
X1990000Y9157880D03*
X1731250Y8978500D03*
X1612500Y9141000D03*
X3212500Y8984750D03*
X3800000Y8991000D03*
X4400000Y8997250D03*
X11050000Y8872250D03*
Y10072250D03*
X6481250Y9490380D03*
X3449990Y9565590D03*
X3452650Y9387930D03*
X3152650Y9731680D03*
X3146400Y9812930D03*
X10637500Y9728500D03*
X10712500Y9872250D03*
X3127650Y10031680D03*
X3125000Y9972250D03*
X3033900Y9781680D03*
X3096400Y9844180D03*
X2985650Y9648430D03*
X3115150Y10144180D03*
X2971400Y10000430D03*
X2977650Y9919180D03*
X3165150Y9487930D03*
X3127650Y9621180D03*
Y9550430D03*
X2637500Y9328500D03*
X3970000Y10412250D03*
X4870000D03*
X10450000Y9972250D03*
X10187500Y9753500D03*
X10387500Y9772250D03*
X10681250Y9584750D03*
X10562500Y9766000D03*
X10768750Y9997250D03*
X7012500Y9566000D03*
X6662500Y9578500D03*
X6600000Y9466000D03*
X10456250Y9884750D03*
X11050000Y9059750D03*
X10762500D03*
Y8866000D03*
X10406250D03*
X10081250D03*
X10193750Y9553500D03*
X3150000Y9303500D03*
X9012500Y8866000D03*
X9400000D03*
X9737500D03*
X4046000Y9266250D03*
X2246000D03*
X2846000D03*
X1525000Y9347250D03*
X1381250Y9284750D03*
X1668750D03*
X1887500Y9422250D03*
X1812500Y9347250D03*
X10068750Y9284750D03*
X10287500Y9422250D03*
X10212500Y9347250D03*
X10468750Y9284750D03*
X10687500Y9422250D03*
X10612500Y9347250D03*
X468750Y9284750D03*
X687500Y9422250D03*
X612500Y9347250D03*
X9108500Y9266250D03*
X9646000D03*
X8014750D03*
X7446000D03*
X6308500D03*
X5214750D03*
X4646000D03*
X3208900Y9487930D03*
X4888390Y9316000D03*
X6787500D03*
X1262500Y9516000D03*
X3050000Y9328500D03*
X2981250D03*
X3246400Y10050430D03*
X763750Y10409130D03*
Y10327880D03*
X1600000Y9422250D03*
X5982050Y9516000D03*
X6039800Y9386250D03*
X7387500Y9316000D03*
X8782050Y9516000D03*
X9050000Y9316000D03*
X4287500D03*
X8825000Y9628500D03*
X4793750Y9316000D03*
X5393750D03*
X2093750Y9209750D03*
X2693750D03*
X3293750D03*
X3893750D03*
X4493750D03*
X5062500D03*
X6156250D03*
X6693750D03*
X7293750D03*
X7862500D03*
X8956250D03*
X9493750D03*
X9274110Y9316000D03*
X9812500D03*
X6043750Y9572250D03*
X6250000Y9372250D03*
X7956250Y9316000D03*
X8839800Y9386250D03*
X4493750Y9153500D03*
X5000000Y9053500D03*
X3065150Y9500430D03*
X5640000Y9387250D03*
X5606250Y9503500D03*
X6237500Y9434750D03*
X6168750Y9322250D03*
X6362500Y9366000D03*
X6475000Y9372250D03*
X6756250Y9353500D03*
X6631250Y9266000D03*
X6806250Y9578500D03*
X7156250Y9409750D03*
X7256250Y9441000D03*
X7431250Y9316000D03*
X7200000Y9259750D03*
Y9091000D03*
X6600000Y9109750D03*
X7800000Y8991000D03*
Y9166000D03*
Y9272250D03*
X8381250Y9359750D03*
X8706250Y9653500D03*
X8962500Y9628500D03*
X9043750Y9641000D03*
X9525000Y9366000D03*
X9200000Y9322250D03*
X8881250Y9309750D03*
X9425000Y9253500D03*
X9400000Y9116000D03*
X10006250Y9378500D03*
X9431250Y9541000D03*
X9418750Y9634750D03*
X10631250Y9522250D03*
X9637500Y9366000D03*
X9225000Y9491000D03*
X10481250Y9653500D03*
X10775000Y9891000D03*
X8162500Y9422250D03*
X8275000Y9653500D03*
X8031250Y9553500D03*
X7868750Y9653500D03*
X7618750Y9416000D03*
X7515000Y9537250D03*
X7887500Y9434750D03*
X8118750Y9322250D03*
X7556250Y9272250D03*
X6662500Y9353500D03*
X6081250Y9334750D03*
X7712500Y9541000D03*
X7418750Y9472250D03*
X9856250Y9534750D03*
X9812500Y9659750D03*
X9993750Y9228500D03*
X8456250Y9653500D03*
X8368750Y9572250D03*
X5675000Y9516000D03*
X955450D03*
X8475000D03*
X6956250Y9403500D03*
Y9484750D03*
X6841620Y9266250D03*
X6839060Y9333190D03*
X4465000Y10412250D03*
X4680000Y10247250D03*
Y10042250D03*
Y9857250D03*
X4675000Y9632250D03*
X6605000Y9642250D03*
X6695000Y9682250D03*
X6785000D03*
X6965000D03*
Y9852250D03*
X6050000Y9767250D03*
X5635000Y9607250D03*
X5725000Y9647250D03*
X5815000D03*
X6480000Y9817250D03*
X6250000Y9647250D03*
X9580000Y9367250D03*
X10106250Y9422250D03*
X10506250D03*
X10737500Y9184750D03*
X10718160Y9772840D03*
X10518750Y9872250D03*
X10581250Y9922250D03*
X7930000Y9757250D03*
X7695000Y9616620D03*
X7460000Y9617250D03*
X8165000Y9757250D03*
X8400000D03*
X8635000D03*
X6450000Y9441000D03*
X6436750Y9541000D03*
X6055000Y9687250D03*
X3545000Y9392250D03*
X3635000D03*
X3725000D03*
X3815000D03*
X3480000Y10312250D03*
X4270000Y10412250D03*
X4790000Y9407250D03*
X7250000Y9857250D03*
X7485000D03*
X7720000D03*
X7980000Y9832250D03*
X8215000D03*
X8450000D03*
X8920000D03*
X2705000Y10012250D03*
X9020000Y9517250D03*
X3755000Y9902250D03*
X3950000Y10032250D03*
X4130000D03*
X4115000Y9837250D03*
X3960000D03*
X4375000Y9387250D03*
X3360000D03*
X3285000Y9912250D03*
X3430000Y9707250D03*
X7290000Y9617250D03*
X7230000D03*
X7530000D03*
X3515000Y10222250D03*
X3570000Y10317250D03*
X3665150Y10242100D03*
X3290000Y10017250D03*
X3390000Y10007250D03*
X3445000Y10012250D03*
X3500000Y10017250D03*
X3555000Y9852250D03*
X8985000Y10322250D03*
X9085000D03*
X9185000D03*
X9285000D03*
X9385000D03*
X9485000D03*
X9585000D03*
X9685000D03*
X9785000D03*
X9885000D03*
X9985000D03*
X10370000D03*
X10270000D03*
X10170000D03*
X10070000D03*
X10755000D03*
X10655000D03*
X10555000D03*
X10455000D03*
X9035000Y10232250D03*
X9135000D03*
X9235000D03*
X9335000D03*
X9435000D03*
X9535000D03*
X9635000D03*
X9735000D03*
X9835000D03*
X9935000D03*
X10035000D03*
X10420000D03*
X10320000D03*
X10220000D03*
X10120000D03*
X10805000D03*
X10705000D03*
X10605000D03*
X10505000D03*
X2095000Y10077250D03*
X1995000D03*
X1895000D03*
X1795000D03*
X2045000Y10167250D03*
X1945000D03*
X1845000D03*
X1790000Y10257250D03*
X1890000D03*
X1990000D03*
X2090000D03*
X4055000Y9982250D03*
X4065000Y9892250D03*
X3550000Y9267250D03*
X425000Y10192250D03*
X445000Y10042250D03*
G54D36*
X5862500Y8507710D03*
Y8259750D03*
X1142950D03*
Y8507710D03*
X8662500D03*
Y8259750D03*
G54D37*
X10785200Y9292530D02*
X10780829Y9292038D01*
X10776676Y9290589D01*
X10772949Y9288253D01*
X10769833Y9285148D01*
X10767485Y9281429D01*
X10766021Y9277281D01*
X10765515Y9272912D01*
X10765992Y9268539D01*
X10767427Y9264381D01*
X10769750Y9260646D01*
X10772845Y9257520D01*
X10776556Y9255159D01*
X10780699Y9253681D01*
X10785066Y9253160D01*
X10785200Y9253160D01*
X0Y7007880D02*
X11100000D01*
Y9253160D01*
X10785200D02*
X11100000D01*
X10785200D03*
Y9292530D02*
X11100000D01*
Y10511820D01*
X0D02*
X11100000D01*
X0Y7007880D02*
Y10511820D01*
G54D38*
X22840Y8560640D03*
X377160D03*
Y9195280D03*
X22840D03*
G54D39*
X11000000Y7265360D03*
X100000D03*
X11000000Y10254340D03*
X100000D03*
G54D40*
X11000000Y7107880D03*
X100000D03*
X11000000Y10411820D03*
X100000D03*
G54D41*
X8597500Y7948830D02*
Y8114180D01*
X5799300Y7947030D02*
Y8112380D01*
X1077950Y7948830D02*
Y8114180D01*
Y8677170D02*
Y8803160D01*
Y9313000D02*
Y9561030D01*
X5799300Y9311200D02*
Y9559230D01*
Y8675380D02*
Y8801360D01*
X8597500Y8677170D02*
Y8803160D01*
Y9313000D02*
Y9561030D01*
G54D16*
X3629620Y10010570D02*
X3691620D01*
X3629620Y9715290D02*
X3691620D01*
G54D42*
X3660620Y9755380D02*
Y9970479D01*
G54D16*
X3188680Y9715290D02*
X3250680D01*
X3188680Y10010570D02*
X3250680D01*
G54D42*
X3219680Y9755380D02*
Y9970479D01*
G54D16*
X3587790Y9611460D02*
Y9673460D01*
X3292510Y9611460D02*
Y9673460D01*
G54D42*
X3332600Y9642460D02*
X3547700D01*
G54D16*
X3292510Y10052400D02*
Y10114400D01*
X3587790Y10052400D02*
Y10114400D01*
G54D42*
X3332600Y10083400D02*
X3547700D01*
G36*
X11114310Y9843250D02*
Y9151250D01*
X10772310D01*
Y9843250D01*
X11114310D01*
G37*
%LPC*%
G75*
X11114310Y9843250D02*
G54D43*
X3550034Y10166841D02*
X3531687Y10173089D01*
%LPD*%
G75*
X3531687Y10173089D02*
G54D44*
X10785200Y9272845D02*
X11103372D01*
G54D10*
X4623030Y13544100D02*
X4626970D01*
X4623030Y13658280D02*
X4626970D01*
X6603030Y13194100D02*
X6606970D01*
X6603030Y13308280D02*
X6606970D01*
X6118030Y13159100D02*
X6121970D01*
X6118030Y13273280D02*
X6121970D01*
X5633030Y13159100D02*
X5636970D01*
X5633030Y13273280D02*
X5636970D01*
X4623030Y13134100D02*
X4626970D01*
X4623030Y13248280D02*
X4626970D01*
X4623030Y12929100D02*
X4626970D01*
X4623030Y13043280D02*
X4626970D01*
X4623030Y13749100D02*
X4626970D01*
X4623030Y13863280D02*
X4626970D01*
X4623030Y13339100D02*
X4626970D01*
X4623030Y13453280D02*
X4626970D01*
G36*
X10890945Y13601190D02*
G02X10950000Y13660245I59055J0D01*
G02X11009055Y13601190I0J-59055D01*
G02X10973001Y13546798I-59055J0D01*
G01X10972916Y13546883D01*
X10971514Y13548285D01*
G03X10961890Y13552280I-9624J-9596D01*
G01X10916904D01*
G02X10890945Y13601190I33096J48910D01*
G37*
G54D11*
X72500Y13611190D03*
X225000Y10851190D03*
G54D12*
X59340Y13194910D02*
G01X64340D01*
X59340Y13247710D02*
X64340D01*
X1317500Y13594940D02*
X1322500D01*
X1317500Y13647740D02*
X1322500D01*
X2882500Y13537590D02*
X2887500D01*
X2882500Y13484790D02*
X2887500D01*
X3206400Y13099520D02*
X3211400D01*
X3206400Y13046720D02*
X3211400D01*
X527500Y13194790D02*
X532500D01*
X527500Y13247590D02*
X532500D01*
G54D13*
X1413750Y13485250D02*
Y13491250D01*
X1452140Y13398630D02*
Y13404630D01*
X1375360Y13398630D02*
Y13404630D01*
X10675000Y13510250D02*
Y13516250D01*
X10713390Y13423630D02*
Y13429630D01*
X10636610Y13423630D02*
Y13429630D01*
X1575000Y12847750D02*
Y12853750D01*
X1613390Y12761130D02*
Y12767130D01*
X1536610Y12761130D02*
Y12767130D01*
X1431250Y12761130D02*
Y12767130D01*
X1392860Y12847750D02*
Y12853750D01*
X1469640Y12847750D02*
Y12853750D01*
X1862500Y12847750D02*
Y12853750D01*
X1900890Y12761130D02*
Y12767130D01*
X1824110Y12761130D02*
Y12767130D01*
X1718750Y12761130D02*
Y12767130D01*
X1680360Y12847750D02*
Y12853750D01*
X1757140Y12847750D02*
Y12853750D01*
X2300000Y12766500D02*
Y12772500D01*
X2338390Y12679880D02*
Y12685880D01*
X2261610Y12679880D02*
Y12685880D01*
X2450000Y12679880D02*
Y12685880D01*
X2411610Y12766500D02*
Y12772500D01*
X2488390Y12766500D02*
Y12772500D01*
X2150000Y12679880D02*
Y12685880D01*
X2111610Y12766500D02*
Y12772500D01*
X2188390Y12766500D02*
Y12772500D01*
X2900000Y12766500D02*
Y12772500D01*
X2938390Y12679880D02*
Y12685880D01*
X2861610Y12679880D02*
Y12685880D01*
X3050000Y12679880D02*
Y12685880D01*
X3011610Y12766500D02*
Y12772500D01*
X3088390Y12766500D02*
Y12772500D01*
X2750000Y12679880D02*
Y12685880D01*
X2711610Y12766500D02*
Y12772500D01*
X2788390Y12766500D02*
Y12772500D01*
X3650000Y12679880D02*
Y12685880D01*
X3611610Y12766500D02*
Y12772500D01*
X3688390Y12766500D02*
Y12772500D01*
X3350000Y12679880D02*
Y12685880D01*
X3311610Y12766500D02*
Y12772500D01*
X3388390Y12766500D02*
Y12772500D01*
X4100000Y12766500D02*
Y12772500D01*
X4138390Y12679880D02*
Y12685880D01*
X4061610Y12679880D02*
Y12685880D01*
X4250000Y12679880D02*
Y12685880D01*
X4211610Y12766500D02*
Y12772500D01*
X4288390Y12766500D02*
Y12772500D01*
X3950000Y12679880D02*
Y12685880D01*
X3911610Y12766500D02*
Y12772500D01*
X3988390Y12766500D02*
Y12772500D01*
X4700000Y12766500D02*
Y12772500D01*
X4738390Y12679880D02*
Y12685880D01*
X4661610Y12679880D02*
Y12685880D01*
X4850000Y12679880D02*
Y12685880D01*
X4811610Y12766500D02*
Y12772500D01*
X4888390Y12766500D02*
Y12772500D01*
X4550000Y12679880D02*
Y12685880D01*
X4511610Y12766500D02*
Y12772500D01*
X4588390Y12766500D02*
Y12772500D01*
X5268750Y12766500D02*
Y12772500D01*
X5307140Y12679880D02*
Y12685880D01*
X5230360Y12679880D02*
Y12685880D01*
X5418750Y12679880D02*
Y12685880D01*
X5380360Y12766500D02*
Y12772500D01*
X5457140Y12766500D02*
Y12772500D01*
X5118750Y12679880D02*
Y12685880D01*
X5080360Y12766500D02*
Y12772500D01*
X5157140Y12766500D02*
Y12772500D01*
X6362500Y12766500D02*
Y12772500D01*
X6400890Y12679880D02*
Y12685880D01*
X6324110Y12679880D02*
Y12685880D01*
X6900000Y12766500D02*
Y12772500D01*
X6938390Y12679880D02*
Y12685880D01*
X6861610Y12679880D02*
Y12685880D01*
X7500000Y12766500D02*
Y12772500D01*
X7538390Y12679880D02*
Y12685880D01*
X7461610Y12679880D02*
Y12685880D01*
X8068750Y12766500D02*
Y12772500D01*
X8107140Y12679880D02*
Y12685880D01*
X8030360Y12679880D02*
Y12685880D01*
X6512500Y12679880D02*
Y12685880D01*
X6474110Y12766500D02*
Y12772500D01*
X6550890Y12766500D02*
Y12772500D01*
X6212500Y12679880D02*
Y12685880D01*
X6174110Y12766500D02*
Y12772500D01*
X6250890Y12766500D02*
Y12772500D01*
X7050000Y12679880D02*
Y12685880D01*
X7011610Y12766500D02*
Y12772500D01*
X7088390Y12766500D02*
Y12772500D01*
X6750000Y12679880D02*
Y12685880D01*
X6711610Y12766500D02*
Y12772500D01*
X6788390Y12766500D02*
Y12772500D01*
X7650000Y12679880D02*
Y12685880D01*
X7611610Y12766500D02*
Y12772500D01*
X7688390Y12766500D02*
Y12772500D01*
X7350000Y12679880D02*
Y12685880D01*
X7311610Y12766500D02*
Y12772500D01*
X7388390Y12766500D02*
Y12772500D01*
X8218750Y12679880D02*
Y12685880D01*
X8180360Y12766500D02*
Y12772500D01*
X8257140Y12766500D02*
Y12772500D01*
X7918750Y12679880D02*
Y12685880D01*
X7880360Y12766500D02*
Y12772500D01*
X7957140Y12766500D02*
Y12772500D01*
X9162500Y12766500D02*
Y12772500D01*
X9200890Y12679880D02*
Y12685880D01*
X9124110Y12679880D02*
Y12685880D01*
X9700000Y12766500D02*
Y12772500D01*
X9738390Y12679880D02*
Y12685880D01*
X9661610Y12679880D02*
Y12685880D01*
X9312500Y12679880D02*
Y12685880D01*
X9274110Y12766500D02*
Y12772500D01*
X9350890Y12766500D02*
Y12772500D01*
X9012500Y12679880D02*
Y12685880D01*
X8974110Y12766500D02*
Y12772500D01*
X9050890Y12766500D02*
Y12772500D01*
X9850000Y12679880D02*
Y12685880D01*
X9811610Y12766500D02*
Y12772500D01*
X9888390Y12766500D02*
Y12772500D01*
X9550000Y12679880D02*
Y12685880D01*
X9511610Y12766500D02*
Y12772500D01*
X9588390Y12766500D02*
Y12772500D01*
X10262500Y12847750D02*
Y12853750D01*
X10300890Y12761130D02*
Y12767130D01*
X10224110Y12761130D02*
Y12767130D01*
X10662500Y12847750D02*
Y12853750D01*
X10700890Y12761130D02*
Y12767130D01*
X10624110Y12761130D02*
Y12767130D01*
X10118750Y12761130D02*
Y12767130D01*
X10080360Y12847750D02*
Y12853750D01*
X10157140Y12847750D02*
Y12853750D01*
X10518750Y12761130D02*
Y12767130D01*
X10480360Y12847750D02*
Y12853750D01*
X10557140Y12847750D02*
Y12853750D01*
X662500Y12847750D02*
Y12853750D01*
X700890Y12761130D02*
Y12767130D01*
X624110Y12761130D02*
Y12767130D01*
X518750Y12761130D02*
Y12767130D01*
X480360Y12847750D02*
Y12853750D01*
X557140Y12847750D02*
Y12853750D01*
X3500000Y12766500D02*
Y12772500D01*
X3538390Y12679880D02*
Y12685880D01*
X3461610Y12679880D02*
Y12685880D01*
G54D14*
X1534000Y13814190D02*
Y13828190D01*
X1606000Y13814190D02*
Y13828190D01*
X1446500Y13731690D02*
Y13745690D01*
X1518500Y13731690D02*
Y13745690D01*
X6898500Y12981690D02*
Y12995690D01*
X6826500Y12981690D02*
Y12995690D01*
X5044000Y12884190D02*
Y12898190D01*
X5116000Y12884190D02*
Y12898190D01*
X4839000Y12884190D02*
Y12898190D01*
X4911000Y12884190D02*
Y12898190D01*
X5249000Y12884190D02*
Y12898190D01*
X5321000Y12884190D02*
Y12898190D01*
X5454000Y12884190D02*
Y12898190D01*
X5526000Y12884190D02*
Y12898190D01*
X7181000Y13114190D02*
Y13128190D01*
X7109000Y13114190D02*
Y13128190D01*
X8826000Y13254190D02*
Y13268190D01*
X8754000Y13254190D02*
Y13268190D01*
X8591000Y13254190D02*
Y13268190D01*
X8519000Y13254190D02*
Y13268190D01*
X7416000Y13114190D02*
Y13128190D01*
X7344000Y13114190D02*
Y13128190D01*
X8356000Y13254190D02*
Y13268190D01*
X8284000Y13254190D02*
Y13268190D01*
X7651000Y13113560D02*
Y13127560D01*
X7579000Y13113560D02*
Y13127560D01*
X8121000Y13254190D02*
Y13268190D01*
X8049000Y13254190D02*
Y13268190D01*
X7886000Y13254190D02*
Y13268190D01*
X7814000Y13254190D02*
Y13268190D01*
X1390250Y13812940D02*
Y13826940D01*
X1462250Y13812940D02*
Y13826940D01*
X1131000Y13431690D02*
Y13445690D01*
X1059000Y13431690D02*
Y13445690D01*
X6314000Y12937940D02*
Y12951940D01*
X6386000Y12937940D02*
Y12951940D01*
X4839000Y13154190D02*
Y13168190D01*
X4911000Y13154190D02*
Y13168190D01*
X5044000Y12974190D02*
Y12988190D01*
X5116000Y12974190D02*
Y12988190D01*
X5249000Y13154190D02*
Y13168190D01*
X5321000Y13154190D02*
Y13168190D01*
X5044000Y13154190D02*
Y13168190D01*
X5116000Y13154190D02*
Y13168190D01*
X4839000Y12974190D02*
Y12988190D01*
X4911000Y12974190D02*
Y12988190D01*
X5249000Y12974190D02*
Y12988190D01*
X5321000Y12974190D02*
Y12988190D01*
X4911000Y13064190D02*
Y13078190D01*
X4839000Y13064190D02*
Y13078190D01*
X5321000Y13064190D02*
Y13078190D01*
X5249000Y13064190D02*
Y13078190D01*
X5454000Y13154190D02*
Y13168190D01*
X5526000Y13154190D02*
Y13168190D01*
X5454000Y12974190D02*
Y12988190D01*
X5526000Y12974190D02*
Y12988190D01*
Y13064190D02*
Y13078190D01*
X5454000Y13064190D02*
Y13078190D01*
X8826000Y13524190D02*
Y13538190D01*
X8754000Y13524190D02*
Y13538190D01*
X8591000Y13524190D02*
Y13538190D01*
X8519000Y13524190D02*
Y13538190D01*
X7416000Y13384190D02*
Y13398190D01*
X7344000Y13384190D02*
Y13398190D01*
X7181000Y13204190D02*
Y13218190D01*
X7109000Y13204190D02*
Y13218190D01*
X8826000Y13344190D02*
Y13358190D01*
X8754000Y13344190D02*
Y13358190D01*
X8591000Y13344190D02*
Y13358190D01*
X8519000Y13344190D02*
Y13358190D01*
X7109000Y13294190D02*
Y13308190D01*
X7181000Y13294190D02*
Y13308190D01*
X8754000Y13434190D02*
Y13448190D01*
X8826000Y13434190D02*
Y13448190D01*
X8519000Y13434190D02*
Y13448190D01*
X8591000Y13434190D02*
Y13448190D01*
X7344000Y13294190D02*
Y13308190D01*
X7416000Y13294190D02*
Y13308190D01*
X8356000Y13524190D02*
Y13538190D01*
X8284000Y13524190D02*
Y13538190D01*
X7651000Y13384190D02*
Y13398190D01*
X7579000Y13384190D02*
Y13398190D01*
X8121000Y13524190D02*
Y13538190D01*
X8049000Y13524190D02*
Y13538190D01*
X7886000Y13524190D02*
Y13538190D01*
X7814000Y13524190D02*
Y13538190D01*
X8356000Y13344190D02*
Y13358190D01*
X8284000Y13344190D02*
Y13358190D01*
X7651000Y13203560D02*
Y13217560D01*
X7579000Y13203560D02*
Y13217560D01*
X7886000Y13344190D02*
Y13358190D01*
X7814000Y13344190D02*
Y13358190D01*
X8284000Y13434190D02*
Y13448190D01*
X8356000Y13434190D02*
Y13448190D01*
X8049000Y13434190D02*
Y13448190D01*
X8121000Y13434190D02*
Y13448190D01*
X5116000Y13064190D02*
Y13078190D01*
X5044000Y13064190D02*
Y13078190D01*
X7814000Y13434190D02*
Y13448190D01*
X7886000Y13434190D02*
Y13448190D01*
X615250Y13906070D02*
Y13920070D01*
X687250Y13906070D02*
Y13920070D01*
X615250Y13824820D02*
Y13838820D01*
X687250Y13824820D02*
Y13838820D01*
X3041000Y13684190D02*
Y13698190D01*
X2969000Y13684190D02*
Y13698190D01*
X10904750Y13444190D02*
Y13458190D01*
X10832750Y13444190D02*
Y13458190D01*
X1470250Y12919190D02*
Y12933190D01*
X1542250Y12919190D02*
Y12933190D01*
X1757750Y12919190D02*
Y12933190D01*
X1829750Y12919190D02*
Y12933190D01*
X10157750Y12919190D02*
Y12933190D01*
X10229750Y12919190D02*
Y12933190D01*
X10557750Y12919190D02*
Y12933190D01*
X10629750Y12919190D02*
Y12933190D01*
X557750Y12919190D02*
Y12933190D01*
X629750Y12919190D02*
Y12933190D01*
X7181000Y13384190D02*
Y13398190D01*
X7109000Y13384190D02*
Y13398190D01*
X7416000Y13204190D02*
Y13218190D01*
X7344000Y13204190D02*
Y13218190D01*
X7579000Y13293560D02*
Y13307560D01*
X7651000Y13293560D02*
Y13307560D01*
X8121000Y13344190D02*
Y13358190D01*
X8049000Y13344190D02*
Y13358190D01*
X1213750Y13431690D02*
Y13445690D01*
X1285750Y13431690D02*
Y13445690D01*
X1527750Y13469190D02*
Y13483190D01*
X1599750Y13469190D02*
Y13483190D01*
X6826500Y12900440D02*
Y12914440D01*
X6898500Y12900440D02*
Y12914440D01*
X6314000Y13037940D02*
Y13051940D01*
X6386000Y13037940D02*
Y13051940D01*
G54D13*
X2798690Y13651190D02*
X2804690D01*
X2885310Y13689580D02*
X2891310D01*
X2885310Y13612800D02*
X2891310D01*
G54D14*
X8832800Y12947940D02*
X8846800D01*
X8832800Y13019940D02*
X8846800D01*
X6032800Y12947940D02*
X6046800D01*
X6032800Y13019940D02*
X6046800D01*
X1313250Y12947940D02*
X1327250D01*
X1313250Y13019940D02*
X1327250D01*
X4258000Y13585190D02*
X4272000D01*
X4258000Y13657190D02*
X4272000D01*
X4258000Y13380190D02*
X4272000D01*
X4258000Y13452190D02*
X4272000D01*
X4258000Y13790190D02*
X4272000D01*
X4258000Y13862190D02*
X4272000D01*
X4258000Y12970190D02*
X4272000D01*
X4258000Y13042190D02*
X4272000D01*
X6958000Y13235190D02*
X6972000D01*
X6958000Y13307190D02*
X6972000D01*
X4258000Y13175190D02*
X4272000D01*
X4258000Y13247190D02*
X4272000D01*
X5988000Y13200190D02*
X6002000D01*
X5988000Y13272190D02*
X6002000D01*
X6473000Y13200190D02*
X6487000D01*
X6473000Y13272190D02*
X6487000D01*
X3658150Y13624620D02*
X3672150D01*
X3658150Y13696620D02*
X3672150D01*
X3189400Y13630870D02*
X3203400D01*
X3189400Y13702870D02*
X3203400D01*
X3408150Y13749620D02*
X3422150D01*
X3408150Y13821620D02*
X3422150D01*
X3445650Y13015370D02*
X3459650D01*
X3445650Y12943370D02*
X3459650D01*
X3564400Y13699620D02*
X3578400D01*
X3564400Y13771620D02*
X3578400D01*
X3353000Y12940190D02*
X3367000D01*
X3353000Y13012190D02*
X3367000D01*
X3718000Y13017190D02*
X3732000D01*
X3718000Y12945190D02*
X3732000D01*
X3538000Y13017190D02*
X3552000D01*
X3538000Y12945190D02*
X3552000D01*
X4528000Y13175190D02*
X4542000D01*
X4528000Y13247190D02*
X4542000D01*
X4528000Y13585190D02*
X4542000D01*
X4528000Y13657190D02*
X4542000D01*
X4528000Y13380190D02*
X4542000D01*
X4528000Y13452190D02*
X4542000D01*
X4528000Y13790190D02*
X4542000D01*
X4528000Y13862190D02*
X4542000D01*
X4528000Y12970190D02*
X4542000D01*
X4528000Y13042190D02*
X4542000D01*
X4348000Y13585190D02*
X4362000D01*
X4348000Y13657190D02*
X4362000D01*
X4348000Y13380190D02*
X4362000D01*
X4348000Y13452190D02*
X4362000D01*
X4348000Y13790190D02*
X4362000D01*
X4348000Y13862190D02*
X4362000D01*
X4348000Y12970190D02*
X4362000D01*
X4348000Y13042190D02*
X4362000D01*
X6868000Y13235190D02*
X6882000D01*
X6868000Y13307190D02*
X6882000D01*
X4348000Y13175190D02*
X4362000D01*
X4348000Y13247190D02*
X4362000D01*
X4438000D02*
X4452000D01*
X4438000Y13175190D02*
X4452000D01*
X5718000Y13200190D02*
X5732000D01*
X5718000Y13272190D02*
X5732000D01*
X6203000Y13200190D02*
X6217000D01*
X6203000Y13272190D02*
X6217000D01*
X6688000Y13235190D02*
X6702000D01*
X6688000Y13307190D02*
X6702000D01*
X5898000Y13200190D02*
X5912000D01*
X5898000Y13272190D02*
X5912000D01*
X6383000Y13200190D02*
X6397000D01*
X6383000Y13272190D02*
X6397000D01*
X5808000D02*
X5822000D01*
X5808000Y13200190D02*
X5822000D01*
X6293000Y13272190D02*
X6307000D01*
X6293000Y13200190D02*
X6307000D01*
X4438000Y13657190D02*
X4452000D01*
X4438000Y13585190D02*
X4452000D01*
X4438000Y13452190D02*
X4452000D01*
X4438000Y13380190D02*
X4452000D01*
X4438000Y13862190D02*
X4452000D01*
X4438000Y13790190D02*
X4452000D01*
X4438000Y13042190D02*
X4452000D01*
X4438000Y12970190D02*
X4452000D01*
X6778000Y13307190D02*
X6792000D01*
X6778000Y13235190D02*
X6792000D01*
X10630500Y13283940D02*
X10644500D01*
X10630500Y13355940D02*
X10644500D01*
X3628000Y12945190D02*
X3642000D01*
X3628000Y13017190D02*
X3642000D01*
X3808000Y12945190D02*
X3822000D01*
X3808000Y13017190D02*
X3822000D01*
X1588000Y13558940D02*
X1602000D01*
X1588000Y13630940D02*
X1602000D01*
X10993000Y13500580D02*
X11007000D01*
X10993000Y13428580D02*
X11007000D01*
G54D10*
X458340Y13754850D02*
Y13758790D01*
X344160Y13754850D02*
Y13758790D01*
X458340Y13861100D02*
Y13865040D01*
X344160Y13861100D02*
Y13865040D01*
X7927090Y13619220D02*
Y13623160D01*
X7812910Y13619220D02*
Y13623160D01*
X8162090Y13619220D02*
Y13623160D01*
X8047910Y13619220D02*
Y13623160D01*
X8397090Y13619220D02*
Y13623160D01*
X8282910Y13619220D02*
Y13623160D01*
X7457090Y13479220D02*
Y13483160D01*
X7342910Y13479220D02*
Y13483160D01*
X8632090Y13619220D02*
Y13623160D01*
X8517910Y13619220D02*
Y13623160D01*
X8867090Y13619220D02*
Y13623160D01*
X8752910Y13619220D02*
Y13623160D01*
X7222090Y13479220D02*
Y13483160D01*
X7107910Y13479220D02*
Y13483160D01*
X5412910Y13249220D02*
Y13253160D01*
X5527090Y13249220D02*
Y13253160D01*
X5002910Y13249220D02*
Y13253160D01*
X5117090Y13249220D02*
Y13253160D01*
X5207910Y13249220D02*
Y13253160D01*
X5322090Y13249220D02*
Y13253160D01*
X4797910Y13249220D02*
Y13253160D01*
X4912090Y13249220D02*
Y13253160D01*
X7692090Y13479220D02*
Y13483160D01*
X7577910Y13479220D02*
Y13483160D01*
G54D12*
X326400Y13523690D02*
Y13528690D01*
X273600Y13523690D02*
Y13528690D01*
G54D15*
X417440Y13371190D03*
Y13071190D03*
X172560D03*
Y13371190D03*
G54D16*
X3629620Y13396400D02*
X3691620D01*
X3629620Y13416080D02*
X3691620D01*
X3629620Y13435770D02*
X3691620D01*
X3629620Y13455450D02*
X3691620D01*
X3629620Y13475140D02*
X3691620D01*
X3629620Y13494820D02*
X3691620D01*
X3629620Y13514510D02*
X3691620D01*
X3629620Y13219230D02*
X3691620D01*
X3629620Y13238920D02*
X3691620D01*
X3629620Y13258600D02*
X3691620D01*
X3629620Y13278290D02*
X3691620D01*
X3629620Y13297970D02*
X3691620D01*
X3629620Y13317660D02*
X3691620D01*
X3629620Y13337340D02*
X3691620D01*
X3188680Y13514510D02*
X3250680D01*
X3188680Y13494820D02*
X3250680D01*
X3188680Y13475140D02*
X3250680D01*
X3188680Y13455450D02*
X3250680D01*
X3188680Y13435770D02*
X3250680D01*
X3188680Y13416080D02*
X3250680D01*
X3188680Y13396400D02*
X3250680D01*
X3188680Y13337340D02*
X3250680D01*
X3188680Y13317660D02*
X3250680D01*
X3188680Y13297970D02*
X3250680D01*
X3188680Y13278290D02*
X3250680D01*
X3188680Y13258600D02*
X3250680D01*
X3188680Y13238920D02*
X3250680D01*
X3188680Y13219230D02*
X3250680D01*
X3629620Y13357030D02*
X3691620D01*
X3629620Y13376710D02*
X3691620D01*
X3188680D02*
X3250680D01*
X3188680Y13357030D02*
X3250680D01*
X3587790Y13556340D02*
Y13618340D01*
X3568100Y13556340D02*
Y13618340D01*
X3548420Y13556340D02*
Y13618340D01*
X3528730Y13556340D02*
Y13618340D01*
X3509050Y13556340D02*
Y13618340D01*
X3489360Y13556340D02*
Y13618340D01*
X3469680Y13556340D02*
Y13618340D01*
Y13115400D02*
Y13177400D01*
X3489360Y13115400D02*
Y13177400D01*
X3509050Y13115400D02*
Y13177400D01*
X3528730Y13115400D02*
Y13177400D01*
X3548420Y13115400D02*
Y13177400D01*
X3568100Y13115400D02*
Y13177400D01*
X3587790Y13115400D02*
Y13177400D01*
X3410620Y13556340D02*
Y13618340D01*
X3390940Y13556340D02*
Y13618340D01*
X3371250Y13556340D02*
Y13618340D01*
X3351570Y13556340D02*
Y13618340D01*
X3331880Y13556340D02*
Y13618340D01*
X3312200Y13556340D02*
Y13618340D01*
X3292510Y13556340D02*
Y13618340D01*
Y13115400D02*
Y13177400D01*
X3312200Y13115400D02*
Y13177400D01*
X3331880Y13115400D02*
Y13177400D01*
X3351570Y13115400D02*
Y13177400D01*
X3371250Y13115400D02*
Y13177400D01*
X3390940Y13115400D02*
Y13177400D01*
X3410620Y13115400D02*
Y13177400D01*
X3449990Y13556340D02*
Y13618340D01*
X3430310Y13556340D02*
Y13618340D01*
Y13115400D02*
Y13177400D01*
X3449990Y13115400D02*
Y13177400D01*
G54D17*
X630000Y13653240D02*
X650000D01*
X630000Y13487880D02*
X650000D01*
G54D18*
X425000Y13580190D02*
Y13662190D01*
G54D19*
X487500Y13621190D03*
X362500D03*
G54D18*
X6724250Y13044940D02*
X6763250D01*
X6724250Y12944940D02*
X6763250D01*
X6724250Y12994940D02*
X6763250D01*
X6524250Y12944940D02*
X6563250D01*
X6524250Y12994940D02*
X6563250D01*
X6724250Y13094940D02*
X6763250D01*
X6524250Y13044940D02*
X6563250D01*
X6524250Y13094940D02*
X6563250D01*
G54D20*
X3058900Y13446880D02*
Y13585880D01*
Y13072860D02*
Y13211860D01*
G54D21*
X10816535Y12863390D02*
X10970085D01*
X10816535Y12725600D02*
X10970085D01*
X10816535Y13001190D02*
X10970085D01*
X10816535Y13138990D02*
X10970085D01*
X10816535Y13276780D02*
X10970085D01*
G54D22*
X1012910Y13530690D02*
Y13546690D01*
X1127090Y13530690D02*
Y13546690D01*
G54D23*
X1226400Y13648730D02*
Y13778650D01*
X1088600Y13648730D02*
Y13778650D01*
G54D18*
X1320000Y13796950D02*
Y13822950D01*
Y13704430D02*
Y13730430D01*
X1451250Y13545890D02*
Y13565890D01*
Y13636470D02*
Y13656470D01*
X1488650Y13545910D02*
Y13565910D01*
X1413850Y13545910D02*
Y13565910D01*
X1488650Y13636470D02*
Y13656470D01*
X1413850Y13636470D02*
Y13656470D01*
G54D24*
X8269290Y11083400D03*
X5469290D03*
X868210Y11743370D03*
G54D25*
X8330710Y11280250D03*
X5530710D03*
X806790Y11546520D03*
G54D26*
X259050Y12027570D03*
X140950D03*
Y11909460D03*
Y12736230D03*
X259050D03*
Y12854340D03*
G54D27*
X4950000Y13672060D03*
X5050000Y13572060D03*
Y13672060D03*
X5150000Y13572060D03*
Y13672060D03*
X5250000Y13572060D03*
Y13672060D03*
X5350000Y13572060D03*
Y13672060D03*
X5450000Y13572060D03*
Y13672060D03*
X5550000Y13572060D03*
Y13672060D03*
X5650000Y13572060D03*
Y13672060D03*
X5750000Y13572060D03*
Y13672060D03*
X5850000Y13572060D03*
Y13672060D03*
X5950000Y13572060D03*
Y13672060D03*
X6050000Y13572060D03*
Y13672060D03*
X6150000Y13572060D03*
Y13672060D03*
G54D21*
X259050Y11909460D03*
X140950Y12854340D03*
G54D28*
X4950000Y13572060D03*
G54D23*
X9552360Y12492130D03*
X7352360D03*
X2152360D03*
X2752360Y12493910D03*
X3352360Y12492130D03*
X3952360D03*
X4552360D03*
X5152360D03*
X6152360D03*
X6752360D03*
X8952360D03*
X7952360D03*
G54D29*
X9847640D03*
X9552360Y11507880D03*
X9847640D03*
Y11901580D03*
Y11704730D03*
X9552360Y11901580D03*
Y11704730D03*
X7647640Y12492130D03*
X7352360Y11507880D03*
X7647640D03*
Y11901580D03*
Y11704730D03*
X7352360Y11901580D03*
Y11704730D03*
X2447640Y12492130D03*
X2152360Y11507880D03*
X2447640D03*
Y11901580D03*
Y11704730D03*
X2152360Y11901580D03*
Y11704730D03*
X3047640Y12493910D03*
X2752360Y11509660D03*
X3047640D03*
Y11903360D03*
Y11706510D03*
X2752360Y11903360D03*
Y11706510D03*
X3647640Y12492130D03*
X3352360Y11507880D03*
X3647640D03*
Y11901580D03*
Y11704730D03*
X3352360Y11901580D03*
Y11704730D03*
X4247640Y12492130D03*
X3952360Y11507880D03*
X4247640D03*
Y11901580D03*
Y11704730D03*
X3952360Y11901580D03*
Y11704730D03*
X4847640Y12492130D03*
X4552360Y11507880D03*
X4847640D03*
Y11901580D03*
Y11704730D03*
X4552360Y11901580D03*
Y11704730D03*
X5447640Y12492130D03*
X5152360Y11507880D03*
X5447640D03*
Y11901580D03*
Y11704730D03*
X5152360Y11901580D03*
Y11704730D03*
X6447640Y12492130D03*
X6152360Y11507880D03*
X6447640D03*
Y11901580D03*
Y11704730D03*
X6152360Y11901580D03*
Y11704730D03*
X7047640Y12492130D03*
X6752360Y11507880D03*
X7047640D03*
Y11901580D03*
Y11704730D03*
X6752360Y11901580D03*
Y11704730D03*
X9247640Y12492130D03*
X8952360Y11507880D03*
X9247640D03*
Y11901580D03*
Y11704730D03*
X8952360Y11901580D03*
Y11704730D03*
X8247640Y12492130D03*
X7952360Y11507880D03*
X8247640D03*
Y11901580D03*
Y11704730D03*
X7952360Y11901580D03*
Y11704730D03*
G54D30*
X10647240Y12031510D03*
Y11637800D03*
Y11834660D03*
X1447240Y12031510D03*
Y11637800D03*
Y11834660D03*
X1847240Y12031510D03*
Y11637800D03*
Y11834660D03*
X10247240Y12031510D03*
Y11637800D03*
Y11834660D03*
X647240Y12031510D03*
Y11637800D03*
Y11834660D03*
G54D31*
X10647240Y12468510D03*
X1447240D03*
X1847240D03*
X10247240D03*
X647240D03*
G54D32*
X10647240Y12616150D03*
X1447240D03*
X1847240D03*
X10247240D03*
X647240D03*
G54D33*
X2137790Y10907490D03*
Y10607490D03*
X537800Y10907490D03*
Y10607490D03*
X6437790Y10907490D03*
Y10607490D03*
X6137800Y11301190D03*
Y11001190D03*
X8937800Y11301190D03*
Y11001190D03*
X10137800Y11301190D03*
Y11001190D03*
X10537790Y11301190D03*
Y11001190D03*
X3637800Y10907490D03*
Y10607490D03*
X4237790Y10907490D03*
Y10607490D03*
X4837790Y10907490D03*
Y10607490D03*
X7037800Y10907490D03*
Y10607490D03*
X7637800Y10907490D03*
Y10607490D03*
X9237800Y10907490D03*
Y10607490D03*
X10737800Y10907490D03*
Y10607490D03*
X8537790Y11301190D03*
Y11001190D03*
X937800Y11301190D03*
Y11001190D03*
X2137790Y11301190D03*
Y11001190D03*
X1537800Y10907490D03*
Y10607490D03*
X2437800Y10907490D03*
Y10607490D03*
X3037790Y10907490D03*
Y10607490D03*
X1337790Y11301190D03*
Y11001190D03*
X537800Y11301190D03*
Y11001190D03*
X6137800Y10907490D03*
Y10607490D03*
X8237800Y10907490D03*
Y10607490D03*
X8937800Y10907490D03*
Y10607490D03*
X9837790Y10907490D03*
Y10607490D03*
X5937790Y10907490D03*
Y10607490D03*
X8537790Y10907490D03*
Y10607490D03*
X8737800Y10907490D03*
Y10607490D03*
X10137800Y10907490D03*
Y10607490D03*
X10337790Y10907490D03*
Y10607490D03*
X10537790Y10907490D03*
Y10607490D03*
X737790Y10907490D03*
Y10607490D03*
X937800Y10907490D03*
Y10607490D03*
X1137800Y10907490D03*
Y10607490D03*
X1937800Y10907490D03*
Y10607490D03*
X1337790Y10907490D03*
Y10607490D03*
X5737790Y11301190D03*
Y11001190D03*
X5437790Y10907490D03*
Y10607490D03*
X5737790Y10907490D03*
Y10607490D03*
G54D34*
X931250Y13388690D03*
X1530000Y13901190D03*
X640000Y13411190D03*
X560000Y13485560D03*
X170000Y12976190D03*
G54D35*
X344160Y13702030D03*
X275000Y13861190D03*
X1370000Y13761190D03*
X1060000Y13376190D03*
X1001250Y13438690D03*
X1470000Y13494940D03*
X1637500Y13888690D03*
X1695000Y13581190D03*
X1745000Y13671190D03*
X1645000D03*
X1690000Y13761190D03*
X6600000Y13436190D03*
X8050000Y13686190D03*
X7825000D03*
X7750000Y13611190D03*
X7345000Y13546190D03*
X7595000Y13556190D03*
X6540000Y13146190D03*
Y13201190D03*
X8645000Y13336190D03*
X8695000D03*
X9005000Y13426190D03*
X3725000Y13626190D03*
X3445000Y13656190D03*
X3415150Y13696400D03*
X3820000Y13386190D03*
X3850000Y13436190D03*
X3920000Y13386190D03*
X3270000Y13056190D03*
X3340000Y13081190D03*
X3310000Y13016190D03*
X505000Y13746820D03*
X270000Y13476190D03*
X225000Y13526190D03*
X1815000Y13186190D03*
X1535000D03*
X2835000Y13481190D03*
X10500000Y13916190D03*
X10600000D03*
X10700000D03*
X10800000D03*
X10115000D03*
X10215000D03*
X10315000D03*
X10415000D03*
X10030000D03*
X9930000D03*
X9830000D03*
X9730000D03*
X9630000D03*
X9530000D03*
X9430000D03*
X9330000D03*
X9230000D03*
X9130000D03*
X9030000D03*
X8930000D03*
X8830000D03*
X8730000D03*
X8630000D03*
X8530000D03*
X8430000D03*
X8330000D03*
X8230000D03*
X8130000D03*
X8030000D03*
X7930000D03*
X7830000D03*
X7730000D03*
X7630000D03*
X7530000D03*
X7430000D03*
X7330000D03*
X7230000D03*
X7130000D03*
X7030000D03*
X6930000D03*
X6830000D03*
X6730000D03*
X6630000D03*
X6530000D03*
X6430000D03*
X6330000D03*
X6230000D03*
X6130000D03*
X6030000D03*
X5930000D03*
X5830000D03*
X5730000D03*
X5630000D03*
X5530000D03*
X5430000D03*
X5330000D03*
X5230000D03*
X5130000D03*
X6315000Y13151190D03*
X4145000Y12911190D03*
X4030000Y12921190D03*
X4075000Y12951190D03*
X3985000Y12966190D03*
X3940000Y13011190D03*
X3365000Y13821190D03*
X3260000Y13746190D03*
X3255000Y13681190D03*
X3265000Y13611190D03*
X3330000Y13491190D03*
X3510000Y13336190D03*
X3435000Y13331190D03*
X506250Y12926190D03*
X2489000Y12818820D03*
X3090000Y12817440D03*
X3687500Y12819940D03*
X2930000Y13611190D03*
X3255000Y13176190D03*
X3395000Y13061190D03*
X3815000D03*
X3635000D03*
X3530000Y13236190D03*
X3595000Y13426190D03*
X3735000Y13191190D03*
X3790000D03*
X3855000D03*
X3405000Y13266190D03*
X3345000D03*
X3535000Y13656190D03*
X3315000Y13321190D03*
X3340000Y13366190D03*
X3385000Y13386190D03*
Y13436190D03*
X3155000Y13426190D03*
X5970000Y13156190D03*
X4810000Y13301190D03*
X4625000Y12881190D03*
X4535000Y12926190D03*
X4445000D03*
X4265000Y13086190D03*
X4535000Y13131190D03*
X4445000D03*
X4265000Y13291190D03*
X4445000Y13336190D03*
X4265000Y13496190D03*
X4445000Y13541190D03*
X4265000Y13701190D03*
X4445000Y13746190D03*
X5005000Y13306190D03*
X5415000Y13301190D03*
X5210000D03*
X4795000Y13161190D03*
Y13071190D03*
X4955000Y12891190D03*
X5000000Y13161190D03*
Y12891190D03*
Y13071190D03*
X5160000Y12891190D03*
X5205000Y13161190D03*
Y12891190D03*
Y13071190D03*
X5365000Y12891190D03*
X5410000Y13161190D03*
Y12891190D03*
Y13071190D03*
X5570000Y12891190D03*
X7270000Y13481190D03*
X7225000Y13301190D03*
X7065000Y13121190D03*
X7505000Y13481190D03*
X7460000Y13301190D03*
X7740000Y13480560D03*
X7695000Y13300560D03*
X7975000Y13621190D03*
X7930000Y13441190D03*
X7770000Y13261190D03*
X8210000Y13621190D03*
X8165000Y13441190D03*
X8005000Y13261190D03*
X8445000Y13621190D03*
X8400000Y13441190D03*
X8240000Y13261190D03*
X8915000Y13621190D03*
X8870000Y13261190D03*
Y13441190D03*
X8710000Y13261190D03*
X8475000D03*
X8635000Y13441190D03*
X8680000Y13621190D03*
X6130000Y13111190D03*
X1320250Y12890190D03*
X6428120Y12769940D03*
X706250Y12369940D03*
X1450000D03*
X1781250D03*
X2156250D03*
X2450000D03*
X2756250Y12371710D03*
X3050000D03*
X3356250Y12369940D03*
X3650000D03*
X3956250D03*
X4250000D03*
X4556250D03*
X4850000D03*
X5156250D03*
X5450000D03*
X6156250D03*
X6450000D03*
X6756250D03*
X7050000D03*
X7356250D03*
X7650000D03*
X8250000D03*
X7956250D03*
X1931250Y13219940D03*
X1706250Y13188690D03*
X5143750Y12832440D03*
X1563000Y13110190D03*
X1624000Y12988190D03*
X7350000Y13061190D03*
X7143750Y13044940D03*
X1156250Y13363690D03*
X3131650Y13275120D03*
X10775000Y13451190D03*
X513750Y13863070D03*
X3196400Y13573120D03*
X3190150Y13754370D03*
X10737500Y12863690D03*
X9506250Y13427440D03*
X470000Y12371820D03*
X8268750Y12994940D03*
X4100000Y13916190D03*
X256250Y13963690D03*
X9325000Y13627440D03*
X9525000Y13596190D03*
X9306250Y13489940D03*
X9687500Y13439940D03*
X9981250Y13663690D03*
X10385000Y13016820D03*
X10375000Y12857440D03*
X10830000Y13771820D03*
X4350000Y12657440D03*
Y12776190D03*
X4150000D03*
X3787500Y12657440D03*
X4100000Y12637190D03*
X3500000Y12638690D03*
X3193750Y12657440D03*
X2900000Y12638690D03*
X2587500Y12769940D03*
Y12651190D03*
X2300000Y12638690D03*
X2362500Y12788690D03*
X2206250Y12826190D03*
X3493750Y12488690D03*
X4093750Y12551190D03*
X2900000Y12494940D03*
X2293750Y12501190D03*
X2285000Y13896820D03*
X10045000Y13176820D03*
X5010000Y13916190D03*
X2581250Y13913690D03*
X2025000Y13888690D03*
X4680000Y13916190D03*
X10012500Y12557440D03*
X10406250Y12544940D03*
Y12701190D03*
X2000000Y12713690D03*
X1987500Y12482440D03*
X1990000Y12661820D03*
X1731250Y12482440D03*
X1612500Y12644940D03*
X3212500Y12488690D03*
X3800000Y12494940D03*
X4400000Y12501190D03*
X11050000Y12376190D03*
Y13576190D03*
X6481250Y12994320D03*
X3449990Y13069530D03*
X3452650Y12891870D03*
X3152650Y13235620D03*
X3146400Y13316870D03*
X10637500Y13232440D03*
X10712500Y13376190D03*
X3127650Y13535620D03*
X3125000Y13476190D03*
X3033900Y13285620D03*
X3096400Y13348120D03*
X2985650Y13152370D03*
X3115150Y13648120D03*
X2971400Y13504370D03*
X2977650Y13423120D03*
X3165150Y12991870D03*
X3127650Y13125120D03*
Y13054370D03*
X2637500Y12832440D03*
X3970000Y13916190D03*
X4870000D03*
X10450000Y13476190D03*
X10187500Y13257440D03*
X10387500Y13276190D03*
X10681250Y13088690D03*
X10562500Y13269940D03*
X10768750Y13501190D03*
X7012500Y13069940D03*
X6662500Y13082440D03*
X6600000Y12969940D03*
X10456250Y13388690D03*
X11050000Y12563690D03*
X10762500D03*
Y12369940D03*
X10406250D03*
X10081250D03*
X10193750Y13057440D03*
X3150000Y12807440D03*
X9012500Y12369940D03*
X9400000D03*
X9737500D03*
X4046000Y12770190D03*
X2246000D03*
X2846000D03*
X1525000Y12851190D03*
X1381250Y12788690D03*
X1668750D03*
X1887500Y12926190D03*
X1812500Y12851190D03*
X10068750Y12788690D03*
X10287500Y12926190D03*
X10212500Y12851190D03*
X10468750Y12788690D03*
X10687500Y12926190D03*
X10612500Y12851190D03*
X468750Y12788690D03*
X687500Y12926190D03*
X612500Y12851190D03*
X9108500Y12770190D03*
X9646000D03*
X8014750D03*
X7446000D03*
X6308500D03*
X5214750D03*
X4646000D03*
X3208900Y12991870D03*
X4888390Y12819940D03*
X6787500D03*
X1262500Y13019940D03*
X3050000Y12832440D03*
X2981250D03*
X3246400Y13554370D03*
X763750Y13913070D03*
Y13831820D03*
X1600000Y12926190D03*
X5982050Y13019940D03*
X6039800Y12890190D03*
X7387500Y12819940D03*
X8782050Y13019940D03*
X9050000Y12819940D03*
X4287500D03*
X8825000Y13132440D03*
X4793750Y12819940D03*
X5393750D03*
X2093750Y12713690D03*
X2693750D03*
X3293750D03*
X3893750D03*
X4493750D03*
X5062500D03*
X6156250D03*
X6693750D03*
X7293750D03*
X7862500D03*
X8956250D03*
X9493750D03*
X9274110Y12819940D03*
X9812500D03*
X6043750Y13076190D03*
X6250000Y12876190D03*
X7956250Y12819940D03*
X8839800Y12890190D03*
X4493750Y12657440D03*
X5000000Y12557440D03*
X3065150Y13004370D03*
X5640000Y12891190D03*
X5606250Y13007440D03*
X6237500Y12938690D03*
X6168750Y12826190D03*
X6362500Y12869940D03*
X6475000Y12876190D03*
X6756250Y12857440D03*
X6631250Y12769940D03*
X6806250Y13082440D03*
X7156250Y12913690D03*
X7256250Y12944940D03*
X7431250Y12819940D03*
X7200000Y12763690D03*
Y12594940D03*
X6600000Y12613690D03*
X7800000Y12494940D03*
Y12669940D03*
Y12776190D03*
X8381250Y12863690D03*
X8706250Y13157440D03*
X8962500Y13132440D03*
X9043750Y13144940D03*
X9525000Y12869940D03*
X9200000Y12826190D03*
X8881250Y12813690D03*
X9425000Y12757440D03*
X9400000Y12619940D03*
X10006250Y12882440D03*
X9431250Y13044940D03*
X9418750Y13138690D03*
X10631250Y13026190D03*
X9637500Y12869940D03*
X9225000Y12994940D03*
X10481250Y13157440D03*
X10775000Y13394940D03*
X8162500Y12926190D03*
X8275000Y13157440D03*
X8031250Y13057440D03*
X7868750Y13157440D03*
X7618750Y12919940D03*
X7515000Y13041190D03*
X7887500Y12938690D03*
X8118750Y12826190D03*
X7556250Y12776190D03*
X6662500Y12857440D03*
X6081250Y12838690D03*
X7712500Y13044940D03*
X7418750Y12976190D03*
X9856250Y13038690D03*
X9812500Y13163690D03*
X9993750Y12732440D03*
X8456250Y13157440D03*
X8368750Y13076190D03*
X5675000Y13019940D03*
X955450D03*
X8475000D03*
X6956250Y12907440D03*
Y12988690D03*
X6841620Y12770190D03*
X6839060Y12837130D03*
X4465000Y13916190D03*
X4680000Y13751190D03*
Y13546190D03*
Y13361190D03*
X4675000Y13136190D03*
X6605000Y13146190D03*
X6695000Y13186190D03*
X6785000D03*
X6965000D03*
Y13356190D03*
X6050000Y13271190D03*
X5635000Y13111190D03*
X5725000Y13151190D03*
X5815000D03*
X6480000Y13321190D03*
X6250000Y13151190D03*
X9580000Y12871190D03*
X10106250Y12926190D03*
X10506250D03*
X10737500Y12688690D03*
X10718160Y13276780D03*
X10518750Y13376190D03*
X10581250Y13426190D03*
X7930000Y13261190D03*
X7695000Y13120560D03*
X7460000Y13121190D03*
X8165000Y13261190D03*
X8400000D03*
X8635000D03*
X6450000Y12944940D03*
X6436750Y13044940D03*
X6055000Y13191190D03*
X3545000Y12896190D03*
X3635000D03*
X3725000D03*
X3815000D03*
X3480000Y13816190D03*
X4270000Y13916190D03*
X4790000Y12911190D03*
X7250000Y13361190D03*
X7485000D03*
X7720000D03*
X7980000Y13336190D03*
X8215000D03*
X8450000D03*
X8920000D03*
X2705000Y13516190D03*
X9020000Y13021190D03*
X3755000Y13406190D03*
X3950000Y13536190D03*
X4130000D03*
X4115000Y13341190D03*
X3960000D03*
X4375000Y12891190D03*
X3360000D03*
X3285000Y13416190D03*
X3430000Y13211190D03*
X7290000Y13121190D03*
X7230000D03*
X7530000D03*
X3515000Y13726190D03*
X3570000Y13821190D03*
X3665150Y13746040D03*
X3290000Y13521190D03*
X3390000Y13511190D03*
X3445000Y13516190D03*
X3500000Y13521190D03*
X3555000Y13356190D03*
X8985000Y13826190D03*
X9085000D03*
X9185000D03*
X9285000D03*
X9385000D03*
X9485000D03*
X9585000D03*
X9685000D03*
X9785000D03*
X9885000D03*
X9985000D03*
X10370000D03*
X10270000D03*
X10170000D03*
X10070000D03*
X10755000D03*
X10655000D03*
X10555000D03*
X10455000D03*
X9035000Y13736190D03*
X9135000D03*
X9235000D03*
X9335000D03*
X9435000D03*
X9535000D03*
X9635000D03*
X9735000D03*
X9835000D03*
X9935000D03*
X10035000D03*
X10420000D03*
X10320000D03*
X10220000D03*
X10120000D03*
X10805000D03*
X10705000D03*
X10605000D03*
X10505000D03*
X2095000Y13581190D03*
X1995000D03*
X1895000D03*
X1795000D03*
X2045000Y13671190D03*
X1945000D03*
X1845000D03*
X1790000Y13761190D03*
X1890000D03*
X1990000D03*
X2090000D03*
X4055000Y13486190D03*
X4065000Y13396190D03*
X3550000Y12771190D03*
X425000Y13696190D03*
X445000Y13546190D03*
G54D36*
X5862500Y12011650D03*
Y11763690D03*
X1142950D03*
Y12011650D03*
X8662500D03*
Y11763690D03*
G54D37*
X10785200Y12796470D02*
X10780829Y12795978D01*
X10776676Y12794528D01*
X10772949Y12792193D01*
X10769833Y12789088D01*
X10767485Y12785369D01*
X10766021Y12781221D01*
X10765515Y12776851D01*
X10765992Y12772479D01*
X10767427Y12768321D01*
X10769750Y12764586D01*
X10772845Y12761460D01*
X10776556Y12759099D01*
X10780699Y12757621D01*
X10785066Y12757100D01*
X10785200Y12757100D01*
X0Y10511820D02*
X11100000D01*
Y12757100D01*
X10785200D02*
X11100000D01*
X10785200D03*
Y12796470D02*
X11100000D01*
Y14015760D01*
X0D02*
X11100000D01*
X0Y10511820D02*
Y14015760D01*
G54D38*
X22840Y12064580D03*
X377160D03*
Y12699220D03*
X22840D03*
G54D39*
X11000000Y10769300D03*
X100000D03*
X11000000Y13758280D03*
X100000D03*
G54D40*
X11000000Y10611820D03*
X100000D03*
X11000000Y13915760D03*
X100000D03*
G54D41*
X8597500Y11452770D02*
Y11618120D01*
X5799300Y11450970D02*
Y11616320D01*
X1077950Y11452770D02*
Y11618120D01*
Y12181110D02*
Y12307100D01*
Y12816940D02*
Y13064970D01*
X5799300Y12815140D02*
Y13063170D01*
Y12179320D02*
Y12305300D01*
X8597500Y12181110D02*
Y12307100D01*
Y12816940D02*
Y13064970D01*
G54D16*
X3629620Y13514510D02*
X3691620D01*
X3629620Y13219230D02*
X3691620D01*
G54D42*
X3660620Y13259320D02*
Y13474419D01*
G54D16*
X3188680Y13219230D02*
X3250680D01*
X3188680Y13514510D02*
X3250680D01*
G54D42*
X3219680Y13259320D02*
Y13474419D01*
G54D16*
X3587790Y13115400D02*
Y13177400D01*
X3292510Y13115400D02*
Y13177400D01*
G54D42*
X3332600Y13146400D02*
X3547700D01*
G54D16*
X3292510Y13556340D02*
Y13618340D01*
X3587790Y13556340D02*
Y13618340D01*
G54D42*
X3332600Y13587340D02*
X3547700D01*
G36*
X11114310Y13347190D02*
Y12655190D01*
X10772310D01*
Y13347190D01*
X11114310D01*
G37*
%LPC*%
G75*
X11114310Y13347190D02*
G54D43*
X3550034Y13670781D02*
X3531687Y13677029D01*
%LPD*%
G75*
X3531687Y13677029D02*
G54D44*
X10785200Y12776785D02*
X11103372D01*
G54D45*
X-196900Y1181100D03*
X11296801D03*
X11296850Y13425449D03*
X-196850D03*
G54D46*
X11296850Y196850D03*
X-196850D03*
Y13819150D03*
X11296850D03*
G54D37*
X10785200Y2284650D02*
X10780829Y2284159D01*
X10776676Y2282709D01*
X10772949Y2280373D01*
X10769833Y2277268D01*
X10767485Y2273549D01*
X10766021Y2269401D01*
X10765515Y2265032D01*
X10765992Y2260659D01*
X10767427Y2256502D01*
X10769750Y2252766D01*
X10772845Y2249640D01*
X10776556Y2247280D01*
X10780699Y2245802D01*
X10785066Y2245281D01*
X10785200Y2245280D01*
X-393701Y0D02*
X11493701D01*
X11100000D02*
Y2245280D01*
X10785200D02*
X11100000D01*
X10785200D03*
Y2284650D02*
X11100000D01*
Y3503940D01*
X-393701D02*
X11493701D01*
X0Y0D02*
Y3503940D01*
X10785200Y5788590D02*
X10780829Y5788099D01*
X10776676Y5786649D01*
X10772949Y5784313D01*
X10769833Y5781208D01*
X10767485Y5777489D01*
X10766021Y5773341D01*
X10765515Y5768972D01*
X10765992Y5764599D01*
X10767427Y5760441D01*
X10769750Y5756706D01*
X10772845Y5753580D01*
X10776556Y5751219D01*
X10780699Y5749741D01*
X10785066Y5749220D01*
X10785200Y5749220D01*
X0Y3503940D02*
X11100000D01*
Y5749220D01*
X10785200D02*
X11100000D01*
X10785200D03*
Y5788590D02*
X11100000D01*
Y7007880D01*
X-393701D02*
X11493701D01*
X0Y3503940D02*
Y7007880D01*
X10785200Y9292530D02*
X10780829Y9292038D01*
X10776676Y9290589D01*
X10772949Y9288253D01*
X10769833Y9285148D01*
X10767485Y9281429D01*
X10766021Y9277281D01*
X10765515Y9272912D01*
X10765992Y9268539D01*
X10767427Y9264381D01*
X10769750Y9260646D01*
X10772845Y9257520D01*
X10776556Y9255159D01*
X10780699Y9253681D01*
X10785066Y9253160D01*
X10785200Y9253160D01*
X0Y7007880D02*
X11100000D01*
Y9253160D01*
X10785200D02*
X11100000D01*
X10785200D03*
Y9292530D02*
X11100000D01*
Y10511820D01*
X-393701D02*
X11493701D01*
X0Y7007880D02*
Y10511820D01*
X10785200Y12796470D02*
X10780829Y12795978D01*
X10776676Y12794528D01*
X10772949Y12792193D01*
X10769833Y12789088D01*
X10767485Y12785369D01*
X10766021Y12781221D01*
X10765515Y12776851D01*
X10765992Y12772479D01*
X10767427Y12768321D01*
X10769750Y12764586D01*
X10772845Y12761460D01*
X10776556Y12759099D01*
X10780699Y12757621D01*
X10785066Y12757100D01*
X10785200Y12757100D01*
X0Y10511820D02*
X11100000D01*
Y12757100D01*
X10785200D02*
X11100000D01*
X10785200D03*
Y12796470D02*
X11100000D01*
Y14015760D01*
X-393701D02*
X11493701D01*
X0Y10511820D02*
Y14015760D01*
X-393701Y0D02*
Y14015760D01*
X11493701Y0D02*
Y14015760D01*
X11100000Y9292530D02*
X11104371Y9292038D01*
X11108524Y9290589D01*
X11112251Y9288253D01*
X11115367Y9285148D01*
X11117715Y9281429D01*
X11119179Y9277281D01*
X11119685Y9272912D01*
X11119208Y9268539D01*
X11117773Y9264381D01*
X11115450Y9260646D01*
X11112355Y9257520D01*
X11108644Y9255159D01*
X11104501Y9253681D01*
X11100134Y9253160D01*
X11100000Y9253160D01*
Y5788590D02*
X11104371Y5788099D01*
X11108524Y5786649D01*
X11112251Y5784313D01*
X11115367Y5781208D01*
X11117715Y5777489D01*
X11119179Y5773341D01*
X11119685Y5768972D01*
X11119208Y5764599D01*
X11117773Y5760441D01*
X11115450Y5756706D01*
X11112355Y5753580D01*
X11108644Y5751219D01*
X11104501Y5749741D01*
X11100134Y5749220D01*
X11100000Y5749220D01*
Y2284650D02*
X11104371Y2284159D01*
X11108524Y2282709D01*
X11112251Y2280373D01*
X11115367Y2277268D01*
X11117715Y2273549D01*
X11119179Y2269401D01*
X11119685Y2265032D01*
X11119208Y2260659D01*
X11117773Y2256502D01*
X11115450Y2252766D01*
X11112355Y2249640D01*
X11108644Y2247280D01*
X11104501Y2245802D01*
X11100134Y2245281D01*
X11100000Y2245280D01*
Y12796470D02*
X11104371Y12795978D01*
X11108524Y12794528D01*
X11112251Y12792193D01*
X11115367Y12789088D01*
X11117715Y12785369D01*
X11119179Y12781221D01*
X11119685Y12776851D01*
X11119208Y12772479D01*
X11117773Y12768321D01*
X11115450Y12764586D01*
X11112355Y12761460D01*
X11108644Y12759099D01*
X11104501Y12757621D01*
X11100134Y12757100D01*
X11100000Y12757100D01*
M02*
