M48
;Layer_Color=9474304
;FILE_FORMAT=2:5
INCH,LZ
;TYPE=PLATED
T1F00S00C0.01700
T2F00S00C0.03150
T3F00S00C0.03937
T4F00S00C0.04331
T5F00S00C0.05118
%
T01
X00245Y0152063
X0024375Y019375
X0028125Y02075
X0022Y02695
X0Y02675
X00045Y02625
X0077625Y025875
X00835Y02525
X0093125Y025125
X01245Y0264375
X0147Y0273
X0157
X0167
X0177
X0187
X0170625Y0236875
X0159Y02335
X0148125Y023375
X0131Y02335
X01338Y02259
X01399Y02137
X01375Y02075
X013Y02
X0115625Y019375
X0109525Y02039
X010375Y0216875
X0073045
X004625Y02075
X003875Y02
X0048125Y0151875
X01225
X0155625
X0150625Y0163125
X017625
X01765Y0181063
X01775Y018625
X0186875
X0193125Y0151875
X013875Y0179375
X0144375Y019375
X015875Y02
X016625Y02075
X0198125Y01975
X02021Y01919
X021375Y019375
X02264Y0196763
X023625Y0191875
X024125Y0198125
X0246875Y018625
X023625Y018
X02075Y017875
X0206875Y0165
X02225Y0151875
X0253125Y0152052
X02675Y0164375
Y017875
X02621Y01919
X0275625Y0198125
X02825
X02865Y0196625
X02925Y0195625
X0296875Y0180625
X0306875Y018625
X03135Y0204
X0322765Y0204068
X0332Y02045
X0341
X035
X034625Y0196875
X03325Y0192
X03275Y017875
X0326875Y016375
X0313125Y0151875
X029875Y016375
X02825Y0152052
X03425Y0151875
X0341Y0221
X0322499Y0221834
X0317Y0221
X03115Y0223
X03045Y02205
X03085Y02165
X029839Y0214068
X0294015
X0290265Y0220318
Y0227393
X0292765Y0238443
X0290665Y0242393
X029214Y0246568
X028714Y0249693
X028089Y0243443
X0276065Y0230118
X0284015Y0215318
X0303Y02325
X0312Y02415
X0318
X03205Y0236
X0321Y0248
X03285Y02485
X0333Y02505
X0337Y02575
X03275Y0267
X0322Y02665
X03165Y0266
X03105Y0264
X03065Y0267
X030214Y0270318
X029714Y0272193
X0290265Y0268443
X029Y02625
X0293Y02575
X0306Y02565
X03115Y02515
X0316Y02535
Y02585
X0309Y0247
X03305Y02385
X0351Y0234
X0275265Y0257193
X027464Y0265318
X0261Y0263
X0248Y02665
X0353Y02555
X03595Y02535
X03625Y02585
X03695Y02535
X03735Y0249
X0389
X0384Y02545
X0383Y02635
X03905Y02685
X0404Y02645
Y0244
Y02235
X0422Y0228
X0431
X0445Y02285
X0457Y0231
Y0222
X04565Y0206
X0456875Y0196875
X0466339
X0473Y0204
X04775
X04935
X0498
X0491875Y0198125
X0498975Y01919
X048375Y018625
X04775Y0170625
X04625Y0151875
X0433125
X04175Y0165
X04125Y0180625
Y01925
X040625Y0196875
X0415Y0204
X0422Y02075
X0431
X044Y0203
X04421Y01919
X0426875Y018625
Y0180625
X03875Y01786
X0386875Y017
X03821Y01919
X03925Y01925
X0392Y0206
X0385Y021
X03805Y0207
X0376Y02115
X03715Y0216
X0359Y0221
X03565Y0234
X0363
X0359Y02045
X0366875Y018625
X035625Y0180625
X03575Y0164375
X0373125Y0151875
X04025
X0493125
X0498Y0222
Y0231
X04985Y0245
X0478Y02455
X04775Y0231
Y0222
X04585Y0245
X04455Y0251
Y02695
X0422Y0269
Y02485
X03725Y02685
X0519Y0245
X05185Y0231
Y0222
Y0204
X0514
X0516875Y0196875
X05345Y0204
X05415
X0538125Y0215625
X0545Y0216875
X0541Y0226
X055Y023
X0559
X05745Y02305
X0583Y0234
X05825Y0242
X0581875Y02225
X0575705Y0216875
X058148Y02039
X0585625Y019875
X0594375Y01975
X0593125Y018625
X060835Y01919
X0620312Y0191875
X0625Y02025
X06225Y0209375
X0625625Y0214313
X0621175Y0219375
X06315Y02295
Y0235
X0638Y02295
X064375Y0223125
X0647Y02335
X0656
X0658125Y0223125
X0653125Y0200625
X065625Y0196875
X0661406Y0198594
X0661662Y01919
X0646875Y018625
X0640625Y0191875
X064375Y0200625
X06375Y0211875
X061375Y0201875
X06025Y02025
X060125Y020875
X06025Y023
X0609
X05905Y0226
X06255Y0247
X06375Y02585
Y017625
X06225Y0151875
X0593125
X0653125
X05225
X06825
X0713125
X07425
X07575Y0164375
Y0181875
X076375Y018625
X07575Y01925
X0773125Y0196875
X0778975Y01919
X0789375Y01975
X079375Y02075
X0804375Y0214375
X0805Y0230625
X08015Y0241
X0794
X0799Y02485
X0794Y0259
X07705
X07755Y02485
X0778Y0241
X07705
X07545
X0747Y0244937
X07495Y0251
X07515Y0262937
X0737Y02705
X0728Y0263
X0726Y0251
X07235Y0245
Y0227
X07305
X0729Y0219
X0719375Y02125
X07125Y0221
X07065Y0227
X07005
X0691875Y0219375
X0693125Y020625
X0703125Y0209375
X06975Y019125
X0706875Y018625
X071625Y0196875
X0720625
X07221Y01919
X0733125Y01925
X0739375Y0206875
X074875Y0219375
X0747Y0226937
X0764375Y0230625
X076625Y020875
X0780625Y0220625
X0814375Y02225
X08175Y0241
Y0259
X0815625Y020125
X08025Y0151875
X0773125
X06975Y0174375
X0673125Y0205625
Y021375
X067875Y0221875
X0684Y0227
X0674Y02335
Y02505
X07025Y0251
X07Y0245
X07045Y0263
X0712Y02695
X08225Y02485
X0825Y0241
X0823125Y0230625
X0825Y0216875
X0855705
X086Y0228125
X087375
X0881875Y0229375
X08795Y0217
X08825Y0196875
X088835Y01919
X08975Y01975
X0904911Y0196875
X092Y0190625
X0926875Y018625
X093Y0201875
X09355Y0202
X094125Y0201875
X09421Y01919
X095875Y0196875
X0963125Y021875
X095875Y023125
X094625Y0258875
X0928125Y0257625
X0908125Y0263875
X0878Y02575
X08645Y0259
X08695Y02485
X08645Y0241
X08485
X0841
X0842Y02485
X0847
X0841Y0259
X0848125Y0230625
X086148Y02039
X0865625Y019625
X0873125Y018625
X087875Y0151875
X09175
Y0176875
X0920625Y0219375
X0919375Y022875
X09Y0214375
X095125Y0151875
X0985625
X097875Y0170625
X0976875Y0188125
X0984375Y019375
X0978125Y0203125
X0988125Y02075
X100625
X099875Y02
X1015Y0200625
X1024375Y019375
X1018125Y0185
Y0169375
Y0151875
X105375
Y017125
X105125Y018375
Y020125
X104625Y02075
X103875Y02
X1028125Y02075
X1016Y0216563
X0996875Y0220625
X099625Y0240625
X101625Y02425
X103375Y0241875
X104125Y0238125
X1049316Y0242559
X104875Y02525
X1055Y0254375
Y026
X1054375Y0265
X1035625Y02575
X1029375Y02525
X1023125Y025375
X10225Y02625
X1025625Y0230625
X1045625Y022375
X1040625Y02175
X0982Y0232563
X10825Y02725
Y017125
Y01525
X1058Y02885
X10605Y0292063
X1053Y02975
X1043
X1033
X1023
X10145
X10045
X09945
X09845
X0981Y02885
X09895
X09995
X10095
X10195
X1028
X1038
X1048
X10475Y03065
X10375
X10275
X1019
X1009
X0999
X0989
X09805
X10575
X09705
X09605
X09505
X09405
X09305
X09205
X09105
X09005
X08905
X08805
X08705
X08605
X08505
X08405
X08305
X08205
X0822Y0277
X08455
X0869
X0881Y02885
X0891
X0901
X0911
X0921
X0931
X0941
X0951
X0961
X0971
X0975625Y028125
X0976Y02975
X0966
X0956
X0946
X0936
X0926
X0916
X0906
X0896
X0886
X0876
X091Y0277625
X093Y02745
X07985Y0277
X07825Y02835
X0775Y0277
X076Y02835
X07525Y0276
X07505Y03065
X07605
X07705
X07805
X07905
X08005
X08105
X07405
X07305
X07205
X07105
X07005
X06905
X06805
X06705
X06605
X06505
X06405
X06305
X06205
X06105
X06005
X05905
X05805
X05705
X05605
X05505
X05405
X05305
X05205
X05105
X05005
X04905
X04785
X04645
X04455
Y029
X0422Y02895
X0424Y03065
X04045
X03875
X03745
X0404Y0285
X035Y02775
X0344015Y0289485
X0329Y02875
X0331Y02805
X0322
X0319015Y0284521
X0314Y0297
X03255Y02965
X03345Y0297
X03035Y02895
X0303Y0283
X0304Y0276
X0289015Y0279693
X0296515Y0290318
X02705Y0276
X0235625Y030625
X0206Y0304563
X018Y030375
X01765Y0291
X01665
X01565
X01465
X0142Y0282
X0152
X0162
X0172
X0182
X01865Y0291
X014125Y030375
X01145Y0291
X0053875Y0298063
Y0306188
X0028875Y0301188
X0028Y0289563
X002Y02845
X0011916Y0285084
X0005Y0301
X0003125Y031125
T02
X084375Y009125
Y0116046
X0810571Y0042906
X0804429Y0023221
X0524429
X0530571Y0042906
X056375Y009125
Y0116046
X0091795
Y009125
X0064321Y0089218
X0058179Y0069533
X-00055Y02125
X00335Y0263437
X00415Y0256
X0070625Y025375
X01305Y0305
T03
X0872736Y0065669
Y0085354
Y0105039
X0902264
Y0085354
Y0065669
X0932736
Y0085354
Y0105039
X0962264
Y0085354
Y0065669
X0802264
Y0085354
Y0105039
X0772736
Y0085354
Y0065669
X0742264
Y0085354
Y0105039
X0712736
Y0085354
Y0065669
X0682264
Y0085354
Y0105039
X0652736
Y0085354
Y0065669
X0622264
Y0085354
Y0105039
X0592736
Y0085354
Y0065669
X0522264
Y0085354
Y0105039
X0492736
Y0085354
Y0065669
X0462264
Y0085354
Y0105039
X0432736
Y0085354
Y0065669
X0402264
Y0085354
Y0105039
X0372736
Y0085354
Y0065669
X0342264
Y0085354
Y0105039
X0312736
Y0085354
Y0065669
X0282264Y0065847
Y0085532
Y0105217
X0252736
Y0085532
Y0065847
X0222264Y0065669
Y0085354
Y0105039
X0192736
Y0085354
Y0065669
X0003405Y0105827
Y0117638
X-0008405
Y0105827
Y0188504
X0003405
Y0200315
X-0008405
X0192736Y0164094
X0222264
X0252736Y0164272
X0282264
X0312736Y0164094
X0342264
X0372736
X0402264
X0432736
X0462264
X0492736
X0522264
X0592736
X0622264
X0652736
X0682264
X0712736
X0742264
X0772736
X0802264
X0872736
X0902264
X0932736
X0962264
T04
X04725Y0272087
X04825
X04925
X05025
X05125
X05225
X05325
X05425
X05525
X05625
X05725
X05825
X05925
Y0282087
X05825
X05725
X05625
X05525
X05425
X05325
X05225
X05125
X05025
X04925
X04825
X04725
T05
X099128Y-002437
X1011279
X1031279
X105128
Y000563
X1031279
Y0015
X1011279Y000563
X099128
Y0015
Y0045
X1031279
X1042224Y0078661
Y0098347
Y0118032
X1002224
Y0098347
Y0078661
X0961279Y000563
Y-002437
X090128
Y000563
X087128
Y0015
X085128Y000563
X0831279
Y0015
Y0045
X087128
Y-002437
X085128
X0831279
X080128
Y000563
X074128
Y-002437
X068128
Y000563
X0621279
Y-002437
X059128
X0571279
X0551279
X0521279
Y000563
X0551279
Y0015
X0571279Y000563
X059128
Y0015
Y0045
X0551279
X0461279Y000563
Y-002437
X0401279
Y000563
X034128
Y-002437
X0281279
Y000563
X022128
Y-002437
X0191279
X017128
Y000563
X0191279
Y0015
Y0045
X0162224Y0078661
Y0098347
Y0118032
X0122224
Y0098347
Y0078661
X0111279Y0045
Y0015
Y000563
X013128
Y-002437
X0111279
X009128
X007128
X0051279
Y000563
X007128
Y0015
X009128Y000563
X007128Y0045
X0042224Y0078661
Y0098347
Y0118032
X003128Y0045
Y0015
Y000563
Y-002437
X0042224Y0161732
Y0176496
X0122224
Y0161732
X0162224
Y0176496
X1002224
Y0161732
X1042224
Y0176496
M30
